<svg id="Layer_1" data-name="Layer 1" xmlns="http://www.w3.org/2000/svg" viewBox="0 0 100 70.33"><path d="M51.5,27.1c11.9,0,22.6-2.4,27.5-6-2.6-7.2-8-8.1-14.2-9.2-1.6-.3-3.3-.6-5-1a8.2,8.2,0,0,0-16.4,0c-1.7.4-3.4.7-5,1C32,13,26.6,13.9,24,21.1,28.9,24.7,39.6,27.1,51.5,27.1Z"/><path d="M95.1,26.2h0a11.64,11.64,0,0,0-15-2.8h0c-5.4,3.7-15.6,6-27.4,6.2v10h2.2a1.22,1.22,0,0,1,.9.4l4.6,4.6a1.49,1.49,0,0,1,.4.9V56.9a1.22,1.22,0,0,1-1.2,1.2h-16a1.22,1.22,0,0,1-1.2-1.2V45.4a1.22,1.22,0,0,1,.4-.9l4.6-4.6a1.49,1.49,0,0,1,.9-.4h2.2v-10c-11.7-.2-22-2.5-27.3-6.2-.2.5-.5,1.1-.7,1.6C17,18.6,4.2,20.5,3.6,20.6a1.28,1.28,0,0,0-1.1,1.2V29a1.09,1.09,0,0,0,.4.9,3.55,3.55,0,0,0,.9.4c.4,0,10.1-.2,11.5,8.4s3.3,16.1,11.8,16.5a31.21,31.21,0,0,0,42.8,6.3H83.6a1.3,1.3,0,0,0,1.2-.8,1.24,1.24,0,0,0-.3-1.4c-1.7-1.7-2.5-3.4-2.3-5a6.55,6.55,0,0,1,2.6-4.2.1.1,0,0,0,.1-.1l9-7.6A11.7,11.7,0,0,0,95.1,26.2Zm-6.8,10-6.1,5.1a30.72,30.72,0,0,0,.5-5.3c0-1.2-.1-2.5-.2-3.7L84,31a3.33,3.33,0,0,1,4.7.4A3.45,3.45,0,0,1,88.3,36.2Z"/></svg>