<?xml version="1.0" standalone="no"?>
<!DOCTYPE svg PUBLIC "-//W3C//DTD SVG 20010904//EN"
 "http://www.w3.org/TR/2001/REC-SVG-20010904/DTD/svg10.dtd">
<svg version="1.0" xmlns="http://www.w3.org/2000/svg"
 width="300.000000pt" height="221.000000pt" viewBox="0 0 300.000000 221.000000"
 preserveAspectRatio="xMidYMid meet">
<metadata>
Created by potrace 1.10, written by Peter Selinger 2001-2011
</metadata>
<g transform="translate(0.000000,221.000000) scale(0.100000,-0.100000)"
fill="#000000" stroke="none">
<path d="M1513 2111 c-9 -11 -20 -18 -25 -15 -13 8 -10 -2 13 -40 12 -20 17
-36 12 -36 -13 0 -33 -46 -33 -75 0 -36 34 -65 74 -65 18 0 39 -7 47 -16 11
-14 8 -15 -31 -10 -24 2 -46 9 -49 15 -4 6 -25 -12 -46 -40 -25 -32 -56 -58
-83 -70 -25 -11 -46 -28 -51 -42 -5 -13 -22 -29 -38 -34 -15 -6 -50 -19 -78
-29 -27 -9 -63 -30 -79 -46 -35 -36 -112 -51 -122 -24 -4 11 3 23 19 36 50 40
47 95 -3 58 -23 -17 -32 -19 -44 -9 -11 10 -20 6 -45 -21 -18 -19 -31 -44 -31
-59 0 -31 81 -126 98 -115 8 4 10 2 6 -7 -3 -8 -1 -18 5 -22 33 -20 -4 -100
-76 -168 -26 -24 -31 -26 -37 -12 -4 11 -15 15 -33 13 -22 -2 -29 -9 -31 -30
-3 -24 -6 -27 -23 -18 -29 16 -23 53 21 142 25 52 40 94 39 117 0 29 -2 32 -9
16 -5 -11 -9 -32 -9 -48 -1 -20 -8 -30 -26 -37 -14 -5 -25 -12 -25 -16 0 -3 7
-3 15 0 14 5 13 1 -1 -24 -10 -16 -21 -27 -25 -24 -4 2 -5 -5 -2 -16 4 -14 1
-19 -8 -17 -8 2 -11 2 -6 0 4 -3 7 -9 7 -15 0 -11 -35 -58 -41 -55 -2 1 1 -3
8 -9 17 -15 28 -90 14 -98 -6 -4 -9 -11 -6 -16 3 -5 2 -11 -3 -14 -4 -2 -8 12
-9 32 -3 67 -4 72 -13 77 -6 4 -7 -108 -1 -134 1 -2 8 2 17 10 21 17 72 19 70
2 -1 -7 -6 -16 -11 -20 -4 -4 -5 -3 -1 4 7 14 -10 28 -18 14 -6 -10 13 -29 29
-29 5 0 11 -5 13 -11 2 -5 -6 -8 -17 -6 -14 3 -18 0 -14 -12 5 -12 7 -12 14
-1 7 10 9 10 9 -2 0 -12 2 -13 9 -1 7 11 11 9 21 -9 9 -18 9 -21 0 -15 -10 6
-11 -1 -8 -26 4 -22 0 -38 -10 -49 -14 -13 -14 -15 2 -18 12 -3 16 -10 13 -23
-3 -10 -1 -19 3 -19 5 0 8 -13 8 -30 -1 -31 -12 -40 -21 -17 -4 10 -6 10 -6 0
-1 -7 -6 -13 -12 -13 -6 0 -9 7 -6 14 4 10 1 13 -7 10 -9 -4 -13 3 -11 21 3
21 1 24 -10 15 -8 -7 -16 -7 -19 -2 -3 6 2 13 11 16 15 6 15 9 3 16 -8 5 -18
6 -23 3 -5 -3 -8 0 -5 8 3 8 13 16 23 17 10 3 15 0 11 -7 -13 -20 13 -12 34
11 13 15 17 25 10 32 -5 5 -10 19 -11 31 0 12 -6 4 -14 -20 l-13 -40 0 40 c-1
65 -6 93 -19 106 -9 9 -11 5 -9 -14 2 -15 -1 -24 -5 -21 -5 3 -9 0 -9 -6 0 -6
-4 -9 -9 -5 -5 3 -18 -6 -29 -20 -17 -22 -21 -23 -32 -10 -10 12 -16 13 -26 4
-11 -9 -14 -8 -14 1 0 7 -8 19 -17 27 -10 8 -12 12 -6 8 7 -3 22 -1 33 5 16 8
20 8 20 -3 0 -8 8 -21 18 -28 15 -12 16 -12 5 2 -13 16 -8 29 9 29 5 0 6 -6 2
-12 -5 -9 -2 -9 9 1 19 15 23 26 6 15 -7 -4 -9 0 -5 14 4 11 2 23 -4 27 -10 6
-7 77 7 175 3 25 6 48 5 53 -1 4 2 7 7 7 5 0 11 10 15 23 3 12 23 44 46 71 41
49 57 88 19 47 -25 -26 -62 -25 -67 3 -3 14 0 17 12 13 9 -4 23 -4 31 -1 17 7
20 49 5 59 -6 4 -8 10 -5 15 3 5 -4 11 -15 15 -11 4 -17 11 -14 17 4 7 2 8 -4
4 -7 -4 -12 -2 -12 3 0 6 -5 11 -11 11 -5 0 -7 -6 -3 -12 5 -8 1 -8 -10 1 -14
12 -19 12 -25 2 -5 -7 -12 -13 -17 -13 -28 1 -79 -38 -141 -106 -129 -142
-184 -230 -213 -335 -25 -94 9 -223 72 -268 25 -19 33 -20 56 -9 23 10 29 9
44 -10 10 -12 18 -32 18 -43 0 -21 0 -21 -20 1 -23 25 -33 27 -60 12 -14 -7
-23 -6 -34 5 -8 9 -19 17 -23 18 -4 1 -7 6 -5 10 1 5 -2 6 -7 3 -23 -15 -91
108 -91 163 0 16 -5 33 -11 36 -8 6 -8 100 1 155 0 3 4 -1 9 -8 7 -11 9 -10
14 3 4 10 3 14 -4 9 -13 -7 -3 32 12 50 26 31 79 117 79 127 0 6 7 8 17 5 10
-4 14 -4 11 0 -9 9 42 75 53 69 4 -3 6 3 4 14 -3 15 1 19 16 16 11 -2 17 0 14
4 -3 5 11 22 31 37 19 16 51 53 71 82 25 39 38 51 46 43 6 -6 31 -11 56 -11
68 0 127 -33 157 -89 13 -25 22 -35 18 -21 -16 68 -84 120 -155 120 -42 0 -49
3 -49 19 0 11 -10 27 -21 35 -19 13 -25 13 -50 0 -33 -16 -36 -26 -14 -44 13
-11 4 -24 -70 -93 -96 -90 -219 -242 -209 -259 4 -6 3 -8 -3 -5 -6 4 -23 -21
-39 -56 -26 -58 -28 -71 -28 -192 -1 -116 2 -136 23 -182 23 -52 81 -114 124
-134 19 -8 22 -17 19 -53 -3 -38 0 -46 28 -69 17 -15 40 -27 51 -27 29 0 59
18 59 35 0 12 -4 11 -19 -4 -14 -14 -27 -17 -43 -13 -22 7 -22 7 5 10 19 2 31
11 37 27 19 50 98 69 167 40 69 -29 106 -80 105 -147 -1 -21 3 -38 8 -38 14 0
38 53 32 69 -3 9 0 11 9 6 11 -6 12 -5 2 6 -7 7 -13 24 -13 39 0 29 -49 88
-97 115 -18 10 -30 21 -28 24 2 4 -32 6 -74 6 -90 0 -131 -19 -131 -60 0 -28
-12 -32 -30 -10 -11 13 -10 21 7 43 32 44 101 60 203 48 25 -3 50 -5 55 -6 6
0 3 -5 -5 -10 -11 -7 -8 -9 13 -8 22 2 25 5 14 13 -8 5 -13 18 -11 27 2 15 -1
16 -17 8 -13 -8 -19 -7 -19 0 0 6 -5 8 -12 4 -7 -4 -8 -3 -4 4 4 6 13 9 20 6
8 -3 17 -1 21 5 4 7 -1 8 -12 4 -16 -6 -17 -5 -3 12 15 18 14 18 -15 0 l-30
-19 25 27 24 28 21 -41 c11 -22 24 -38 27 -35 3 4 9 -3 13 -14 3 -12 10 -19
15 -16 5 3 11 1 14 -4 4 -5 1 -13 -5 -17 -8 -5 -10 -2 -5 7 5 8 2 8 -6 -2 -7
-9 -19 -14 -27 -11 -8 3 -11 0 -7 -7 11 -17 31 -13 51 9 13 15 21 17 26 9 10
-17 -1 -40 -15 -32 -6 4 -5 -1 3 -10 16 -20 2 -23 -18 -4 -11 10 -12 9 -5 -3
4 -8 19 -24 32 -34 16 -13 22 -26 19 -42 -2 -13 0 -21 4 -18 11 6 26 -55 21
-84 -8 -41 -59 -82 -101 -82 -40 0 -71 23 -71 53 0 23 23 21 45 -3 25 -28 79
-27 99 2 22 31 20 45 -1 20 -29 -34 -65 -37 -93 -8 -38 42 -73 26 -63 -28 12
-62 118 -70 172 -12 31 33 39 102 17 144 -9 18 -13 32 -10 32 11 0 105 -75
138 -109 17 -17 35 -31 42 -31 6 0 14 -14 16 -31 4 -26 -2 -36 -40 -69 -24
-22 -64 -49 -88 -60 -49 -24 -57 -34 -20 -24 20 5 27 0 40 -25 9 -17 12 -32 7
-36 -13 -8 -43 24 -34 38 4 7 0 8 -11 4 -10 -4 -22 -7 -27 -7 -13 0 -11 -58 3
-66 7 -4 8 -3 4 4 -5 8 2 10 24 5 28 -5 36 0 81 47 27 29 61 75 76 103 26 46
31 50 66 51 22 1 37 -4 37 -11 0 -17 -22 -22 -45 -10 -11 5 -17 6 -13 2 4 -4
2 -17 -4 -29 -10 -18 -9 -19 3 -9 18 15 72 25 64 12 -4 -5 -15 -9 -26 -9 -10
0 -19 -4 -19 -9 0 -14 -30 -7 -42 10 -8 11 -9 10 -4 -4 3 -11 0 -20 -9 -23 -8
-4 -15 -14 -15 -23 0 -14 2 -14 11 -1 8 11 12 12 16 3 2 -7 18 -13 34 -13 19
0 28 4 23 11 -3 6 -15 9 -25 6 -11 -3 -19 -1 -19 4 0 5 10 10 23 11 12 1 29 2
37 3 8 0 21 4 28 8 6 5 17 5 24 1 8 -5 9 -2 5 9 -3 10 -2 17 3 17 6 0 10 -9
10 -20 0 -11 4 -20 10 -20 17 0 60 23 60 32 0 5 -9 4 -19 -2 -28 -14 -41 -13
-41 6 0 12 11 15 58 13 51 -2 142 15 142 26 0 3 -16 5 -36 5 -19 0 -33 -4 -30
-8 2 -4 -4 -8 -15 -8 -15 0 -16 3 -6 12 6 7 46 14 89 16 74 3 90 -4 44 -21
-20 -8 -37 -32 -50 -74 -3 -9 -13 -17 -23 -17 -9 0 -29 -12 -45 -27 l-27 -26
-135 13 c-130 12 -166 11 -166 -9 0 -11 33 -9 41 2 3 5 19 7 35 5 l29 -3 -42
-23 c-30 -15 -43 -18 -43 -10 0 10 -2 10 -8 1 -4 -7 -19 -10 -34 -8 -15 3 -30
-1 -38 -10 -7 -8 -20 -16 -29 -16 -9 -1 -2 -5 14 -9 l30 -8 -27 -1 c-16 0 -28
-6 -28 -12 0 -12 86 -7 138 7 18 5 22 2 22 -15 0 -19 6 -21 55 -21 36 0 57 5
62 14 5 9 31 17 65 20 32 3 67 10 78 16 16 8 20 8 20 -3 0 -27 45 -47 90 -41
26 4 46 1 56 -7 11 -9 18 -9 26 -1 7 7 35 12 64 12 35 0 56 5 65 16 8 10 20
13 33 9 52 -16 165 -35 209 -35 36 0 47 4 47 16 0 12 6 15 25 10 74 -19 113
-18 160 3 59 26 74 45 75 93 0 60 -67 103 -99 64 -27 -33 -171 52 -171 100 0
18 -14 19 -330 19 -181 0 -330 -2 -330 -5 0 -6 -232 -1 -239 5 -9 9 5 13 67
17 39 3 62 0 62 -6 0 -8 3 -8 8 0 4 6 19 10 34 9 15 -1 25 1 23 5 -7 11 31 19
46 10 8 -6 5 -10 -12 -13 -22 -4 -22 -4 -2 -6 12 0 28 8 36 19 8 11 16 18 19
15 2 -3 5 2 5 10 0 8 -4 12 -8 10 -4 -3 -10 2 -13 10 -4 13 -2 14 14 5 11 -6
20 -20 20 -31 0 -11 4 -18 9 -14 5 3 12 1 15 -4 4 -5 -6 -11 -21 -14 -16 -2
111 -4 280 -5 348 -2 331 -5 412 78 56 58 105 86 162 96 29 4 42 2 52 -10 18
-21 33 -20 62 3 14 10 48 26 78 35 91 27 132 61 175 144 22 42 33 191 17 218
-9 16 -11 10 -10 -36 3 -92 0 -132 -11 -125 -5 3 -15 -7 -22 -22 -7 -15 -17
-31 -23 -35 -6 -5 -6 -8 0 -8 5 0 -1 -7 -13 -16 -22 -15 -54 -62 -34 -50 6 3
14 1 18 -5 4 -7 3 -9 -4 -5 -6 3 -15 -2 -21 -11 -7 -12 -11 -13 -11 -5 0 18
-25 9 -25 -8 0 -7 -7 -15 -15 -17 -12 -4 -12 -3 -1 5 9 7 10 11 2 17 -6 3 -20
-4 -31 -17 -16 -20 -22 -21 -39 -11 -17 11 -19 10 -15 -1 5 -13 -30 -46 -48
-46 -5 0 -8 10 -8 23 0 29 28 55 97 92 70 37 111 79 142 145 22 50 25 70 29
208 3 83 8 152 12 152 11 0 20 -52 22 -124 l2 -61 3 52 c2 29 10 57 18 63 18
15 19 36 3 46 -8 5 -9 2 -5 -9 3 -10 2 -17 -2 -17 -14 0 -19 24 -14 54 5 26 4
27 -15 17 -32 -17 -34 -14 -15 22 9 17 16 35 15 40 -1 4 5 7 13 7 14 0 21 -34
16 -85 -1 -13 2 -16 9 -9 7 7 7 31 2 72 -5 33 -5 59 -1 57 4 -3 9 2 12 10 4 8
29 27 57 42 29 15 66 36 83 45 l32 18 -26 0 c-30 0 -74 -20 -77 -35 -1 -5 -14
-9 -27 -9 -14 1 -23 -1 -21 -4 3 -2 -6 -13 -19 -24 -13 -10 -30 -31 -37 -45
-17 -34 -38 -41 -38 -13 0 11 15 35 33 51 l32 30 -29 -15 c-16 -8 -33 -13 -36
-11 -4 2 -11 -20 -17 -50 -5 -30 -6 -52 -2 -49 5 3 7 -69 5 -158 -4 -178 -19
-246 -71 -314 -30 -39 -101 -88 -115 -79 -6 4 -10 1 -10 -6 0 -7 -3 -10 -6 -6
-3 3 -1 14 5 24 8 14 10 14 11 3 0 -13 1 -13 10 0 5 8 10 11 10 6 0 -5 11 1
25 14 13 12 22 27 19 32 -3 4 2 15 10 24 9 8 16 19 16 24 0 14 -32 5 -45 -13
-17 -24 -26 -21 -21 6 13 64 16 108 6 102 -16 -10 -12 1 7 16 10 8 14 9 10 2
-12 -19 9 -24 25 -5 37 42 56 114 26 96 -7 -5 -8 -2 -4 5 5 7 14 10 21 7 7 -2
16 2 19 10 7 20 -3 64 -15 64 -5 0 -9 5 -9 11 0 5 5 7 10 4 6 -3 11 0 11 7 1
7 5 0 10 -17 7 -25 7 -23 4 13 -3 23 -2 42 3 42 4 0 8 9 8 19 0 11 -4 17 -8
15 -4 -3 -8 2 -8 11 0 9 5 13 10 10 6 -3 10 3 10 15 0 19 -2 20 -14 7 -8 -8
-14 -28 -14 -45 1 -32 -16 -62 -35 -62 -6 0 -2 7 9 16 19 15 19 15 -2 9 l-22
-6 19 38 c10 21 20 55 22 76 5 47 17 60 18 21 1 -17 3 -22 6 -11 2 9 9 15 14
12 5 -4 9 1 9 10 0 9 -4 14 -9 11 -18 -12 -19 23 -1 39 11 10 18 21 15 25 -2
4 7 18 20 30 16 15 23 30 19 42 -6 21 24 26 44 6 7 -7 12 -9 12 -5 0 3 -11 14
-25 23 -20 13 -28 14 -40 4 -8 -7 -15 -19 -15 -28 0 -8 -15 -31 -34 -52 -26
-29 -37 -55 -51 -116 -9 -43 -28 -94 -40 -112 -13 -19 -21 -40 -19 -47 8 -20
-22 -70 -58 -98 l-32 -25 -33 25 c-18 14 -36 23 -39 20 -3 -3 15 -19 40 -36
63 -44 86 -76 86 -123 0 -39 -1 -40 -30 -36 -19 3 -30 0 -30 -7 0 -7 11 -10
28 -7 25 3 28 0 30 -28 1 -19 -2 -29 -8 -25 -6 3 -7 0 -4 -9 7 -18 -45 -118
-57 -110 -5 3 -6 -1 -3 -9 3 -8 -6 -23 -20 -34 -14 -11 -22 -24 -18 -28 4 -5
1 -5 -6 -1 -7 4 -37 0 -68 -9 -45 -13 -71 -30 -134 -89 -80 -75 -103 -86 -181
-86 -40 0 -53 16 -21 26 9 3 26 10 37 15 17 8 17 8 -4 3 -23 -6 -23 -6 -7 17
9 13 31 30 49 37 l32 12 -30 -5 c-28 -5 -29 -4 -11 10 10 8 23 12 29 8 6 -3 7
-1 4 4 -6 10 74 30 96 25 4 -1 7 3 7 9 0 12 -58 7 -97 -8 -15 -6 -16 -4 -5 9
7 9 22 14 35 12 17 -3 18 -3 5 3 -17 8 -17 9 2 20 16 11 18 10 14 -2 -4 -10 0
-15 11 -15 12 0 15 5 10 20 -4 13 -2 20 6 20 7 0 10 3 6 6 -14 14 -106 -59
-145 -114 -66 -94 -81 -104 -164 -109 -68 -5 -72 -4 -53 11 12 9 15 15 7 16
-10 0 -10 3 0 14 7 8 16 12 19 10 4 -2 18 7 31 19 19 18 29 21 41 13 12 -8 20
-7 29 2 9 9 6 12 -15 12 -24 0 -26 2 -17 24 5 13 6 27 3 30 -6 6 13 10 30 7 5
-1 25 8 45 21 30 18 35 19 29 5 -9 -23 16 -22 34 1 13 15 12 16 -4 3 -15 -12
-17 -12 -11 3 5 14 38 22 67 17 5 -1 6 3 2 9 -3 5 3 10 14 10 12 0 21 5 21 11
0 5 4 8 9 4 5 -3 12 -1 16 4 3 6 12 8 20 4 8 -3 15 0 15 7 0 7 7 10 16 6 8 -3
12 -2 9 4 -3 5 4 8 15 7 25 -2 20 -22 -6 -22 -19 -1 -67 -24 -50 -25 5 0 3 -6
-3 -14 -9 -11 -6 -14 14 -13 13 0 30 6 36 13 10 12 8 13 -6 8 -13 -5 -16 -4
-11 5 5 8 17 10 35 5 14 -3 43 -6 64 -5 25 1 36 -2 32 -9 -3 -5 -14 -10 -23
-11 -10 0 -12 -3 -5 -5 18 -8 53 14 47 29 -3 8 -22 12 -57 11 -43 -2 -48 0
-27 8 l25 9 -24 13 c-19 10 -21 15 -10 22 8 5 20 9 27 10 18 3 29 14 14 14 -7
0 -4 16 8 42 19 42 28 148 12 148 -4 0 -6 -18 -4 -40 2 -22 1 -48 -4 -58 -4
-9 -6 -20 -6 -24 1 -5 -10 -8 -26 -9 l-27 -1 25 -7 c15 -4 -11 -7 -62 -7 -60
1 -89 5 -93 14 -2 6 -14 12 -25 12 -14 0 -20 7 -20 23 0 13 3 27 7 31 13 12
10 63 -4 63 -8 0 -9 -5 -4 -11 5 -6 5 -20 0 -31 -4 -11 -8 -33 -9 -50 0 -16
-9 -41 -20 -55 -23 -29 -26 -48 -6 -31 9 8 16 8 20 2 9 -14 -11 -23 -33 -16
-11 3 -24 -1 -32 -11 -8 -10 -32 -30 -53 -46 -21 -15 -35 -28 -31 -28 4 0 -4
-11 -18 -24 -15 -14 -23 -27 -19 -30 5 -3 19 8 31 24 14 20 30 30 47 30 14 0
23 4 20 8 -8 13 68 11 76 -2 5 -7 8 -7 8 2 0 7 5 10 10 7 23 -14 8 -27 -29
-23 -22 2 -37 0 -35 -4 3 -5 -2 -8 -12 -8 -9 0 -23 -8 -31 -17 -8 -10 -12 -12
-8 -5 11 21 -21 13 -49 -13 -18 -16 -26 -32 -22 -42 4 -9 -3 -24 -19 -39 -25
-23 -36 -17 -12 8 6 7 13 18 14 23 1 6 5 18 8 28 6 14 2 17 -25 17 -17 0 -29
4 -25 10 3 5 13 7 23 4 14 -5 15 -4 2 5 -13 9 -13 12 -1 20 7 5 11 13 8 18 -3
5 3 9 15 9 13 -1 22 6 24 17 2 14 -2 18 -17 14 -10 -3 -19 0 -20 6 0 7 -4 2
-10 -11 -7 -19 -11 -21 -23 -10 -12 11 -11 14 8 22 11 5 41 8 66 7 34 0 40 2
25 9 -16 7 -13 9 18 9 34 1 38 3 32 21 -6 19 10 30 17 10 2 -6 9 -6 18 0 21
13 12 17 -55 24 -38 4 -53 3 -40 -3 11 -5 23 -7 27 -5 4 3 9 0 12 -4 3 -5 -35
-15 -84 -21 -50 -7 -90 -17 -90 -23 0 -6 8 -7 18 -3 12 4 14 3 6 -5 -12 -12
-44 -4 -44 11 0 5 -5 9 -11 9 -5 0 -7 -4 -4 -10 4 -7 -3 -7 -20 0 -34 13 -55
13 -35 0 11 -7 2 -10 -32 -10 -35 0 -48 4 -48 15 0 11 17 15 73 18 l72 3 -73
2 c-52 1 -74 -2 -78 -11 -3 -9 -16 -12 -35 -9 -22 3 -27 7 -18 13 10 6 8 9 -8
9 -13 0 -23 4 -23 9 0 5 -8 8 -17 6 -20 -3 -58 14 -49 22 7 8 -16 29 -41 37
-12 4 -24 2 -28 -4 -3 -5 -12 -10 -18 -10 -7 0 -1 9 12 19 l24 19 -18 38 c-27
55 -25 78 5 82 14 2 30 8 35 14 7 6 -2 7 -26 3 -32 -6 -37 -4 -42 16 -7 26 3
41 30 45 10 1 41 7 68 13 50 10 49 10 -18 5 -66 -5 -68 -4 -57 16 6 11 13 20
16 20 3 0 3 -3 1 -7 -5 -8 90 -9 98 -1 3 2 -14 5 -37 7 -66 3 -66 17 -2 31 25
6 43 5 51 -2 8 -6 16 -8 20 -4 3 3 1 6 -5 6 -7 0 -12 5 -12 11 0 5 4 8 9 5 5
-3 26 1 46 10 21 8 44 13 52 10 8 -3 24 1 36 9 25 18 17 18 -54 4 -30 -5 -67
-12 -83 -14 -15 -3 -34 -9 -41 -15 -8 -7 -16 -7 -19 -2 -3 6 2 13 11 16 15 6
14 8 -2 20 -20 15 -10 25 28 28 21 2 23 6 20 35 -2 18 0 34 4 35 29 5 63 4 63
-3 0 -5 4 -9 10 -9 5 0 7 6 4 14 -4 10 -18 14 -45 13 -21 -2 -40 2 -42 8 -4
11 17 35 32 35 5 0 16 6 23 13 19 19 98 37 132 30 38 -8 77 -28 69 -36 -7 -8
29 -1 73 13 19 7 34 16 34 21 0 6 -4 7 -10 4 -13 -8 -81 5 -75 15 3 4 -5 8
-18 9 -44 2 -158 1 -169 -2 -15 -3 -17 22 -6 46 7 13 21 17 63 17 32 0 55 -4
55 -11 0 -5 5 -7 10 -4 6 3 10 -1 10 -9 0 -23 13 -27 107 -32 48 -3 92 -8 97
-11 5 -3 6 -2 3 3 -3 6 3 15 14 22 16 10 21 10 25 -3 3 -8 10 -12 15 -9 5 3 9
0 9 -5 0 -6 -9 -11 -20 -11 -12 0 -34 -7 -50 -15 -26 -14 -29 -14 -24 0 4 8 2
15 -3 15 -10 0 -29 -49 -37 -92 -3 -16 0 -28 5 -28 5 0 9 7 9 15 0 8 8 15 18
15 14 0 14 2 3 9 -21 14 0 36 55 57 35 13 47 14 59 4 8 -7 15 -9 15 -5 0 4 7
2 15 -5 18 -15 20 1 3 18 -9 9 -7 12 10 12 21 0 22 -18 1 -45 -13 -18 -6 -145
8 -145 9 0 10 7 3 24 -5 14 -7 37 -4 52 7 37 45 126 52 120 2 -3 16 4 30 14
20 17 28 18 41 8 14 -11 14 -11 3 3 -10 14 -10 18 0 22 35 13 49 -16 17 -36
-21 -13 -27 -33 -6 -21 6 4 2 -4 -10 -17 -13 -15 -23 -43 -27 -74 -4 -35 -3
-41 3 -20 29 108 111 172 207 162 88 -9 95 36 12 79 -53 27 -187 5 -212 -35
-4 -6 -17 -9 -29 -6 -16 4 -29 -1 -45 -20 -13 -15 -30 -24 -37 -21 -8 3 -17 1
-20 -4 -8 -14 29 -12 59 1 14 7 22 17 19 25 -6 16 5 18 26 5 11 -7 9 -13 -8
-30 -20 -20 -46 -26 -99 -21 -29 2 -76 26 -65 33 5 3 15 2 23 -4 8 -5 20 -9
25 -8 6 0 -2 7 -17 15 -16 8 -28 21 -28 29 0 8 -8 15 -19 15 -10 0 -24 7 -31
15 -7 8 -18 15 -24 15 -6 -1 -1 -9 12 -19 12 -11 22 -22 22 -26 0 -4 -20 11
-44 33 -49 45 -139 91 -121 62 6 -10 -13 -8 -67 6 -11 3 -18 -2 -20 -18 -2
-16 -11 -24 -28 -26 -35 -3 -54 11 -45 37 7 22 35 29 35 9 0 -7 5 -5 11 5 6 9
14 15 20 12 12 -8 11 6 -1 25 -8 13 -10 12 -10 -2 0 -11 -8 -18 -18 -18 -11 0
-34 -7 -52 -16 -27 -14 -34 -14 -41 -3 -6 10 -3 15 11 17 10 2 17 9 14 16 -3
7 2 19 11 26 18 15 20 53 3 48 -7 -3 -13 -12 -13 -21 0 -9 -4 -16 -9 -14 -5 1
-13 -8 -17 -21 -5 -13 -13 -21 -18 -17 -5 3 -12 -4 -16 -15 -7 -23 -25 -27
-25 -6 0 9 -8 13 -22 9 -22 -4 -23 -4 -4 11 11 9 26 16 34 16 8 0 32 19 53 42
32 36 42 41 56 32 10 -6 19 -25 21 -43 4 -38 22 -31 22 9 0 58 62 48 123 -19
41 -46 49 -68 17 -51 -11 6 -20 15 -20 21 0 6 -4 7 -10 4 -5 -3 -10 0 -10 8 0
8 -9 17 -21 20 -12 3 -18 10 -15 16 4 5 1 13 -5 16 -18 12 -20 -1 -4 -31 13
-26 13 -29 0 -32 -8 -2 -15 -11 -15 -20 0 -11 3 -13 8 -6 14 21 37 21 69 2 18
-11 38 -16 44 -12 8 4 9 3 5 -4 -4 -7 -2 -12 5 -12 7 0 26 -12 41 -27 15 -15
28 -22 28 -17 0 6 -16 24 -35 41 -19 17 -35 37 -36 45 0 7 -25 33 -54 58 -29
25 -54 53 -54 62 -1 9 -5 19 -11 23 -5 3 -1 14 10 25 26 26 25 71 0 101 -23
29 -26 18 -4 -16 20 -30 12 -70 -16 -85 -22 -12 -40 -6 -40 12 0 6 3 8 7 5 3
-4 12 -2 20 4 16 14 18 63 1 53 -7 -5 -9 -2 -5 8 6 16 -21 48 -40 48 -6 0 -17
10 -26 23 -13 20 -13 25 1 45 8 12 21 22 30 22 13 0 13 -3 -2 -19 -20 -22 -13
-44 22 -67 l27 -17 -22 25 c-25 27 -29 44 -11 50 16 6 2 38 -17 38 -8 0 -23
-9 -32 -19z m53 -106 c18 -14 18 -14 -4 -8 -28 7 -52 -13 -51 -41 0 -21 0 -21
9 2 10 25 42 29 59 8 16 -19 -11 -46 -41 -39 -20 4 -21 3 -5 -7 23 -15 22 -29
-3 -23 -42 11 -50 72 -14 107 19 20 25 20 50 1z m-906 -290 c7 -9 10 -18 6
-22 -3 -3 -6 -1 -6 6 0 7 -10 12 -22 11 -34 -3 -40 -1 -33 10 9 15 41 12 55
-5z m720 -25 c0 -5 14 -7 30 -5 17 2 30 -1 30 -6 0 -5 -11 -9 -25 -9 -14 0
-25 -4 -25 -10 0 -5 -7 -10 -15 -10 -8 0 -15 -4 -15 -9 0 -5 13 -8 30 -6 27 4
28 3 18 -20 -8 -18 -24 -27 -60 -34 -78 -17 -107 -14 -117 12 -11 29 9 40 74
40 38 0 44 1 25 7 -21 7 -22 8 -4 9 11 1 29 8 40 16 26 19 18 19 -44 -5 -29
-11 -61 -20 -72 -20 -11 0 -35 -13 -53 -30 -42 -37 -70 -40 -37 -5 14 15 52
34 91 46 37 11 75 27 86 34 21 17 43 19 43 5z m300 -70 c0 -5 10 -15 23 -21
20 -11 21 -11 8 4 -7 10 -10 17 -6 17 4 0 -3 9 -16 20 l-24 19 37 1 c29 0 47
-9 82 -39 25 -21 42 -42 39 -45 -15 -14 -101 -5 -138 15 -22 12 -53 28 -69 36
-18 10 -24 18 -17 23 7 4 9 15 4 26 -5 14 3 11 35 -14 23 -19 42 -38 42 -42z
m-649 11 c-29 -24 -31 -28 -19 -58 8 -21 20 -33 37 -36 14 -3 40 -11 56 -18
17 -6 46 -12 66 -11 28 0 36 -4 35 -16 0 -10 -10 -20 -21 -24 -20 -6 -20 -6 1
-13 19 -6 20 -11 13 -52 -5 -25 -14 -52 -20 -59 -19 -23 0 -35 31 -19 16 8 41
15 55 15 22 0 24 -3 16 -17 -26 -45 -39 -55 -58 -45 -11 7 -24 7 -35 1 -18
-10 -36 5 -18 16 6 4 8 11 4 16 -3 5 -15 -2 -26 -16 -11 -14 -23 -23 -27 -21
-4 3 -13 1 -21 -4 -9 -5 -19 -5 -27 2 -10 8 -13 5 -11 -13 2 -16 -2 -23 -10
-21 -8 1 -11 -1 -8 -6 3 -5 -8 -18 -24 -30 -17 -13 -31 -18 -35 -12 -3 6 -1
10 6 10 6 0 18 8 25 18 11 14 9 20 -8 39 -21 22 -21 23 -3 43 10 11 15 20 10
20 -4 0 -2 7 5 15 7 8 16 12 21 9 5 -3 12 2 15 11 5 13 9 12 25 -6 10 -12 23
-18 30 -13 9 5 6 10 -9 15 -12 5 -22 14 -22 20 0 8 4 9 13 0 8 -6 17 -8 20 -4
4 3 7 0 7 -7 0 -11 3 -11 12 -2 19 19 30 14 22 -10 -6 -21 -5 -22 11 -8 17 14
17 59 1 125 -2 11 -5 23 -5 27 -1 4 -9 6 -20 5 -18 -1 -18 -2 0 -31 10 -16 15
-34 11 -40 -3 -6 -7 -18 -7 -26 0 -8 -7 -13 -15 -11 -8 2 -21 4 -27 4 -7 0
-13 4 -13 9 0 5 10 6 23 3 18 -5 23 -2 24 16 1 13 -3 29 -9 36 -12 14 -66 43
-81 43 -20 0 -57 44 -57 67 0 13 -4 23 -10 23 -5 0 -7 -7 -4 -15 4 -8 3 -23
-1 -32 -6 -17 -7 -17 -21 1 -32 45 -1 118 47 109 16 -3 30 2 39 12 11 13 15
14 19 4 2 -7 -10 -24 -28 -38z m496 15 c2 -2 -16 -9 -39 -15 -24 -7 -49 -15
-56 -17 -9 -4 -8 5 4 30 l17 35 36 -15 c19 -8 37 -16 38 -18z m85 -26 c12 -7
31 -19 41 -28 20 -17 23 -56 5 -49 -7 2 -12 11 -10 19 4 26 -43 49 -92 44 -60
-5 -86 -21 -86 -53 0 -22 -2 -24 -16 -12 -10 8 -13 21 -9 38 5 23 4 24 -8 10
-14 -19 -106 -49 -149 -49 -45 0 -100 27 -96 46 4 25 28 30 28 6 0 -38 73 -43
160 -11 30 11 62 20 70 21 8 0 20 5 27 10 34 27 92 30 135 8z m674 4 c34 -17
60 -41 52 -49 -3 -3 -17 4 -31 16 -15 11 -32 17 -38 13 -8 -4 -9 -3 -5 4 5 8
0 12 -13 12 -27 0 -27 -17 0 -25 16 -5 18 -10 10 -18 -9 -9 -17 -8 -31 1 -22
14 -33 16 -27 5 3 -5 -10 -16 -29 -25 -23 -12 -35 -14 -40 -6 -4 7 -3 8 4 4 7
-4 12 -2 12 4 0 6 5 8 12 4 7 -4 8 -3 4 4 -4 6 -14 8 -23 5 -11 -5 -14 -3 -9
6 5 7 17 11 27 8 11 -3 17 -1 13 4 -3 5 6 9 20 9 14 0 26 5 26 10 0 6 -4 10
-10 10 -20 0 -113 -40 -131 -56 -11 -9 -19 -12 -19 -6 0 13 56 57 90 71 38 15
98 13 136 -5z m-416 -42 c0 -31 -36 -43 -116 -40 -41 2 -70 4 -64 6 6 2 7 8 4
14 -4 7 5 8 27 3 37 -9 40 -9 85 -7 22 2 33 8 37 22 6 25 27 27 27 2z m-1091
-13 c27 -26 24 -55 -6 -51 -12 2 -24 -2 -28 -8 -11 -17 4 -60 20 -60 20 0 19
-3 -10 -46 -34 -50 -45 -95 -45 -185 0 -42 -5 -90 -11 -108 -13 -38 -47 -60
-54 -36 -3 8 -7 22 -10 30 -6 21 -32 19 -44 -4 -8 -14 -6 -25 10 -45 11 -14
26 -26 33 -26 9 0 15 -21 19 -58 7 -68 30 -126 54 -142 14 -8 10 -9 -17 -3
-45 10 -88 10 -122 0 -24 -6 -28 -4 -28 12 0 10 -8 29 -19 42 -17 21 -22 22
-46 11 -23 -11 -30 -9 -55 8 -37 26 -68 91 -76 160 -5 44 -1 68 19 122 39 108
85 176 187 278 126 127 181 153 229 109z m421 -25 c0 -17 -5 -17 -30 -4 -13 7
-21 7 -25 0 -4 -6 -12 -7 -18 -3 -7 4 -19 8 -27 8 -69 6 -69 9 0 19 76 12 100
7 100 -20z m269 -37 c1 -5 -23 -7 -51 -6 -67 5 -81 -3 -66 -36 6 -14 18 -26
27 -26 13 -1 13 -2 -1 -6 -10 -2 -18 -11 -18 -18 0 -7 -3 -22 -6 -32 -4 -13
-3 -15 4 -4 7 10 11 10 17 1 8 -14 7 -15 -22 -24 -20 -6 -21 -3 -25 61 -2 46
1 71 9 76 7 4 10 14 7 21 -4 9 5 16 25 21 17 4 33 11 37 16 6 10 62 -30 63
-44z m-224 13 c5 8 10 8 20 0 10 -8 19 -8 34 -1 20 11 41 -2 27 -16 -3 -4 -6
-1 -6 5 0 6 -6 9 -14 6 -11 -4 -13 -12 -5 -31 5 -13 9 -26 9 -29 0 -8 -45 21
-53 34 -4 6 -14 12 -21 12 -8 0 -16 10 -19 23 -6 20 -5 21 8 4 9 -12 15 -15
20 -7z m51 -105 c18 -6 21 -12 15 -33 -6 -23 -13 -27 -48 -28 -22 -1 -46 -4
-52 -8 -7 -5 -3 9 8 30 11 20 18 40 16 43 -4 8 32 5 61 -4z m44 -90 c0 -1 -9
-12 -19 -24 -11 -13 -19 -28 -17 -34 1 -7 1 -9 -1 -4 -3 4 -11 7 -19 7 -19 0
-18 7 6 41 13 17 26 26 35 22 8 -3 15 -6 15 -8z m-517 -109 c21 -14 53 4 49
27 -3 20 17 32 31 18 14 -14 -25 -57 -60 -66 -31 -7 -53 17 -51 60 l0 30 7
-29 c3 -16 14 -34 24 -40z m171 32 c-3 -5 -13 -4 -22 4 -15 12 -16 11 -3 -4 9
-12 10 -18 2 -18 -6 0 -11 -5 -11 -12 0 -9 3 -9 12 0 14 14 28 16 28 3 0 -5
-12 -12 -26 -15 -15 -4 -23 -10 -19 -14 4 -4 8 -5 10 -2 1 3 12 -4 24 -14 12
-11 21 -14 21 -9 0 16 50 46 79 48 67 5 67 5 52 14 -8 5 -25 7 -38 5 -21 -4
-22 -2 -11 10 7 7 15 11 18 7 3 -3 16 -7 30 -9 20 -2 22 -1 10 8 -11 8 6 10
62 8 43 -2 78 -4 78 -6 0 -7 -26 -29 -43 -35 -10 -4 -15 -12 -12 -18 8 -12
-33 -59 -52 -59 -7 0 -13 -5 -13 -11 0 -5 -5 -7 -10 -4 -15 9 -3 23 33 40 18
8 22 12 10 9 -13 -3 -23 -1 -23 5 0 11 13 15 40 11 11 -1 9 3 -5 15 -11 9 -14
14 -7 10 7 -4 12 0 12 10 0 10 5 13 12 9 7 -5 8 -3 3 5 -5 9 -15 5 -35 -14
-47 -45 -81 -118 -89 -195 -10 -98 -38 -124 -111 -103 -24 7 -23 8 10 15 32 6
31 6 -12 5 -35 -2 -44 1 -36 10 5 7 7 17 3 23 -4 6 5 10 22 10 36 0 73 10 73
19 0 4 -7 8 -15 8 -8 0 -15 -4 -15 -9 0 -4 -16 -8 -35 -8 -19 0 -35 5 -35 10
0 6 5 10 12 10 9 0 9 3 1 11 -12 12 -5 52 8 43 5 -3 9 2 9 10 0 9 7 16 15 16
8 0 15 5 15 12 0 9 3 9 12 0 14 -14 28 -16 28 -3 0 5 -12 12 -27 16 l-27 6 30
25 c16 13 40 27 54 31 22 6 23 7 5 13 -21 8 -61 -13 -83 -42 -7 -9 -18 -23
-25 -30 -27 -30 -57 -78 -57 -93 0 -9 -6 -18 -13 -21 -11 -4 -12 -13 -3 -44 5
-22 14 -40 18 -40 4 0 8 -11 8 -24 0 -16 7 -26 22 -30 22 -5 23 -6 3 -21 -11
-9 -14 -13 -7 -10 17 9 69 -13 76 -31 3 -8 13 -14 21 -14 9 0 13 -4 10 -10
-10 -17 -58 -8 -92 17 -52 38 -85 104 -84 168 0 54 21 112 38 108 4 -2 8 2 8
7 0 6 6 14 13 19 8 5 14 12 15 17 1 5 6 8 10 6 5 -1 6 2 3 7 -4 5 0 11 6 14 7
2 10 7 7 11 -4 4 -25 -12 -48 -35 -22 -23 -42 -39 -42 -36 -5 25 -4 33 4 44 5
7 13 11 17 8 5 -3 11 -1 14 4 4 5 2 12 -4 16 -6 4 -7 12 -3 18 10 16 11 47 2
47 -13 0 -20 -18 -9 -25 6 -4 8 -11 4 -16 -3 -6 -12 -5 -22 3 -13 11 -14 11
-7 -1 6 -10 4 -12 -5 -6 -9 5 -11 4 -6 -4 4 -6 12 -9 17 -6 5 4 9 1 9 -5 0
-13 -42 -9 -52 5 -4 5 -6 0 -6 -12 2 -14 8 -20 20 -18 23 5 23 -4 1 -21 -17
-12 -16 -14 6 -38 25 -26 17 -37 -9 -13 -8 6 -6 2 4 -10 11 -13 14 -23 8 -23
-14 0 -36 39 -37 65 0 15 -7 20 -28 19 -15 0 -27 3 -27 7 0 10 64 59 77 59 5
0 20 11 33 25 13 14 31 24 39 23 9 -2 16 2 16 7 1 24 17 36 31 24 7 -6 11 -15
8 -21z m1496 -10 c0 -5 -4 -7 -9 -4 -4 3 -6 -5 -4 -19 5 -23 -13 -95 -26 -105
-4 -3 -15 -18 -24 -33 l-18 -28 -23 33 -22 33 36 34 c19 19 38 34 42 33 4 -1
4 6 1 15 -4 10 -2 14 4 10 6 -4 11 -1 10 6 -1 35 4 46 18 41 8 -4 15 -10 15
-16z m-1305 -118 c12 10 15 9 15 -4 0 -9 -11 -22 -25 -28 -14 -6 -25 -18 -25
-26 0 -12 3 -12 16 -1 14 12 16 11 12 -6 -2 -11 -10 -19 -17 -17 -7 1 -11 -5
-9 -15 4 -20 29 -25 40 -8 5 6 8 5 8 -3 0 -7 -10 -17 -22 -22 -13 -5 -21 -9
-18 -10 3 -1 13 -3 23 -5 11 -2 20 -5 20 -7 1 -2 8 -13 15 -25 10 -20 10 -23
-5 -23 -16 0 -10 -14 8 -16 30 -4 31 -7 9 -14 -22 -7 -21 -8 13 -9 35 -1 55
-21 21 -21 -8 0 -13 -4 -9 -9 3 -6 18 -6 36 -1 25 8 30 6 25 -5 -5 -14 7 -19
42 -18 6 1 12 -3 12 -8 0 -5 -5 -9 -11 -9 -5 0 -7 -5 -4 -11 4 -5 12 -8 18 -6
7 2 22 0 35 -4 15 -6 21 -5 17 1 -3 6 -1 10 4 10 6 0 11 -4 11 -10 0 -15 48
-12 53 3 2 6 8 9 12 5 12 -12 -5 -28 -31 -28 -13 0 -24 -5 -24 -11 0 -8 -4 -8
-14 0 -11 9 -15 8 -20 -5 -10 -25 0 -29 28 -10 30 19 96 22 97 4 0 -10 2 -10
6 0 2 6 9 12 14 12 6 0 8 -4 5 -8 -7 -12 38 -9 46 3 5 6 8 4 8 -5 0 -13 1 -13
10 0 6 10 10 11 10 3 0 -7 9 -13 20 -13 11 0 20 6 20 13 0 9 2 9 8 -1 5 -7 16
-10 25 -6 12 4 17 1 17 -10 0 -9 -7 -19 -16 -23 -21 -8 1 -23 34 -23 22 0 22
-1 7 -31 -15 -28 -19 -30 -58 -25 l-42 5 40 -13 40 -13 -31 -30 c-16 -17 -28
-37 -26 -44 3 -11 1 -11 -5 -2 -7 10 -18 10 -48 2 -46 -13 -178 -5 -183 10 -2
6 -7 9 -12 6 -11 -7 -45 42 -92 130 -20 38 -41 69 -47 68 -6 -2 -8 4 -5 11 3
9 -20 39 -59 78 -35 35 -70 74 -77 86 -16 33 -26 172 -12 172 7 0 9 7 5 18 -6
15 -5 15 10 3 14 -11 20 -11 32 -1z m49 -43 c-2 -7 2 -35 11 -62 20 -66 19
-73 -6 -46 -18 19 -19 25 -8 32 11 7 10 9 -3 9 -25 0 -28 57 -5 72 16 10 17
10 11 -5z m-430 -69 c-3 -4 -10 -8 -15 -8 -6 0 -7 5 -4 10 4 7 -3 9 -19 6 -14
-3 -26 -1 -26 4 0 12 54 17 62 5 4 -5 4 -13 2 -17z m-527 2 c-3 -11 -1 -20 4
-20 4 0 6 -7 3 -15 -4 -8 -1 -15 5 -15 6 0 8 -7 5 -15 -4 -8 -2 -15 3 -15 4 0
17 -15 27 -34 32 -60 105 -98 133 -70 14 13 18 13 34 -2 18 -16 18 -17 -7 -30
-38 -20 -77 -17 -110 8 -38 30 -63 60 -64 76 0 6 -3 12 -8 12 -7 0 -34 54 -39
80 -4 19 5 60 13 60 4 0 4 -9 1 -20z m427 -37 c6 -31 -18 -73 -32 -58 -4 3 -2
9 4 13 6 4 10 27 8 51 -3 48 12 44 20 -6z m87 -8 c5 4 9 2 9 -3 0 -10 -23 -22
-41 -22 -5 0 -9 12 -9 26 0 23 1 24 16 10 8 -9 20 -14 25 -11z m307 -77 c2
-11 -3 -18 -13 -18 -9 0 -13 5 -10 10 3 6 -4 15 -17 20 -22 9 -21 10 7 7 19
-1 31 -8 33 -19z m902 8 c0 -8 5 -18 12 -22 8 -5 9 -2 4 11 -5 15 -4 16 8 5 9
-6 37 -11 63 -10 79 4 105 1 97 -11 -3 -6 -15 -9 -25 -6 -11 3 -19 1 -19 -3 0
-5 7 -10 16 -12 14 -2 13 -6 -6 -23 -22 -20 -22 -20 -19 0 4 18 -2 20 -73 23
-65 2 -79 6 -88 22 -9 16 -7 20 7 20 15 0 16 2 3 10 -13 8 -12 10 3 10 9 0 17
-6 17 -14z m413 -13 c-5 -15 -3 -16 8 -5 22 20 34 14 14 -8 -14 -16 -20 -17
-27 -8 -6 10 -8 10 -8 -1 0 -8 -3 -12 -6 -9 -6 6 13 48 21 48 2 0 2 -8 -2 -17z
m-1251 -28 c23 -26 24 -59 2 -51 -9 3 -30 6 -48 6 -21 0 -42 10 -65 31 -40 37
-34 49 11 22 34 -20 60 -13 50 15 -6 18 29 2 50 -23z m1427 3 c-15 -29 -49
-62 -56 -55 -4 5 55 74 65 76 1 1 -3 -9 -9 -21z m-1578 -104 c5 -1 14 -2 20
-3 5 0 8 -5 4 -10 -3 -5 -1 -12 5 -16 5 -3 10 -11 10 -16 0 -6 -5 -7 -12 -3
-7 4 -8 3 -4 -4 5 -8 13 -9 25 -2 12 6 22 5 29 -2 9 -9 12 -9 12 0 0 9 5 10
19 3 10 -6 22 -7 26 -3 9 10 55 10 55 0 0 -4 -5 -8 -11 -8 -8 0 -8 -4 1 -15
10 -12 8 -14 -8 -10 -12 2 -27 -4 -34 -13 -11 -13 -11 -14 1 -7 10 5 12 4 7
-4 -6 -8 -12 -9 -20 -2 -7 6 -17 7 -21 3 -5 -4 -5 -2 -2 4 4 7 0 11 -11 10
-10 0 -16 6 -16 17 2 20 -16 23 -34 5 -7 -7 -12 -8 -12 -4 0 5 -6 3 -14 -3
-19 -16 -32 5 -16 24 7 8 10 16 6 16 -3 1 -10 3 -16 4 -5 1 -13 3 -17 4 -5 1
-1 6 7 11 12 8 12 10 -5 10 -15 0 -17 2 -6 9 8 5 9 11 3 15 -11 6 -25 -21 -17
-33 2 -4 -2 -8 -10 -8 -8 0 -12 4 -9 9 4 5 -2 16 -12 24 -17 14 -17 15 -2 10
10 -3 20 -1 23 5 4 5 3 9 -2 8 -23 -4 -42 3 -47 17 -6 15 -4 15 11 3 17 -13
17 -13 0 13 -26 42 -21 40 34 -10 28 -26 55 -48 60 -48z m922 57 c-9 -9 -29
-17 -43 -18 -14 0 -18 1 -7 4 9 2 17 11 17 18 0 15 19 24 38 17 10 -3 9 -9 -5
-21z m176 8 c-8 -5 -45 -8 -84 -7 l-70 1 60 6 c94 10 109 10 94 0z m-1196 -51
c19 -25 24 -39 15 -44 -7 -5 -8 -3 -3 6 5 8 4 11 -3 6 -13 -8 23 -76 41 -76 5
0 2 9 -7 19 -26 29 -7 46 34 31 3 -1 10 -1 15 0 6 1 6 -2 2 -7 -5 -4 -14 -8
-20 -8 -15 0 -16 -25 -2 -26 6 0 15 -5 22 -10 7 -7 14 -6 18 1 3 6 11 8 16 4
5 -3 7 -10 3 -15 -3 -5 -11 -6 -17 -2 -7 4 -6 0 2 -10 8 -10 9 -17 3 -17 -6 0
-18 10 -26 22 -9 12 -16 17 -16 11 0 -12 77 -77 94 -79 6 0 17 -2 24 -2 7 -1
10 -6 7 -12 -4 -6 1 -7 11 -3 15 5 15 7 -2 17 -19 11 -30 36 -17 36 17 0 51
-44 46 -59 -3 -10 -2 -12 4 -5 4 5 18 10 31 11 38 1 40 3 37 21 -1 9 -8 16
-15 14 -13 -3 -43 33 -46 54 -1 7 5 10 15 9 9 -2 20 -4 24 -4 5 -1 5 -6 2 -11
-4 -6 -11 -7 -17 -4 -7 4 -8 2 -4 -5 4 -6 11 -9 16 -6 14 9 40 -6 33 -19 -4
-6 6 -3 21 8 24 15 28 16 23 3 -11 -28 9 -27 34 1 22 25 22 25 2 8 -27 -23
-31 -7 -5 17 14 13 21 14 30 5 9 -9 7 -17 -10 -35 -26 -28 -31 -50 -12 -50 7
0 11 4 8 9 -3 4 1 8 8 9 10 0 11 2 0 6 -10 4 -10 8 -1 19 6 8 16 14 22 14 7 0
7 -4 -1 -12 -7 -7 -8 -17 -1 -30 10 -19 10 -19 -41 -22 -14 0 -28 -5 -32 -11
-5 -7 -13 -6 -25 1 -12 8 -24 7 -45 -3 -30 -15 -118 -9 -118 9 0 5 -4 7 -9 3
-5 -3 -40 21 -78 54 -38 32 -84 67 -102 78 -19 10 -38 29 -43 42 -7 21 -6 23
17 19 14 -3 28 -1 32 5 4 6 1 7 -7 2 -8 -5 -11 -4 -6 3 3 6 1 14 -5 18 -7 4
-9 3 -6 -3 3 -5 0 -10 -7 -10 -15 0 -16 28 -1 39 5 4 10 6 10 5 0 -1 13 -19
28 -39z m663 26 c-4 -11 -1 -14 12 -12 9 2 16 9 15 15 -2 7 6 11 17 10 14 -1
16 -4 8 -14 -8 -10 0 -13 41 -13 29 0 51 -5 51 -11 0 -5 -4 -8 -9 -4 -6 3 -42
6 -80 6 -50 1 -71 5 -71 13 0 13 9 26 18 26 2 0 1 -7 -2 -16z m-356 -5 c0 -6
6 -7 13 -3 6 4 9 4 5 -1 -4 -4 0 -14 10 -21 9 -7 13 -16 9 -21 -5 -4 -19 5
-31 20 -20 24 -24 26 -30 12 -3 -9 -11 -13 -17 -9 -7 4 -9 3 -6 -3 4 -6 -3
-22 -14 -37 -15 -19 -25 -24 -37 -17 -9 4 -27 7 -40 6 -12 -1 -27 4 -33 12 -6
7 -8 13 -4 13 5 0 0 10 -11 21 l-19 22 30 -17 c17 -9 39 -23 51 -31 18 -13 21
-13 21 -1 0 9 -5 12 -11 9 -6 -4 -4 1 4 12 13 15 15 16 18 2 3 -17 32 -32 32
-17 0 6 -5 10 -11 10 -6 0 -9 8 -7 18 2 9 8 17 15 17 6 0 14 2 17 5 9 10 46 9
46 -1z m-515 -31 c10 -2 27 -10 36 -18 9 -8 29 -25 43 -37 31 -25 46 -62 45
-106 l-1 -32 -10 35 c-14 50 -51 94 -97 117 -22 11 -39 22 -37 24 3 2 -20 2
-50 1 -48 -3 -53 -2 -48 13 7 17 25 17 119 3z m550 -28 c15 12 45 3 45 -15 0
-6 -9 -20 -20 -30 -11 -10 -20 -15 -20 -10 0 4 -6 2 -13 -4 -8 -6 -18 -7 -22
-3 -5 4 -5 1 -1 -6 6 -10 11 -10 22 -1 17 14 19 -2 2 -21 -10 -11 -9 -11 6 0
17 13 19 13 15 1 -3 -8 -10 -16 -16 -18 -13 -5 -46 44 -47 71 -1 15 -7 20 -21
19 -11 -1 -14 0 -7 3 6 3 9 10 6 15 -3 6 0 17 7 25 11 14 15 13 32 -10 14 -20
22 -24 32 -16z m-814 11 c-9 -17 -5 -20 34 -32 51 -15 54 -32 7 -37 -21 -2
-30 -7 -26 -15 3 -7 -4 -1 -15 12 -29 32 -28 91 1 91 5 0 4 -9 -1 -19z m883
-60 c3 -4 -5 -18 -18 -30 -21 -20 -24 -21 -30 -5 -4 10 -1 22 5 28 9 8 10 6 5
-8 -5 -16 -4 -17 9 -6 8 7 12 16 9 21 -3 5 -1 9 5 9 5 0 12 -4 15 -9z m-193
-56 c4 3 25 -11 46 -31 21 -20 30 -31 21 -24 -15 10 -18 10 -18 -1 0 -7 -15 2
-34 20 -19 18 -39 30 -45 26 -6 -3 -9 -11 -6 -16 3 -5 -2 -6 -11 -2 -13 5 -15
3 -9 -8 5 -8 0 -6 -12 4 -17 15 -23 41 -13 55 2 1 4 7 5 12 1 6 3 12 4 14 0 2
15 -9 32 -25 17 -16 35 -27 40 -24z m566 -149 c28 1 57 5 62 9 6 3 11 1 11 -4
0 -7 32 -11 88 -10 59 0 81 3 67 9 -16 7 -14 9 12 7 51 -2 20 -25 -40 -30
l-52 -4 57 1 c43 1 58 -3 61 -14 3 -8 8 -23 12 -32 5 -12 1 -18 -17 -21 -22
-4 -22 -4 2 -4 42 -1 46 -3 30 -13 -13 -8 -12 -10 4 -10 21 0 66 -37 66 -53 0
-5 -15 -6 -37 -2 -21 5 -77 8 -125 9 -81 1 -89 3 -132 34 -26 17 -54 32 -64
32 -22 0 -37 11 -45 32 -4 11 -12 15 -22 12 -11 -4 -15 0 -15 17 0 12 -3 19
-7 16 -3 -4 -12 1 -19 11 -7 9 -14 12 -14 5 0 -6 7 -19 16 -28 13 -12 14 -19
5 -28 -19 -19 -12 -27 14 -15 14 6 27 9 30 6 10 -10 -6 -35 -31 -46 -13 -7
-24 -16 -24 -22 0 -15 8 -13 43 13 25 18 39 22 67 16 19 -3 31 -7 26 -8 -5 0
17 -15 49 -32 56 -30 63 -31 188 -32 101 0 126 -3 113 -12 -14 -11 -13 -13 10
-23 68 -32 138 0 132 60 -2 17 -8 33 -15 35 -7 3 -9 -3 -6 -16 4 -17 1 -21
-21 -21 -21 0 -26 5 -26 25 0 38 36 52 69 28 51 -39 32 -111 -36 -134 -32 -10
-69 -9 -128 5 -11 2 -24 5 -28 5 -5 1 -6 5 -3 10 6 10 -47 32 -73 30 -10 0
-12 -2 -3 -6 14 -6 16 -43 2 -43 -5 0 -15 9 -22 20 -7 11 -19 20 -27 20 -10 0
-5 -10 14 -30 35 -36 43 -37 51 -5 4 16 13 25 25 25 19 0 19 -2 3 -31 -14 -28
-19 -30 -52 -25 -113 16 -146 24 -150 35 -2 6 -8 9 -13 5 -5 -3 -9 -1 -9 4 0
13 -75 33 -94 26 -18 -7 -22 -39 -6 -49 6 -3 10 3 10 14 0 12 7 21 15 21 27 0
17 -39 -12 -46 -33 -9 -56 17 -44 49 14 37 70 43 138 14 83 -34 123 -47 123
-37 0 5 -15 12 -32 15 -18 4 -55 19 -83 33 -78 39 -130 29 -161 -29 -8 -17
-11 -28 -5 -25 6 4 11 2 11 -3 0 -17 -27 -13 -34 5 -9 24 -7 36 6 28 7 -4 8
-3 4 4 -4 7 6 20 26 32 18 11 29 20 23 20 -5 0 -25 -9 -43 -20 -29 -18 -32
-25 -30 -57 2 -22 -2 -38 -9 -40 -9 -3 -13 9 -13 41 0 26 -5 46 -11 46 -5 0
-7 -5 -4 -10 4 -6 4 -24 0 -40 -6 -25 -9 -28 -25 -20 -13 7 -21 7 -25 0 -9
-15 -41 -12 -54 4 -10 12 -8 17 8 25 26 14 31 14 31 -4 0 -8 5 -15 10 -15 11
0 13 11 4 34 -8 22 -43 20 -99 -4 -26 -11 -64 -20 -84 -20 -21 0 -52 -7 -70
-16 -39 -19 -49 -13 -27 18 9 12 16 17 16 10 0 -9 7 -11 23 -6 12 4 28 7 35 7
6 0 12 4 12 9 0 11 -21 10 -39 -1 -10 -7 -19 -4 -27 7 -10 13 -14 11 -29 -21
-21 -45 -29 -47 -23 -7 3 16 1 30 -4 30 -8 0 -12 -15 -9 -37 1 -7 -5 -13 -14
-13 -12 0 -14 7 -9 28 3 17 2 22 -3 14 -12 -16 -109 -27 -118 -13 -4 7 7 11
30 11 20 0 50 7 67 16 58 30 90 34 151 22 50 -11 65 -10 106 5 27 9 66 16 87
15 l39 -1 -45 -7 c-44 -7 -44 -7 -9 -8 42 -2 72 -30 63 -58 -5 -18 -5 -18 6
-1 9 14 8 23 -5 43 -16 25 -16 26 7 20 22 -7 22 -6 -2 8 -14 9 -43 15 -64 16
-43 0 -39 13 5 24 19 4 34 0 52 -14 28 -22 37 -25 37 -10 0 6 -7 10 -15 10 -8
0 -22 12 -31 26 -14 21 -15 27 -4 34 7 4 10 12 6 18 -3 5 2 13 11 16 11 5 23
-1 35 -16 18 -24 25 -14 8 12 -16 25 15 49 53 41 18 -4 55 -6 84 -5z m306 -58
c-2 -4 4 -5 12 -2 8 4 15 2 15 -3 0 -12 61 -44 88 -46 18 -1 22 -7 22 -38 0
-38 29 -77 37 -51 3 6 9 12 15 12 6 0 6 -6 -2 -15 -24 -29 -101 -16 -93 16 3
10 0 19 -6 19 -23 0 -101 85 -105 115 -1 8 -5 18 -9 21 -4 4 -7 12 -7 18 0 6
8 -1 17 -14 10 -14 17 -28 16 -32z m-938 22 c-3 -5 -1 -10 6 -10 8 0 9 -3 0
-13 -6 -8 -7 -18 -3 -22 4 -5 1 -5 -5 -1 -8 4 -13 2 -13 -6 0 -10 -3 -9 -9 1
-8 12 -13 11 -30 -10 -11 -13 -21 -31 -21 -39 0 -11 -3 -10 -12 4 -9 16 -6 24
23 47 19 16 40 29 47 29 6 0 11 3 11 8 -2 12 1 22 7 22 3 0 2 -4 -1 -10z"/>
<path d="M1112 1324 c-12 -8 -22 -12 -22 -8 0 3 -6 1 -14 -5 -11 -9 -15 -9
-18 0 -2 7 -12 13 -22 15 -10 1 -15 0 -12 -3 3 -4 -1 -15 -11 -25 -9 -11 -11
-18 -5 -18 7 0 12 -7 12 -15 0 -8 5 -15 11 -15 5 0 7 5 4 10 -3 6 -1 10 6 10
8 0 6 5 -4 13 -15 10 -11 12 28 13 24 1 42 -2 40 -6 -2 -4 2 -7 10 -7 8 0 13
3 10 5 -3 3 3 11 13 18 27 20 2 38 -26 18z"/>
<path d="M985 971 c3 -6 27 -11 52 -11 57 0 53 5 -11 14 -33 5 -46 4 -41 -3z"/>
<path d="M2399 1129 c-20 -29 -21 -31 -2 -21 28 16 46 39 34 46 -5 4 -19 -8
-32 -25z"/>
<path d="M1332 763 c9 -2 20 -13 23 -24 4 -11 15 -19 28 -19 22 1 22 1 2 16
-11 8 -19 20 -17 25 1 5 -10 8 -25 8 -17 -1 -21 -3 -11 -6z"/>
<path d="M1412 716 c-46 -17 -58 -32 -32 -39 16 -4 20 -2 16 9 -4 10 2 14 18
14 15 0 26 -7 29 -20 4 -17 2 -20 -14 -15 -11 4 -19 2 -19 -5 0 -6 18 -10 48
-8 32 2 49 8 49 16 0 7 -6 11 -13 8 -8 -3 -11 0 -8 8 4 9 29 13 89 12 47 -1
85 3 85 8 0 4 6 6 14 3 8 -3 17 0 19 7 4 9 -13 12 -72 10 -42 -1 -84 -5 -93
-8 -10 -3 -25 -8 -34 -11 -9 -3 -18 -14 -21 -25 -3 -11 -9 -17 -14 -14 -5 3
-7 9 -4 14 3 5 1 12 -5 15 -8 5 -7 11 1 21 13 16 7 16 -39 0z"/>
<path d="M1562 678 c5 -15 79 -32 87 -20 3 5 15 13 25 19 16 9 11 10 -26 9
-25 0 -44 -4 -41 -8 2 -5 -5 -8 -17 -8 -12 0 -18 5 -15 10 3 6 1 10 -5 10 -7
0 -10 -5 -8 -12z"/>
<path d="M1533 645 c-13 -7 -20 -14 -17 -17 2 -3 -9 -8 -27 -10 -30 -5 -31 -4
-13 10 18 14 18 14 1 8 -10 -3 -21 -6 -23 -6 -14 0 0 -29 16 -33 11 -3 18 -1
14 4 -3 5 6 9 20 9 14 0 28 5 32 11 4 7 9 7 13 2 3 -6 35 -13 70 -16 40 -3 59
-2 50 4 -8 5 -36 9 -64 10 l-50 2 40 7 c31 5 36 8 23 14 -10 5 -26 5 -35 2 -9
-4 -19 -3 -22 2 -3 4 -16 3 -28 -3z"/>
<path d="M1509 591 c11 -7 10 -11 -5 -20 -18 -10 -18 -10 4 -11 13 0 22 6 22
14 0 10 14 16 43 19 34 3 31 4 -18 5 -37 1 -55 -2 -46 -7z"/>
<path d="M1250 709 c0 -6 -4 -8 -9 -5 -5 3 -14 -1 -20 -8 -10 -12 -9 -14 6
-11 10 2 19 4 21 5 1 2 6 3 11 4 18 2 22 14 6 19 -8 4 -15 2 -15 -4z"/>
<path d="M2620 1573 c0 -21 57 -36 91 -24 18 6 48 11 68 11 30 1 33 2 18 11
-13 7 -27 7 -49 0 -41 -15 -101 -14 -116 1 -8 8 -12 8 -12 1z"/>
<path d="M2590 1525 l-22 -24 33 4 c19 3 35 9 37 15 2 6 9 7 15 3 7 -3 8 -2 4
3 -5 5 -12 9 -15 9 -4 0 -12 3 -18 7 -6 4 -21 -3 -34 -17z"/>
<path d="M1486 1366 c-50 -12 -73 -32 -37 -32 11 0 18 3 15 7 -2 4 31 11 73
15 60 5 88 3 121 -8 23 -9 42 -12 42 -8 0 13 -91 40 -129 39 -20 -1 -58 -7
-85 -13z"/>
<path d="M1771 1368 c-3 -48 31 -59 124 -38 33 7 28 8 -31 5 -69 -3 -71 -3
-81 23 -7 17 -11 21 -12 10z"/>
<path d="M2070 1343 c0 -5 6 -18 14 -28 13 -18 11 -21 -16 -38 -17 -10 -27
-21 -24 -25 4 -3 10 -2 14 4 4 6 17 16 29 22 16 9 22 9 26 -2 7 -18 136 -110
143 -103 3 3 -7 13 -23 23 -58 37 -106 79 -134 117 -16 22 -29 36 -29 30z"/>
<path d="M1583 1293 c4 -3 31 -10 60 -14 28 -4 68 -10 87 -13 l35 -6 -38 14
c-40 16 -156 31 -144 19z"/>
<path d="M1910 1281 c-8 -6 -17 -8 -21 -5 -4 2 -11 -1 -15 -7 -5 -9 1 -10 22
-4 16 4 34 8 41 9 7 1 16 5 19 9 11 10 -29 8 -46 -2z"/>
<path d="M1850 1236 c0 -10 93 -126 98 -122 2 3 -8 20 -22 39 -14 18 -23 37
-19 40 3 4 -2 7 -11 7 -13 0 -16 5 -12 17 4 10 4 14 0 10 -4 -4 -13 -2 -21 4
-7 6 -13 9 -13 5z"/>
<path d="M1389 1146 c-2 -2 -28 -6 -57 -9 -66 -7 -77 -14 -22 -15 38 -1 134
26 99 27 -9 1 -18 -1 -20 -3z"/>
<path d="M1305 1060 c-24 -7 -19 -8 25 -6 30 2 62 0 70 -4 8 -4 24 -4 35 1 18
7 18 8 -5 8 -14 0 -41 3 -60 5 -19 2 -48 1 -65 -4z"/>
<path d="M1326 1028 c2 -3 -4 -9 -13 -11 -12 -3 -10 -5 7 -5 33 -1 110 15 85
18 -54 5 -83 4 -79 -2z"/>
<path d="M2517 1009 c-15 -17 -27 -28 -27 -24 0 4 -7 2 -15 -5 -22 -18 -18
-25 14 -25 16 -1 28 2 25 6 -2 4 5 24 17 43 26 44 22 46 -14 5z"/>
<path d="M1468 1000 c23 -22 83 -25 75 -4 -3 8 6 11 26 10 17 -1 31 1 31 6 0
4 -16 7 -35 6 -19 -1 -35 -6 -35 -12 0 -7 -9 -12 -20 -12 -13 0 -19 5 -16 13
4 9 -4 13 -21 13 l-27 0 22 -20z"/>
<path d="M1345 993 c-41 -10 -41 -26 0 -19 22 4 50 8 63 10 12 2 26 6 29 10 7
7 -61 6 -92 -1z"/>
<path d="M1410 960 c20 -13 47 -13 55 0 4 6 -9 10 -32 10 -28 0 -34 -3 -23
-10z"/>
<path d="M1710 945 c0 -11 10 -15 33 -14 l32 2 -30 6 c-21 4 -5 7 50 11 l80 6
-82 2 c-68 2 -83 -1 -83 -13z"/>
<path d="M1465 929 c-4 -6 -24 -9 -45 -7 -21 2 -36 0 -34 -3 2 -4 -2 -10 -8
-13 -7 -3 10 -3 37 1 28 3 93 6 145 6 l95 -1 -81 8 c-45 4 -86 10 -92 14 -6 3
-14 1 -17 -5z"/>
<path d="M1843 923 c9 -3 17 -9 17 -14 0 -6 5 -7 10 -4 6 3 10 2 10 -2 0 -14
45 -11 58 3 16 18 -4 29 -23 14 -8 -7 -15 -9 -15 -4 0 5 -17 9 -38 10 -20 1
-29 -1 -19 -3z"/>
<path d="M1478 892 c-21 -2 -38 -8 -38 -13 0 -6 8 -8 18 -5 9 3 63 6 120 8 56
1 102 6 102 10 0 7 -121 7 -202 0z"/>
<path d="M1696 881 c12 -13 83 -21 89 -11 2 4 -1 7 -8 8 -7 0 -30 4 -52 8 -30
5 -37 4 -29 -5z"/>
<path d="M2177 818 c-7 -5 -3 -8 11 -8 12 0 21 -5 20 -12 -2 -9 7 -12 25 -10
15 1 27 -2 27 -8 0 -5 8 -10 18 -10 14 0 14 2 3 9 -11 7 -9 10 8 13 12 1 21 7
21 12 -1 5 3 12 9 15 5 4 -22 6 -60 6 -39 0 -76 -3 -82 -7z"/>
<path d="M2097 703 c-14 -14 -6 -19 23 -15 16 2 27 8 24 13 -6 11 -38 12 -47
2z"/>
<path d="M1853 672 c-21 -3 -42 -32 -23 -32 6 0 10 5 10 11 0 5 4 7 10 4 5 -3
17 -2 26 3 20 11 7 19 -23 14z"/>
<path d="M870 331 c-16 -31 -12 -56 13 -79 34 -32 43 -27 13 8 -25 30 -25 49
-3 78 6 8 6 12 -1 12 -6 0 -16 -9 -22 -19z"/>
</g>
</svg>
