<?xml version="1.0" standalone="no"?>
<!DOCTYPE svg PUBLIC "-//W3C//DTD SVG 20010904//EN"
 "http://www.w3.org/TR/2001/REC-SVG-20010904/DTD/svg10.dtd">
<svg version="1.0" xmlns="http://www.w3.org/2000/svg"
 width="300.000000pt" height="230.000000pt" viewBox="0 0 300.000000 230.000000"
 preserveAspectRatio="xMidYMid meet">
<metadata>
Created by potrace 1.10, written by Peter Selinger 2001-2011
</metadata>
<g transform="translate(0.000000,230.000000) scale(0.100000,-0.100000)"
fill="#000000" stroke="none">
<path d="M1555 2272 c-11 -2 -22 -7 -25 -11 -3 -3 -14 -11 -25 -17 -11 -6 -25
-21 -31 -33 -6 -12 -21 -29 -33 -37 -11 -8 -21 -21 -21 -29 0 -9 -12 -14 -32
-13 -64 0 -94 -4 -206 -23 -62 -11 -125 -22 -140 -24 -41 -5 -152 -34 -195
-51 -21 -8 -43 -12 -48 -9 -5 4 -9 2 -9 -2 0 -5 -8 -9 -17 -10 -10 -1 -40 -11
-66 -22 -27 -12 -57 -21 -67 -21 -10 0 -22 -4 -25 -10 -3 -5 -14 -10 -23 -10
-9 0 -28 -9 -42 -20 -14 -11 -34 -20 -46 -20 -29 0 -66 -37 -59 -60 3 -11 0
-20 -10 -24 -19 -7 -20 -65 -1 -72 20 -8 20 -228 0 -245 -17 -14 -16 -95 2
-110 17 -14 21 -314 4 -304 -13 8 -132 -23 -141 -36 -3 -6 -8 -10 -10 -9 -10
5 -98 -24 -129 -43 -61 -37 -120 -113 -120 -156 0 -33 22 -91 34 -91 5 0 19
-9 31 -20 18 -17 37 -28 130 -78 32 -16 158 -62 185 -67 31 -6 44 -9 155 -33
50 -11 117 -23 150 -26 33 -4 74 -8 90 -11 17 -2 62 -7 100 -10 39 -3 84 -8
100 -11 17 -2 121 -11 233 -18 112 -8 206 -17 209 -20 4 -4 7 -19 8 -34 0 -15
6 -26 13 -24 18 3 15 -45 -4 -52 -9 -3 -23 -2 -31 3 -9 5 -30 5 -49 -1 -18 -5
-72 -10 -119 -11 -47 -1 -85 -5 -85 -9 0 -4 -10 -7 -22 -6 -38 3 -183 -53
-201 -76 -21 -30 -18 -57 7 -91 32 -42 70 -63 156 -88 109 -31 165 -36 435
-43 221 -6 266 -5 295 8 19 8 60 21 90 28 30 7 60 16 65 20 6 4 22 10 37 14
34 8 81 57 85 89 3 19 -7 34 -38 61 -23 19 -45 33 -49 31 -4 -2 -24 5 -46 15
-21 11 -48 20 -61 20 -12 0 -24 4 -27 8 -2 4 -19 9 -38 10 -18 2 -73 9 -123
17 -105 17 -155 19 -155 5 0 -5 3 -10 7 -10 4 0 66 -7 138 -16 248 -30 389
-84 370 -143 -8 -26 -61 -71 -83 -71 -12 0 -8 8 16 28 40 34 43 72 7 96 -31
20 -32 10 -3 -21 l22 -24 -25 -24 c-67 -67 -275 -102 -551 -91 -250 9 -286 13
-327 35 -11 6 -29 11 -40 11 -10 0 -32 7 -48 14 -15 8 -36 17 -45 20 -9 3 -25
17 -34 32 -17 25 -17 27 2 41 10 8 18 18 17 23 -3 9 27 21 107 43 60 17 300
42 340 35 25 -4 25 -4 -9 -25 -19 -12 -52 -24 -73 -27 -21 -3 -56 -9 -78 -12
-65 -9 -49 -28 18 -20 85 10 126 23 156 51 31 29 67 32 87 8 19 -22 104 -58
156 -67 70 -10 56 9 -20 28 -40 10 -90 31 -111 47 -22 16 -53 29 -68 29 -30 0
-40 26 -13 36 21 9 19 24 -4 24 -23 0 -38 19 -23 29 6 4 29 5 52 3 31 -3 40
-8 40 -22 0 -10 -5 -20 -11 -22 -14 -5 -2 -48 12 -48 6 0 8 8 4 19 -3 11 0 21
9 24 12 5 13 10 3 31 -7 14 -18 26 -24 27 -7 1 -17 3 -23 4 -5 1 -23 3 -40 4
-16 0 -30 6 -30 12 0 7 12 9 36 5 53 -10 475 -8 589 4 55 5 136 15 180 21 44
6 89 13 100 15 11 1 20 3 20 4 0 1 13 3 28 5 16 2 59 13 97 25 37 12 78 22 89
23 12 1 21 4 21 8 0 4 11 7 23 7 30 0 180 70 233 110 22 16 49 46 58 67 21 44
12 76 -37 123 -31 30 -145 88 -189 96 -13 3 -23 5 -23 6 0 1 -9 3 -20 4 -11 2
-35 6 -54 10 l-33 8 7 107 c4 58 7 120 6 136 0 17 -1 123 -2 237 -1 209 5 248
36 248 8 0 15 3 16 8 0 4 2 26 4 48 5 49 -23 95 -54 89 -10 -2 -28 5 -38 15
-25 23 -78 50 -98 50 -8 0 -15 5 -15 12 0 6 -3 9 -6 5 -3 -3 -29 4 -58 17 -46
21 -84 33 -111 36 -5 1 -16 6 -22 12 -7 6 -13 8 -13 5 0 -3 -24 2 -52 12 -29
10 -71 22 -93 26 -41 9 -49 11 -62 15 -5 1 -12 2 -16 1 -5 -1 -43 5 -85 14
-43 8 -113 18 -157 22 -77 8 -80 9 -80 33 0 37 -33 80 -61 80 -14 0 -24 6 -24
14 0 15 -33 24 -65 18z m20 -18 c9 -4 21 -18 26 -31 8 -22 11 -23 26 -12 13
11 17 11 20 2 3 -7 11 -13 18 -13 16 0 23 -19 17 -43 -4 -14 -11 -17 -28 -13
-14 4 -24 2 -24 -4 0 -10 4 -11 45 -15 11 0 34 -5 52 -9 28 -7 30 -10 18 -23
-33 -33 -11 -39 100 -29 44 4 48 3 32 -9 -10 -7 -15 -15 -10 -18 5 -3 17 1 27
9 19 13 19 14 0 35 l-19 21 40 -7 c106 -18 362 -87 460 -124 104 -39 162 -71
213 -115 12 -11 22 -14 22 -8 0 21 15 13 27 -15 16 -34 11 -39 -21 -18 -33 22
-34 9 -1 -17 14 -11 25 -24 25 -29 0 -6 -14 1 -32 15 l-32 25 -46 -24 c-25
-13 -60 -30 -77 -37 -37 -15 -43 -28 -13 -28 11 0 20 -4 20 -10 0 -5 7 -10 16
-10 17 0 15 -21 -2 -27 -6 -2 -28 10 -49 27 -23 18 -45 28 -54 25 -42 -16
-114 -24 -132 -15 -15 9 -19 7 -19 -7 0 -11 -3 -14 -10 -7 -6 6 -41 7 -87 3
-82 -7 -99 -1 -116 44 -9 24 -30 22 -22 -3 9 -28 -3 -25 -81 19 -38 21 -109
60 -157 86 -49 26 -86 49 -83 52 2 3 1 15 -4 27 -6 18 -3 26 19 40 24 16 27
24 25 68 -1 35 -7 53 -20 63 -24 18 -29 18 -44 0 -11 -13 -9 -15 11 -13 21 3
24 -1 23 -27 0 -16 -4 -39 -9 -49 -7 -16 -5 -18 8 -13 11 4 14 2 11 -8 -10
-26 -46 -29 -63 -6 -13 17 -19 19 -29 9 -17 -17 -15 -31 4 -24 11 4 15 2 11
-8 -3 -8 2 -16 14 -19 10 -3 19 -12 19 -21 0 -20 -11 -20 -36 -1 -22 17 -34
19 -34 6 0 -5 17 -17 38 -26 84 -39 341 -180 399 -219 59 -39 74 -58 55 -70
-5 -3 -10 -77 -11 -166 -2 -126 1 -160 11 -160 9 0 9 -3 -2 -10 -13 -8 -15
-49 -17 -259 l-2 -249 24 -16 c14 -9 25 -21 25 -26 0 -16 -33 -11 -60 10 -14
11 -33 20 -44 20 -12 0 -16 5 -12 16 3 9 6 20 6 25 0 5 5 9 11 9 6 0 9 -7 5
-15 -3 -8 -1 -15 3 -15 14 0 19 23 10 48 -5 12 -13 22 -19 22 -13 0 -13 47 0
55 6 3 10 -1 10 -9 0 -9 5 -16 11 -16 13 0 2 53 -12 58 -5 2 -9 8 -9 13 0 6 4
8 9 5 18 -11 21 27 4 46 -12 13 -14 21 -6 26 6 4 12 25 13 47 4 57 2 67 -12
59 -8 -5 -9 -2 -5 9 13 35 -13 15 -34 -24 -11 -23 -29 -43 -39 -46 -11 -3 -16
-11 -13 -19 8 -21 -28 -59 -38 -42 -6 10 -11 10 -20 1 -10 -10 -9 -17 6 -33
21 -23 47 -27 39 -6 -3 8 4 20 15 28 12 8 18 18 14 21 -3 4 -1 7 5 7 6 0 16
18 22 40 13 47 26 52 32 11 4 -27 -5 -57 -21 -71 -3 -3 -21 -38 -40 -77 -26
-54 -40 -73 -54 -73 -16 0 -17 -3 -7 -15 10 -12 10 -15 -1 -15 -24 0 -41 17
-37 35 3 18 12 24 62 44 23 9 26 15 17 24 -9 9 -14 8 -21 -3 -8 -12 -10 -11
-10 5 -1 19 -1 19 -14 2 -12 -16 -17 -16 -35 -5 -12 7 -21 19 -21 26 0 9 53
96 87 141 1 2 9 -2 18 -9 9 -7 18 -10 22 -6 4 3 -2 12 -12 20 -17 12 -17 15 5
54 14 25 31 42 42 42 10 0 18 -4 18 -10 0 -5 6 -10 13 -10 9 0 13 31 16 113 2
61 3 126 3 142 -1 17 -2 72 -2 123 1 56 -3 92 -10 92 -6 0 -10 -27 -10 -65 0
-65 -3 -72 -28 -56 -11 6 -12 26 -7 86 6 57 5 76 -4 71 -6 -4 -11 -33 -11 -65
0 -40 -5 -63 -15 -71 -13 -11 -12 -15 8 -36 22 -24 44 -33 32 -14 -3 6 -1 10
5 10 19 0 6 -34 -17 -45 -12 -5 -24 -22 -27 -37 -4 -20 -12 -28 -26 -28 -22 0
-25 -7 -11 -28 13 -21 48 5 55 40 7 35 19 36 35 2 10 -23 8 -30 -14 -60 -28
-36 -55 -45 -55 -18 0 14 -9 16 -50 12 -27 -3 -50 -2 -50 2 0 3 16 25 35 47
19 23 35 46 35 52 0 6 9 20 20 31 23 23 19 40 -10 40 -10 0 -22 5 -25 10 -3 6
-1 10 5 10 7 0 10 7 6 15 -3 8 -1 15 3 15 5 0 12 -6 14 -12 3 -7 6 5 7 27 0
22 2 62 3 88 3 49 -7 72 -17 40 -2 -10 -4 -40 -3 -68 0 -41 -4 -55 -25 -77
-31 -34 -38 -35 -38 -6 0 19 -7 15 -44 -27 -34 -39 -46 -46 -51 -34 -9 22 12
70 29 67 8 -2 21 6 29 17 13 16 19 17 40 8 l24 -11 6 76 c5 80 2 96 -14 87 -5
-4 -9 -36 -9 -72 l0 -65 -27 7 c-52 13 -64 33 -63 105 2 83 0 92 -10 57 -5
-16 -7 -48 -4 -73 4 -47 0 -51 -29 -30 -15 12 -16 21 -8 72 5 33 6 64 3 69 -8
12 -19 -36 -21 -87 0 -21 -6 -38 -12 -38 -18 0 1 -21 29 -32 l27 -10 -22 -9
c-13 -4 -23 -13 -23 -18 0 -17 -70 -121 -80 -121 -6 0 -10 -8 -10 -19 0 -32
-24 -44 -48 -22 -27 22 -28 31 -4 31 10 0 25 12 34 28 9 15 28 40 42 55 26 28
34 57 17 57 -5 0 -11 -7 -15 -15 -3 -8 -10 -15 -16 -15 -17 0 -11 25 11 49 17
18 23 20 30 10 4 -7 11 -10 15 -6 4 3 1 13 -5 21 -8 10 -10 37 -5 90 5 54 3
76 -5 76 -7 0 -11 -23 -11 -65 0 -36 -4 -65 -9 -65 -5 0 -19 -20 -31 -44 -18
-36 -20 -47 -10 -65 9 -17 8 -29 -2 -51 -16 -36 -33 -40 -24 -5 7 27 -11 34
-32 13 -22 -22 -23 0 -3 41 25 48 26 74 6 91 -8 7 -15 18 -15 25 0 7 -7 15
-15 19 -12 4 -14 19 -8 81 4 53 3 75 -6 75 -7 0 -11 -26 -11 -79 0 -53 -4 -82
-13 -90 -21 -17 -24 -6 -16 51 11 80 11 110 -3 106 -6 -2 -12 -22 -13 -44 -3
-100 -6 -124 -16 -124 -7 0 -9 26 -7 75 2 47 -1 74 -7 72 -5 -2 -10 -37 -10
-78 -1 -44 -5 -72 -10 -69 -6 3 -9 33 -8 68 0 34 -3 62 -8 62 -10 0 -11 -4
-14 -85 -1 -38 -7 -61 -15 -63 -10 -4 -12 11 -8 67 4 48 2 71 -5 68 -6 -2 -11
-19 -12 -38 -3 -88 -6 -109 -16 -109 -7 0 -10 21 -6 65 2 36 1 65 -3 65 -8 0
-29 -160 -23 -169 2 -2 14 2 28 9 14 7 28 10 32 5 5 -4 2 -10 -6 -13 -8 -3
-27 -18 -42 -35 -21 -23 -33 -28 -51 -24 -19 5 -27 1 -40 -21 -27 -44 -65 -85
-77 -81 -7 3 5 29 29 67 36 55 44 62 74 62 37 0 50 8 38 24 -5 6 -6 44 -3 84
4 41 3 76 0 78 -8 5 -23 -106 -15 -113 3 -3 0 -15 -5 -26 -17 -31 -26 -4 -19
58 3 31 4 58 2 60 -14 13 -22 -14 -22 -71 0 -39 -4 -64 -11 -64 -6 0 -10 21
-9 53 2 69 1 75 -10 57 -5 -8 -9 -38 -9 -65 2 -55 -9 -115 -19 -115 -4 0 -5
38 -3 85 2 57 -1 85 -8 85 -7 0 -11 -26 -11 -70 0 -40 -4 -70 -10 -70 -6 0
-10 27 -10 60 0 82 -18 76 -22 -7 -2 -38 -7 -67 -12 -65 -5 1 -8 27 -7 58 2
38 -1 54 -8 49 -6 -3 -11 -35 -11 -70 0 -48 4 -64 16 -69 21 -8 10 -22 -24
-29 -32 -7 -79 2 -64 12 14 9 27 131 13 131 -6 0 -11 -19 -11 -44 0 -59 -20
-72 -21 -14 -1 41 -1 42 -9 11 -4 -17 -8 -127 -9 -244 -1 -117 -4 -216 -7
-220 -2 -5 -11 -6 -20 -2 -13 5 -15 38 -12 234 1 126 5 229 10 229 4 0 10 11
14 25 5 21 33 39 158 100 83 40 198 92 256 114 171 65 227 90 203 91 -26 0
-32 20 -6 20 13 0 14 3 5 12 -19 19 -14 26 14 20 20 -4 25 -1 22 9 -6 16 -49
14 -59 -2 -4 -7 -8 -7 -10 -1 -6 14 -49 26 -49 13 0 -20 -15 -11 -27 16 -7 15
-13 35 -13 44 0 10 6 20 13 23 6 4 2 4 -10 2 -32 -6 -29 10 3 18 19 5 30 2 39
-11 7 -10 17 -15 21 -11 4 4 1 15 -7 24 -12 14 -10 19 10 35 29 24 83 26 75 4
-4 -8 -1 -15 5 -15 6 0 11 11 11 24 0 17 -7 26 -25 30 -28 7 -32 18 -11 35 10
8 16 9 21 1 9 -15 28 -12 22 4 -9 22 2 30 28 20z m-275 -153 c0 -5 12 -11 27
-13 16 -2 29 -10 31 -20 2 -12 -2 -15 -16 -11 -12 3 -28 -3 -41 -16 -25 -25
-26 -31 -6 -31 8 0 15 7 15 15 0 19 38 19 63 1 18 -14 24 -32 7 -21 -16 10
-48 -13 -52 -37 -2 -15 -17 -30 -43 -43 -65 -33 -69 -36 -55 -45 12 -7 39 4
97 41 11 7 28 9 37 6 20 -8 21 -37 1 -37 -8 0 -29 -6 -47 -14 -140 -60 -188
-81 -220 -97 -21 -10 -54 -17 -75 -16 -31 2 -37 -1 -43 -22 -3 -13 -12 -28
-20 -33 -22 -12 -73 -32 -87 -33 -6 0 -24 -13 -39 -28 -16 -16 -30 -24 -32
-18 -2 6 7 21 20 32 l23 20 -25 -7 c-22 -6 -23 -5 -12 9 8 9 9 18 3 21 -5 4
-13 0 -18 -7 -10 -17 -43 -30 -43 -17 0 5 8 13 17 19 23 12 14 20 -31 28 -29
4 -36 2 -36 -11 0 -9 -6 -16 -14 -16 -8 0 -21 -9 -29 -21 -10 -13 -17 -17 -22
-9 -10 15 2 40 18 40 8 0 20 7 27 15 16 19 7 19 -30 0 -18 -9 -30 -11 -30 -5
0 6 7 13 15 16 11 4 -3 16 -42 35 -58 29 -93 37 -93 20 0 -5 -7 -11 -15 -15
-10 -4 -15 1 -15 14 0 11 7 20 15 20 8 0 15 5 15 10 0 6 -7 10 -15 10 -22 0
-20 49 3 56 9 3 40 14 67 26 210 85 502 166 660 183 32 3 61 8 64 10 8 8 21 5
21 -4z m510 -16 c0 -16 -35 -21 -44 -6 -8 12 4 21 26 21 10 0 18 -7 18 -15z
m-410 -105 c9 -5 19 -5 27 2 16 13 18 11 27 -18 4 -14 1 -28 -10 -38 -17 -18
-46 -18 -44 -1 1 6 8 9 16 7 8 -2 14 2 14 9 0 8 -10 9 -31 5 -24 -5 -30 -3
-26 8 4 10 0 12 -14 9 -15 -4 -18 -2 -13 11 7 18 31 21 54 6z m1198 -206 c12
-8 20 -20 17 -25 -9 -14 -19 -10 -38 16 -20 28 -12 32 21 9z m-2078 -13 c0
-11 -5 -23 -11 -27 -16 -10 -29 17 -16 32 17 19 27 17 27 -5z m60 -22 c-10
-17 -30 -27 -30 -13 0 15 22 44 31 39 5 -4 5 -13 -1 -26z m1965 -13 c0 -11 -6
-21 -12 -23 -7 -3 -13 2 -13 11 0 8 -8 20 -17 26 -15 9 -13 10 12 8 22 -2 30
-8 30 -22z m-1939 -1 c-3 -8 -1 -15 5 -15 6 0 9 -7 7 -16 -2 -8 -7 -15 -13
-15 -14 1 -17 61 -4 61 6 0 9 -7 5 -15z m-98 -25 c28 -20 202 -83 262 -95 80
-15 75 -1 72 -233 -2 -114 -5 -209 -7 -211 -3 -2 -16 4 -31 13 -20 14 -24 23
-20 42 5 18 2 26 -11 30 -47 15 -63 28 -64 53 l0 26 -10 -23 c-7 -18 -14 -22
-31 -17 -13 4 -28 13 -33 20 -16 19 -60 -51 -60 -95 0 -24 -5 -35 -15 -35 -9
0 -14 7 -12 19 4 20 -16 76 -27 76 -19 0 -42 -27 -35 -43 8 -23 35 -23 28 1
-5 14 -4 14 4 2 17 -25 26 -90 13 -90 -6 0 -11 -4 -11 -10 0 -15 25 -12 65 7
32 15 48 43 25 43 -10 0 -11 39 -3 73 5 20 56 24 73 5 43 -51 50 -65 50 -94 0
-38 35 -68 51 -43 10 17 2 29 -21 29 -16 0 -18 5 -14 30 5 24 1 34 -17 50 -27
22 -23 25 16 10 19 -7 25 -15 21 -28 -7 -22 37 -78 53 -68 17 11 13 -10 -4
-24 -21 -17 -19 -33 9 -59 14 -13 22 -30 19 -40 -2 -10 0 -58 5 -107 7 -60 7
-93 0 -101 -10 -12 -2 -70 8 -60 6 6 16 64 16 92 0 35 8 65 18 65 6 0 10 -6
10 -13 0 -7 7 -23 16 -35 12 -17 19 -20 29 -12 9 8 14 3 19 -22 5 -24 2 -36
-9 -44 -8 -6 -15 -16 -15 -22 0 -6 -7 -9 -15 -6 -9 4 -15 0 -15 -9 0 -19 42
-30 55 -14 6 7 21 11 35 10 41 -4 70 6 71 25 0 13 3 12 11 -5 8 -17 20 -23 45
-23 18 0 33 5 33 11 0 6 -8 8 -19 4 -18 -5 -39 10 -28 21 2 3 24 7 48 10 25 3
58 16 76 30 18 14 33 24 34 22 0 -2 2 -13 3 -26 2 -17 -1 -21 -15 -17 -21 7
-37 -14 -19 -25 8 -5 24 -4 38 1 17 6 29 6 38 -2 8 -7 18 -8 22 -4 4 4 -3 14
-15 22 -23 15 -33 41 -11 27 6 -4 8 -3 5 4 -12 18 4 43 23 37 13 -4 24 4 39
30 21 37 19 65 -6 65 -16 0 -14 32 2 36 6 1 23 -13 39 -32 28 -34 28 -35 10
-54 -62 -63 -58 -90 8 -56 26 14 38 12 38 -6 0 -6 -6 -8 -12 -6 -14 5 -25 -3
-68 -47 -30 -30 -39 -55 -20 -55 6 0 13 6 16 13 5 15 41 20 49 6 8 -12 25 -12
25 1 0 6 -9 14 -21 18 -20 8 -20 8 5 35 14 15 33 27 44 27 15 0 18 6 14 31 -4
28 -7 30 -33 25 -35 -7 -41 17 -9 34 13 7 20 7 20 1 0 -6 7 -8 15 -5 14 6 16
2 19 -46 1 -19 33 -25 50 -11 19 16 39 6 60 -29 9 -17 22 -30 29 -30 8 0 8 3
-1 12 -28 28 -10 34 41 13 13 -5 17 -2 17 14 0 27 28 17 32 -12 3 -22 42 -47
81 -51 12 -1 38 -10 56 -19 41 -21 41 -21 41 -2 0 8 5 15 10 15 6 0 9 -3 9 -7
-4 -23 4 -31 35 -37 19 -4 36 -12 38 -18 6 -17 161 -19 262 -3 149 25 300 63
369 94 48 22 61 46 30 58 -10 4 -32 22 -50 39 -27 28 -32 38 -27 64 5 22 11
29 23 26 9 -2 32 -8 51 -11 92 -18 158 -46 218 -93 32 -26 42 -40 42 -63 0
-16 -3 -29 -7 -29 -5 0 -24 -14 -43 -30 -77 -66 -296 -155 -445 -181 -275 -47
-325 -51 -633 -50 -293 0 -545 11 -742 31 -52 6 -115 12 -140 15 -192 18 -267
28 -282 36 -10 5 -28 9 -40 9 -13 0 -45 7 -73 15 -27 9 -63 17 -80 19 -51 7
-187 55 -245 87 -72 41 -130 97 -130 126 0 28 67 103 112 126 75 38 192 77
229 77 l39 0 0 -54 c0 -64 -30 -126 -61 -126 -19 0 -24 -16 -13 -45 7 -18 114
-75 142 -75 10 0 22 -4 28 -8 11 -11 161 -57 234 -72 41 -9 66 -9 94 -1 22 5
43 8 47 5 4 -2 10 0 13 5 12 18 -15 23 -64 10 -55 -14 -76 -6 -45 18 13 10 16
17 8 20 -7 3 -9 17 -6 40 4 24 3 34 -5 30 -5 -4 -13 -25 -17 -46 -3 -22 -13
-47 -20 -58 -13 -17 -14 -17 -23 6 -6 16 -11 20 -16 13 -12 -19 -26 -14 -26
10 0 21 0 21 -20 3 -20 -18 -21 -18 -27 3 -6 26 -18 28 -27 5 -5 -12 -9 -14
-18 -5 -9 9 -6 17 10 35 12 13 22 35 22 50 0 15 5 27 11 27 5 0 7 5 4 11 -5 7
-14 4 -27 -8 -15 -13 -20 -14 -16 -4 3 10 -12 23 -41 38 -25 13 -47 23 -48 23
-1 0 -8 -13 -16 -29 -13 -25 -12 -29 4 -39 10 -7 20 -8 24 -3 3 5 -1 11 -7 14
-10 4 -11 7 0 18 12 13 12 13 16 -41 1 -20 18 -14 34 13 12 20 13 20 8 -12 -6
-33 -5 -34 13 -17 29 26 34 -4 5 -37 -28 -33 -30 -33 -38 -5 -5 22 -6 22 -19
3 -14 -18 -15 -18 -22 4 -6 19 -9 21 -16 10 -8 -12 -10 -12 -18 1 -5 8 -7 18
-5 22 3 4 1 8 -4 8 -6 0 -13 -7 -16 -16 -8 -22 -29 -6 -23 18 4 15 1 18 -14
13 -14 -5 -17 -3 -13 9 3 9 1 16 -5 16 -6 0 -11 -4 -11 -10 0 -5 -7 -10 -15
-10 -8 0 -15 3 -15 6 0 10 44 43 57 44 7 0 17 8 23 18 9 14 10 12 8 -12 -4
-40 17 -43 36 -5 20 40 20 39 -3 39 -10 0 -23 6 -29 13 -16 19 -20 349 -4 342
6 -3 19 -8 27 -11 11 -4 15 0 15 16 0 16 -4 20 -15 16 -9 -3 -15 0 -15 10 0 8
-4 12 -10 9 -5 -3 -10 1 -10 10 0 11 5 15 15 12 26 -11 26 11 0 37 -14 14 -30
26 -35 26 -7 0 -8 61 -1 78 3 7 41 -40 41 -52 0 -21 17 -29 23 -12 3 8 -1 20
-9 27 -10 8 -11 15 -4 24 14 16 1 48 -16 41 -11 -4 -14 12 -14 78 0 47 -3 91
-6 100 -8 22 11 20 44 -4z m228 -9 c-4 -6 -13 -11 -21 -11 -7 0 -15 -7 -19
-15 -3 -8 -10 -15 -16 -15 -5 0 -10 7 -10 15 0 8 7 15 15 15 8 0 19 9 26 21 7
14 14 18 21 11 6 -6 7 -15 4 -21z m749 -23 c-1 -17 -10 -37 -19 -43 -18 -14
-21 -32 -5 -37 12 -4 1 -38 -12 -38 -5 0 -9 11 -9 25 0 14 -4 25 -10 25 -16 0
-11 35 8 56 10 10 21 27 25 37 10 28 25 11 22 -25z m923 23 c26 -22 28 -31 7
-31 -8 0 -15 4 -15 9 0 5 -7 17 -16 25 -22 22 -2 20 24 -3z m187 -226 l0 -245
-27 0 c-20 0 -28 5 -28 18 0 10 -4 22 -9 28 -5 5 -5 37 0 76 9 61 8 69 -11 88
-11 11 -22 20 -25 20 -11 0 -4 -38 8 -43 8 -3 11 -22 9 -59 -3 -51 -5 -54 -30
-52 -15 1 -28 2 -30 3 -2 0 5 13 16 29 27 39 34 62 18 62 -8 0 -17 -7 -20 -16
-3 -8 -10 -12 -16 -9 -16 10 -12 42 6 49 11 4 15 14 12 31 -3 13 0 26 6 28 6
2 8 8 4 12 -13 14 -38 -4 -38 -29 0 -14 -4 -28 -10 -31 -17 -10 -12 -75 5 -75
18 0 19 -5 3 -29 -16 -26 -3 -51 27 -51 16 0 25 -6 25 -15 0 -9 7 -18 15 -21
8 -4 15 -11 15 -18 0 -7 15 -16 32 -21 30 -9 33 -13 34 -55 0 -25 -3 -85 -8
-135 -8 -88 -7 -90 17 -110 14 -12 25 -28 25 -38 0 -9 5 -17 10 -17 6 0 10 -7
10 -15 0 -11 -8 -13 -30 -8 -17 3 -30 2 -29 -3 4 -23 -3 -26 -22 -8 -21 19
-22 19 -15 -3 8 -26 -11 -33 -20 -8 -4 8 -10 13 -15 10 -4 -3 -6 -12 -2 -20 7
-20 -6 -19 -30 3 -19 16 -19 16 -13 -5 8 -26 -11 -33 -20 -8 -4 8 -11 15 -16
15 -6 0 -8 -7 -5 -15 7 -17 -9 -30 -18 -15 -10 16 -25 12 -19 -5 8 -20 -5 -19
-28 2 -17 15 -18 15 -18 -5 0 -26 -3 -27 -37 -5 -25 17 -25 17 -19 -5 9 -26
-18 -32 -28 -6 -6 16 -20 12 -22 -7 -1 -5 -2 -12 -3 -16 0 -3 -10 2 -21 12
-19 17 -20 17 -21 -1 0 -17 -1 -17 -16 4 -16 22 -43 30 -43 12 0 -5 5 -10 10
-10 6 0 10 -5 10 -11 0 -6 -8 -9 -17 -7 -12 2 -20 20 -27 58 -9 43 -15 55 -29
54 -16 -2 -18 12 -16 203 2 150 6 211 16 230 12 23 12 28 -2 36 -9 5 -14 16
-11 25 3 9 6 75 7 145 2 70 7 130 11 133 5 3 47 5 93 5 47 0 96 4 110 9 14 5
49 12 77 15 50 5 203 57 223 76 5 5 9 9 10 9 0 0 0 -110 0 -245z m-221 216
c24 -27 2 -37 -24 -11 -11 11 -20 22 -20 25 0 12 28 3 44 -14z m-934 -2 c0 -5
-9 -9 -20 -9 -11 0 -19 -6 -17 -12 2 -15 -33 -18 -50 -5 -18 13 -5 29 17 22
10 -3 21 -2 23 2 8 12 47 14 47 2z m846 -47 c-4 -4 -13 1 -20 11 -17 22 -22
22 -30 -5 -6 -23 -6 -23 -30 7 -23 28 -17 50 7 26 16 -16 27 -14 27 5 0 13 6
11 27 -10 14 -14 23 -30 19 -34z m24 48 c0 -5 7 -10 15 -10 8 0 15 -7 15 -15
0 -22 -13 -18 -40 10 -19 21 -21 25 -7 25 9 0 17 -4 17 -10z m-216 -29 c10
-11 16 -25 14 -31 -2 -6 -14 3 -26 19 -25 34 -15 42 12 12z m84 7 c14 -14 16
-38 3 -38 -5 0 -16 11 -25 25 -13 19 -13 25 -3 25 7 0 18 -5 25 -12z m-672
-43 c-7 -18 -26 -20 -26 -2 0 18 24 41 28 27 2 -6 1 -17 -2 -25z m-150 16 c-3
-4 6 -6 19 -3 27 5 32 -7 13 -26 -16 -16 -36 -15 -54 3 -17 17 -11 35 12 35 8
0 13 -4 10 -9z m395 -21 c21 -12 27 -34 7 -27 -7 2 -21 -9 -31 -26 -12 -19
-23 -27 -33 -23 -9 3 -20 6 -25 6 -16 0 -10 26 11 45 17 15 22 16 36 4 15 -12
16 -11 10 9 -8 25 -4 27 25 12z m-441 -10 c0 -5 -4 -10 -10 -10 -5 0 -10 -9
-10 -19 0 -10 -7 -22 -16 -25 -40 -15 -45 0 -11 38 22 26 47 34 47 16z m110
-19 c0 -5 3 -16 6 -25 8 -21 -34 -37 -60 -24 -18 10 -17 11 5 33 25 24 49 32
49 16z m-333 -26 c13 -14 12 -19 -13 -53 -16 -20 -32 -38 -36 -40 -4 -2 -8
-10 -8 -18 0 -8 -7 -14 -15 -14 -8 0 -15 4 -15 9 0 5 7 14 15 21 8 7 15 19 15
26 0 7 11 21 25 30 28 18 33 34 9 34 -8 0 -12 5 -9 10 8 14 14 13 32 -5z m113
-37 c-15 -14 -18 -23 -11 -28 7 -3 9 -15 6 -26 -6 -18 -6 -17 6 1 6 11 13 21
14 23 2 2 14 0 29 -4 28 -7 36 -24 11 -24 -8 0 -15 5 -15 11 0 6 -17 -8 -38
-31 -32 -36 -40 -40 -50 -27 -10 11 -8 20 10 42 15 20 18 30 10 33 -8 2 -6 12
9 33 11 16 25 26 31 23 5 -3 0 -15 -12 -26z m120 15 c-1 -14 -27 -43 -39 -43
-15 0 -14 23 1 38 13 13 38 16 38 5z m140 -22 c0 -20 -27 -48 -37 -37 -8 7 17
56 29 56 4 0 8 -8 8 -19z m230 0 c-1 -22 -65 -67 -75 -52 -7 12 5 41 16 41 5
0 9 6 9 14 0 9 8 12 25 8 14 -2 25 -7 25 -11z m128 -15 c-2 -17 -7 -22 -20
-18 -36 9 -34 42 2 42 15 0 19 -6 18 -24z m-462 -7 c19 -18 21 -25 12 -43 -11
-20 -10 -20 8 -6 10 8 22 20 26 25 4 6 8 -4 8 -21 0 -24 -5 -33 -22 -37 -14
-4 -26 -1 -31 8 -4 8 -15 15 -24 15 -14 0 -14 3 3 21 18 20 18 20 -9 14 -30
-8 -36 6 -14 30 16 19 17 19 43 -6z m-370 -41 c-13 -19 -16 -19 -16 -5 0 9 6
26 13 37 9 16 13 17 15 6 2 -9 -4 -26 -12 -38z m727 31 c6 -23 -31 -87 -72
-123 -21 -19 -21 -19 -21 2 0 12 6 22 13 22 9 0 9 2 -1 8 -9 7 -3 21 25 60 21
28 41 52 44 52 4 0 9 -10 12 -21z m-581 -45 c-7 -12 -6 -22 4 -32 16 -16 19
-42 4 -42 -6 0 -14 10 -19 22 l-8 22 -17 -26 c-19 -29 -48 -46 -40 -24 6 17
-12 31 -21 16 -9 -14 -35 -13 -35 2 0 14 30 48 42 48 4 0 8 -6 8 -14 0 -8 7
-16 15 -20 11 -4 15 1 15 17 0 26 8 38 35 53 23 13 31 3 17 -22z m648 29 c-1
-17 -40 -54 -50 -48 -24 15 -1 55 32 55 10 0 18 -3 18 -7z m90 -14 c-6 -11
-18 -23 -26 -26 -9 -3 -20 -16 -25 -29 -4 -13 -15 -24 -23 -24 -17 0 -49 -47
-41 -61 4 -5 -1 -21 -10 -35 -9 -14 -14 -28 -12 -31 3 -3 18 14 33 36 l27 41
17 -27 c17 -27 17 -29 -1 -59 -21 -35 -24 -48 -9 -39 13 8 13 -1 0 -25 -8 -15
-6 -21 7 -29 23 -13 4 -35 -21 -25 -13 5 -16 13 -11 28 4 11 7 30 6 41 0 11
-1 28 -2 38 0 9 -7 17 -15 17 -15 0 -15 -33 1 -72 4 -11 1 -17 -12 -20 -10 -2
-18 -12 -18 -23 0 -28 -27 -25 -41 4 -14 26 1 65 22 57 6 -2 11 8 11 25 0 16
-3 29 -7 29 -10 0 -8 33 3 48 6 8 6 17 -2 26 -12 14 -5 46 10 46 5 0 9 6 9 13
0 7 9 23 20 35 11 12 20 25 20 30 0 8 53 28 83 31 15 1 16 -2 7 -20z m-386 5
c24 -9 19 -19 -9 -20 -15 -1 -25 3 -25 12 0 15 10 17 34 8z m-244 -22 c-1 -17
-19 -34 -29 -28 -8 5 -8 13 -1 27 10 18 30 18 30 1z m70 5 c0 -8 -8 -21 -19
-31 -16 -14 -20 -15 -30 -2 -10 11 -7 17 11 30 27 20 38 20 38 3z m319 -3 c2
-2 -2 -10 -9 -19 -11 -14 -14 -13 -26 2 -11 15 -13 15 -14 3 0 -9 5 -21 12
-28 8 -8 8 -15 -2 -27 -13 -16 -15 -16 -26 0 -12 17 -8 51 9 73 8 11 42 8 56
-4z m-669 -17 c0 -2 -9 -21 -20 -43 l-19 -39 -1 37 c0 32 8 45 33 47 4 1 7 0
7 -2z m290 -52 c0 -8 7 -15 15 -15 20 0 19 -14 -2 -31 -12 -10 -17 -11 -20 -2
-2 7 -11 9 -19 6 -10 -3 -14 2 -14 19 0 14 3 28 7 31 12 13 33 7 33 -8z m290
6 c0 -17 -12 -41 -21 -41 -10 0 -12 33 -2 43 9 10 23 9 23 -2z m136 -64 c-20
-24 -36 -50 -36 -57 0 -9 -10 -11 -37 -6 -21 3 -43 6 -49 6 -6 0 -11 20 -12
45 0 25 4 43 9 39 5 -3 9 -12 9 -20 0 -8 4 -14 9 -14 5 0 12 -8 16 -19 9 -29
55 -16 55 16 0 14 10 38 21 55 19 26 23 28 37 15 13 -14 11 -20 -22 -60z
m-486 38 c0 -16 -4 -23 -14 -19 -8 3 -22 -9 -34 -30 -12 -20 -28 -36 -37 -36
-19 0 -20 19 0 26 8 4 15 11 15 18 0 6 9 18 20 26 11 8 20 20 20 27 0 7 7 13
15 13 9 0 15 -9 15 -25z m-67 -11 c-7 -18 -33 -18 -33 -1 0 19 10 27 25 20 8
-2 11 -11 8 -19z m317 16 c6 11 12 12 20 4 14 -14 1 -47 -16 -40 -7 3 -17 -1
-21 -8 -10 -17 -53 -31 -53 -18 0 6 11 13 25 16 14 4 25 11 25 16 0 5 -7 7
-15 4 -18 -7 -20 7 -3 24 9 9 14 9 20 -1 6 -9 10 -9 18 3z m190 -31 c0 -4 -7
-12 -16 -19 -12 -11 -18 -10 -31 3 -13 13 -14 19 -4 31 10 12 16 13 32 3 10
-6 19 -15 19 -18z m356 -12 c-5 -54 -55 -133 -94 -148 -18 -7 -23 -16 -21 -37
2 -17 -8 -44 -26 -72 -35 -52 -47 -63 -56 -48 -4 7 -9 7 -13 0 -3 -6 -2 -13 3
-16 10 -7 -9 -56 -22 -56 -16 0 -17 27 -2 64 10 24 21 36 29 33 21 -8 38 14
24 30 -8 11 -6 18 11 34 12 11 19 24 16 29 -3 5 -1 11 5 15 18 11 11 27 -10
20 -24 -8 -28 16 -6 34 8 7 12 20 9 30 -5 19 40 101 56 101 12 0 23 -62 13
-69 -9 -6 -32 -46 -32 -55 0 -3 5 -6 11 -6 5 0 16 15 24 34 8 19 18 36 22 38
5 1 17 20 27 41 24 46 35 47 32 4z m-1003 -14 c8 -46 0 -59 -23 -38 -15 14
-17 22 -8 46 13 39 24 37 31 -8z m387 28 c0 -5 -13 -16 -30 -25 -34 -16 -38
-11 -12 15 18 19 42 25 42 10z m488 -13 c-7 -19 -38 -22 -38 -4 0 10 9 16 21
16 12 0 19 -5 17 -12z m-772 -9 c3 -6 -5 -23 -20 -37 -21 -22 -26 -23 -26 -9
0 9 5 17 10 17 7 0 7 6 0 20 -9 17 -8 20 9 20 11 0 23 -5 27 -11z m605 -42
c-21 -21 -32 7 -13 33 l17 25 3 -24 c2 -13 -1 -28 -7 -34z m-498 21 c-11 -13
-18 -29 -16 -36 3 -8 -1 -10 -11 -6 -9 3 -16 1 -16 -5 0 -6 5 -11 10 -11 6 0
10 -4 10 -9 0 -5 -9 -7 -20 -4 -11 3 -27 0 -35 -7 -12 -10 -15 -9 -15 6 0 25
69 94 94 94 19 0 19 0 -1 -22z m60 -4 c3 -3 1 -17 -5 -30 -8 -18 -8 -31 0 -49
10 -22 9 -28 -10 -47 -20 -20 -22 -20 -34 -3 -11 15 -16 16 -29 5 -12 -10 -15
-10 -15 1 0 10 -3 10 -12 1 -16 -16 -28 -15 -28 1 0 25 18 40 36 32 11 -5 21
-9 24 -9 3 -1 10 -5 16 -9 7 -4 18 0 25 9 10 12 10 17 1 23 -13 8 -6 41 9 41
4 0 6 7 2 16 -5 13 -7 13 -14 2 -5 -7 -9 -8 -9 -2 0 21 28 33 43 18z m220 -1
c-7 -3 -13 -11 -13 -19 0 -16 -16 -19 -25 -4 -9 15 1 26 27 27 13 0 17 -1 11
-4z m-156 -21 c-21 -23 -22 -39 -2 -22 12 10 15 10 15 -1 0 -8 9 -4 23 9 29
28 43 28 58 0 9 -18 9 -20 -4 -15 -10 4 -22 -4 -32 -19 -15 -23 -19 -24 -33
-12 -9 8 -29 14 -44 13 -30 -1 -46 20 -22 29 8 3 14 9 13 13 -3 18 2 23 23 23
20 0 20 -1 5 -18z m-217 -13 c0 -6 -13 -24 -30 -41 -16 -16 -30 -36 -30 -43 0
-16 -17 -29 -23 -18 -8 12 19 69 42 92 23 23 41 27 41 10z m560 -20 c0 -6 9
-8 20 -4 26 8 25 -5 -2 -49 -31 -48 -52 -40 -36 14 3 8 3 12 1 8 -8 -14 -21
-8 -25 10 -3 13 -10 8 -27 -20 -13 -21 -29 -38 -37 -38 -18 0 -18 5 2 35 9 14
12 25 6 25 -6 0 -14 -9 -17 -20 -8 -26 -25 -26 -25 -1 0 26 16 35 67 36 24 1
46 5 50 8 10 11 23 8 23 -4z m-652 -26 c3 -17 -2 -21 -22 -19 -30 1 -30 1 -15
27 13 25 33 20 37 -8z m471 -2 c8 -5 11 -16 7 -27 -6 -16 -8 -16 -26 4 -11 12
-20 24 -20 27 0 8 23 6 39 -4z m-165 -42 c13 -12 0 -23 -16 -13 -7 5 -21 7
-30 6 -13 -2 -16 1 -12 13 6 16 38 13 58 -6z m208 -40 c6 -4 7 -12 3 -18 -5
-9 -10 -9 -20 -1 -10 8 -18 4 -35 -20 -12 -16 -26 -30 -31 -30 -14 0 -11 32 6
50 15 16 14 17 -12 12 -26 -5 -27 -4 -14 12 8 10 23 15 33 13 12 -4 24 4 36
21 l17 26 3 -29 c2 -17 8 -33 14 -36z m98 20 c0 -16 -5 -29 -11 -29 -5 0 -7 6
-3 13 6 10 4 10 -7 0 -30 -29 -39 -7 -13 32 20 30 34 24 34 -16z m-537 12 c-2
-6 4 -11 13 -11 12 0 15 -6 11 -21 -4 -16 -3 -18 8 -9 22 18 30 -9 9 -30 -17
-17 -21 -17 -38 -5 -16 12 -17 17 -6 30 17 20 5 32 -15 15 -22 -18 -30 -5 -16
26 11 24 39 29 34 5z m-119 -25 c-6 -26 -18 -33 -28 -18 -6 10 23 56 31 49 2
-3 1 -16 -3 -31z m456 16 c0 -5 -3 -12 -7 -16 -4 -4 -6 -23 -4 -42 2 -25 -1
-34 -13 -34 -24 0 -30 20 -10 35 18 13 18 14 2 15 -21 0 -22 4 -8 31 11 19 40
27 40 11z m-535 -15 c17 6 20 -164 4 -184 -22 -25 -29 -13 -29 48 0 39 -6 71
-17 89 -14 24 -14 31 -3 45 8 10 17 12 23 6 5 -5 15 -7 22 -4z m118 -4 c4 -3
0 -17 -8 -30 -9 -13 -13 -32 -10 -43 3 -10 1 -21 -4 -24 -11 -7 -3 -37 12 -47
5 -4 3 -15 -4 -28 -15 -22 -69 -30 -69 -10 0 6 6 9 14 6 8 -3 20 1 26 9 8 8 8
14 2 14 -18 0 -23 32 -7 50 19 21 20 36 0 20 -24 -20 -19 14 8 55 23 36 29 40
40 28z m207 -4 c0 -6 -9 -13 -20 -16 -11 -3 -20 -13 -20 -22 0 -9 -6 -23 -12
-30 -10 -11 -10 -14 0 -18 6 -3 12 -10 12 -17 0 -9 9 -12 25 -8 26 5 31 -3 15
-28 -8 -12 -11 -12 -28 3 -10 9 -24 17 -30 17 -18 0 -26 47 -12 79 14 35 70
67 70 40z m78 0 c41 2 53 -11 39 -38 -13 -26 -32 -26 -31 2 0 9 -4 17 -9 17
-5 0 -16 -8 -23 -17 -12 -17 -14 -17 -28 2 -23 30 -20 49 7 40 12 -4 33 -6 45
-6z m512 -22 c0 -4 -11 -5 -25 -1 -29 7 -45 -18 -28 -45 8 -13 5 -26 -12 -54
-28 -47 -31 -50 -44 -42 -8 4 -6 15 4 35 8 16 15 39 15 51 0 12 9 36 20 54 19
30 23 32 45 21 14 -6 25 -14 25 -19z m-112 4 c26 -22 28 -31 8 -31 -8 0 -25
-15 -37 -32 -14 -21 -17 -28 -7 -20 15 12 17 10 15 -22 -2 -20 -6 -36 -10 -36
-4 0 -11 0 -17 0 -5 0 -10 14 -10 30 0 20 -5 30 -13 28 -7 -2 -12 2 -12 7 0 6
6 9 13 9 7 -1 12 11 12 30 0 29 15 57 30 56 3 -1 15 -9 28 -19z m-648 -16 c-9
-11 -9 -15 -1 -15 7 0 10 -4 7 -9 -8 -13 -46 -1 -46 14 0 14 15 23 39 24 11 1
11 -2 1 -14z m580 8 c0 -5 -4 -14 -9 -22 -8 -13 -12 -13 -28 0 -16 13 -17 13
-4 -3 15 -21 8 -48 -13 -48 -23 0 -30 20 -16 45 11 21 21 26 63 34 4 0 7 -2 7
-6z m-270 -38 c0 -8 -4 -15 -10 -15 -5 0 -10 -7 -10 -15 0 -8 4 -15 10 -15 5
0 6 -8 3 -17 -5 -14 -8 -14 -11 -2 -3 7 -12 19 -21 26 -13 9 -20 8 -38 -9 -20
-18 -43 -18 -43 1 0 11 52 35 71 32 9 -1 19 5 22 14 8 19 27 20 27 0z m158
-23 c2 -15 -2 -22 -12 -22 -9 0 -16 7 -16 15 0 8 -4 15 -10 15 -5 0 -10 4 -10
10 0 20 45 3 48 -18z m-478 -27 c0 -7 6 -15 13 -18 8 -3 9 -9 2 -21 -12 -21
-31 -21 -27 0 2 9 -2 22 -8 29 -7 8 -9 19 -5 25 8 13 25 3 25 -15z m65 5 c10
-11 15 -23 11 -27 -4 -4 -11 -2 -15 5 -4 7 -15 10 -24 6 -17 -6 -24 15 -10 29
10 11 19 8 38 -13z m199 -25 c-4 -10 0 -15 11 -15 10 0 15 -6 13 -17 -4 -21
-28 -30 -28 -10 0 8 -8 18 -17 22 -17 6 -17 7 1 21 25 18 27 18 20 -1z m180
-16 c-8 -14 -34 -11 -34 4 0 8 3 17 7 20 9 9 34 -13 27 -24z m521 20 c4 -5 -1
-19 -10 -29 -9 -10 -15 -23 -12 -27 9 -15 -10 -36 -27 -30 -21 8 -21 27 0 27
8 0 13 4 10 9 -8 12 11 61 23 61 5 0 13 -5 16 -11z m-865 -33 c-17 -22 -32 -9
-19 16 8 14 14 17 22 9 7 -7 6 -15 -3 -25z m442 8 c25 -31 58 -45 76 -31 9 7
18 5 30 -7 10 -9 24 -16 30 -16 19 0 14 -18 -10 -34 -24 -17 -40 -13 -31 9 6
16 -22 21 -31 6 -9 -14 -48 0 -42 14 3 8 -1 16 -9 19 -9 3 -12 0 -8 -10 9 -24
-17 -15 -28 10 -8 16 -17 22 -27 19 -15 -6 -12 5 11 35 13 17 16 16 39 -14z
m-496 -11 c-1 -14 -7 -28 -13 -31 -15 -4 -18 14 -3 23 5 3 7 12 3 20 -3 8 -1
15 4 15 6 0 10 -12 9 -27z m144 -15 c0 -21 -11 -23 -28 -6 -18 18 -15 27 8 25
12 -1 20 -8 20 -19z m-70 -16 c0 -10 -6 -24 -12 -31 -11 -10 -9 -11 5 -5 15 6
18 3 15 -17 -2 -14 -11 -25 -22 -27 -14 -3 -17 0 -13 12 4 9 2 16 -4 16 -19 0
-21 31 -4 50 22 25 35 25 35 2z m128 -1 c-2 -8 -7 -16 -13 -18 -16 -4 -38 14
-31 25 10 16 47 10 44 -7z m-224 -10 c3 -4 -3 -19 -14 -31 -20 -23 -18 -40 4
-40 8 0 19 -7 26 -15 7 -8 16 -12 21 -9 5 3 9 0 9 -6 0 -7 -8 -9 -19 -5 -13 4
-24 -1 -33 -14 -8 -11 -22 -18 -34 -16 -10 2 -21 4 -24 4 -3 1 8 10 23 20 l29
19 -36 27 c-36 28 -49 52 -21 41 9 -3 19 3 25 14 11 21 35 27 44 11z m750 -4
c15 -11 16 -17 7 -35 -14 -26 -50 -17 -63 17 -4 13 -4 20 1 16 5 -3 12 -1 16
5 8 13 18 13 39 -3z m-584 -29 c1 -21 2 -21 11 -5 12 21 35 22 43 1 3 -8 2
-13 -3 -10 -5 3 -14 -1 -21 -9 -16 -19 -31 -19 -55 -1 -16 12 -17 16 -6 30 19
22 31 20 31 -6z m712 -37 c-12 -17 -22 -35 -22 -40 0 -5 -4 -13 -10 -16 -15
-9 -9 67 8 93 14 21 17 22 31 8 13 -14 13 -19 -7 -45z m38 -16 c0 -24 -5 -35
-15 -35 -15 0 -20 26 -9 54 11 28 24 17 24 -19z m-140 -12 c0 -17 -10 -16 -32
4 -26 23 -22 35 7 21 14 -6 25 -17 25 -25z m-1708 -33 c43 -38 23 -39 -22 0
-19 16 -29 29 -23 30 7 0 27 -13 45 -30z m2812 -3 c-9 -25 -101 -87 -185 -126
-101 -46 -286 -94 -469 -122 -112 -17 -195 -22 -485 -24 -192 -2 -404 0 -470
5 -517 41 -545 44 -545 61 0 9 110 3 197 -11 112 -19 464 -34 803 -35 327 0
392 3 575 30 85 13 229 50 316 83 100 38 249 123 249 142 0 6 4 10 10 10 5 0
7 -6 4 -13z m-2641 -89 c35 -17 324 -87 390 -93 49 -5 67 -11 67 -22 0 -9 -7
-12 -17 -9 -10 3 -40 8 -68 11 -160 21 -455 112 -455 141 0 13 5 13 33 -2 17
-9 40 -21 50 -26z m791 -553 c11 -8 28 -15 38 -15 10 0 18 -4 18 -9 0 -6 -12
-6 -29 -1 -32 9 -71 28 -71 35 0 10 26 4 44 -10z m916 -14 c0 -5 -12 -12 -27
-15 -16 -4 -37 -9 -48 -13 -14 -4 -17 -2 -10 6 6 6 20 12 32 14 13 2 26 6 29
10 10 10 24 9 24 -2z m-790 -21 c19 -5 52 -12 74 -14 21 -3 42 -8 45 -12 10
-12 -108 6 -142 20 -38 17 -26 20 23 6z m667 -16 c-12 -12 -222 -33 -232 -23
-5 5 5 9 28 9 20 0 40 1 44 3 17 5 158 23 162 20 2 -2 2 -6 -2 -9z m-378 -20
c2 -2 -21 -4 -52 -4 -31 0 -58 4 -62 9 -5 9 104 3 114 -5z m104 -1 c-18 -2
-48 -2 -65 0 -18 2 -4 4 32 4 36 0 50 -2 33 -4z"/>
<path d="M1564 2169 c-3 -6 -2 -15 4 -21 13 -13 32 -2 32 18 0 16 -26 19 -36
3z"/>
<path d="M1559 2108 c-7 -13 -16 -26 -21 -29 -14 -9 3 -41 18 -35 11 4 13 -1
8 -22 -4 -15 -13 -35 -20 -46 -13 -19 -9 -46 8 -46 5 0 6 4 3 10 -3 5 -1 19 5
31 7 11 14 32 16 47 7 38 13 44 37 36 19 -6 20 -5 8 9 -9 12 -18 14 -30 8 -13
-7 -16 -4 -18 17 0 15 2 20 7 12 4 -6 10 -8 13 -4 3 5 -1 15 -9 22 -11 10 -15
8 -25 -10z"/>
<path d="M1476 2104 c-9 -22 -9 -22 19 -20 28 1 34 21 9 30 -21 8 -21 8 -28
-10z"/>
<path d="M1920 2070 c0 -6 10 -10 23 -10 28 -1 55 -21 50 -37 -6 -18 -23 -16
-23 2 0 8 -7 15 -15 15 -8 0 -14 -5 -12 -12 2 -13 -108 -41 -130 -33 -8 2 -13
-4 -13 -15 0 -16 4 -17 35 -9 19 6 61 9 92 7 32 -2 58 0 58 4 0 3 10 17 23 31
l23 24 -23 15 c-29 19 -88 31 -88 18z"/>
<path d="M2076 1992 c-10 -11 -16 -12 -16 -4 0 7 -12 12 -27 12 -27 -1 -27 -1
-8 -16 11 -8 20 -24 20 -36 0 -12 6 -23 14 -26 8 -2 11 -1 9 4 -3 5 -2 20 3
33 8 19 14 22 42 18 47 -7 73 -14 96 -26 11 -6 26 -8 34 -5 8 3 17 -1 20 -9 3
-8 23 -17 45 -20 22 -4 45 -14 52 -22 7 -8 21 -15 31 -15 23 0 25 -18 4 -26
-8 -4 -15 -14 -15 -24 0 -11 -4 -22 -10 -25 -5 -3 -10 -1 -10 4 0 14 -36 13
-80 -3 -24 -9 -42 -10 -61 -3 -19 8 -34 6 -58 -6 -27 -13 -33 -14 -37 -2 -7
17 -32 27 -47 18 -7 -4 -3 -9 9 -14 16 -7 15 -8 -7 -8 -15 -1 -32 6 -39 14 -7
8 -23 15 -35 15 -13 0 -25 7 -29 15 -3 8 -14 15 -25 15 -11 0 -27 7 -35 16
-10 9 -24 13 -36 9 -12 -4 -20 -2 -20 5 0 6 -10 8 -27 4 -22 -6 -25 -4 -20 10
5 11 1 16 -13 16 -11 0 -20 -5 -20 -11 0 -6 -9 -8 -22 -3 -23 7 -23 7 -4 -15
11 -12 26 -19 34 -16 7 3 22 -5 32 -17 10 -13 22 -19 26 -15 5 4 2 12 -6 17
-8 5 -11 12 -7 16 11 11 46 -26 40 -42 -3 -8 -1 -14 5 -14 6 0 17 -3 25 -6 12
-4 14 0 10 15 -3 12 -1 21 3 21 19 0 34 -17 33 -36 -4 -35 1 -54 12 -54 7 0 9
10 7 25 -7 35 3 38 46 15 43 -21 186 -37 196 -21 4 7 17 8 38 2 25 -8 32 -7
32 4 0 10 9 12 35 8 21 -3 41 -1 49 7 9 6 20 9 26 5 5 -3 10 1 10 9 0 8 9 18
20 21 11 3 20 9 20 13 0 4 3 17 6 30 5 17 2 22 -14 22 -11 0 -25 7 -32 15 -7
8 -18 15 -26 15 -17 0 -87 32 -95 43 -3 5 -9 8 -13 8 -3 0 -11 1 -18 4 -7 2
-31 6 -53 8 -22 2 -54 9 -71 15 -26 8 -35 7 -48 -6z"/>
<path d="M1747 1973 c-7 -6 15 -43 25 -43 5 0 8 9 8 19 0 18 -23 35 -33 24z"/>
<path d="M1690 1950 c1 -9 27 -40 34 -40 3 0 6 10 6 23 0 16 -6 23 -20 23 -11
0 -20 -3 -20 -6z"/>
<path d="M2107 1943 c-11 -11 -8 -25 4 -17 6 3 15 0 20 -7 10 -17 23 -5 16 16
-7 15 -28 20 -40 8z"/>
<path d="M1994 1932 c-5 -4 -10 -17 -10 -29 0 -17 6 -23 22 -23 12 0 27 -7 34
-15 12 -14 40 -21 40 -9 0 14 -34 37 -56 37 -27 0 -32 12 -9 21 8 3 15 10 15
16 0 12 -20 13 -36 2z"/>
<path d="M1526 1808 c-6 -91 -4 -120 8 -107 9 10 17 209 8 209 -5 0 -12 -46
-16 -102z"/>
<path d="M2124 1888 c-8 -12 37 -36 57 -31 21 6 23 12 11 30 -7 12 -61 13 -68
1z"/>
<path d="M1496 1853 c-9 -56 -7 -101 4 -108 6 -4 10 16 10 54 0 32 3 66 6 75
3 9 2 16 -4 16 -5 0 -12 -17 -16 -37z"/>
<path d="M1578 1848 c-2 -7 -5 -43 -7 -80 -2 -58 0 -68 14 -68 10 0 13 4 8 13
-4 6 -6 42 -4 80 3 63 -1 83 -11 55z"/>
<path d="M1780 1695 c0 -37 4 -65 10 -65 6 0 10 28 10 65 0 37 -4 65 -10 65
-6 0 -10 -28 -10 -65z"/>
<path d="M979 1650 c-4 -60 -3 -82 3 -98 4 -10 7 1 7 28 1 25 4 55 7 68 4 13
2 22 -5 22 -6 0 -12 -9 -12 -20z"/>
<path d="M1117 2063 c-4 -3 -7 -15 -7 -25 0 -10 -7 -18 -16 -18 -10 0 -14 6
-10 15 4 12 -3 15 -29 15 -26 0 -35 -4 -35 -17 0 -13 3 -14 11 -6 12 12 39 7
39 -7 0 -4 -11 -11 -25 -14 -27 -7 -58 4 -55 20 4 20 -18 13 -24 -8 -4 -13
-10 -18 -12 -11 -4 8 -12 5 -25 -8 -25 -25 -19 -35 11 -19 12 7 36 10 53 7 17
-2 45 1 62 8 16 7 50 16 75 20 25 4 53 15 62 25 16 17 15 18 -14 24 -39 8 -53
8 -61 -1z"/>
<path d="M1220 2055 c0 -3 10 -10 23 -15 18 -7 18 -9 4 -9 -22 -1 -13 -21 9
-21 25 0 13 44 -13 48 -13 2 -23 1 -23 -3z"/>
<path d="M860 2000 c-6 -11 -14 -19 -18 -17 -4 3 -16 1 -26 -2 -25 -10 -29
-51 -5 -51 24 0 35 20 18 32 -10 7 -8 8 8 3 16 -4 26 0 35 14 7 12 19 21 26
21 7 0 10 5 7 10 -10 17 -34 11 -45 -10z"/>
<path d="M1168 1988 c8 -8 9 -15 1 -25 -8 -9 -8 -13 0 -13 6 0 11 -8 11 -18 0
-11 8 -18 20 -19 11 -1 20 3 20 8 0 6 -4 7 -10 4 -5 -3 -11 3 -11 14 -1 12 -3
26 -4 31 -1 6 -3 15 -4 20 0 6 -9 10 -18 10 -13 0 -14 -3 -5 -12z"/>
<path d="M1090 1966 c0 -32 14 -40 35 -20 20 21 15 38 -13 42 -18 3 -22 -2
-22 -22z"/>
<path d="M969 1941 c-17 -14 -21 -23 -13 -30 7 -8 14 -4 24 14 14 26 30 33 30
14 0 -13 53 -64 76 -73 10 -4 25 1 34 9 20 18 34 7 20 -15 -7 -11 -27 -15 -72
-14 -35 1 -53 -1 -40 -3 42 -8 22 -20 -22 -13 -25 4 -52 2 -61 -3 -11 -6 -21
-5 -28 2 -8 8 -5 11 11 11 12 0 22 4 22 9 0 16 -94 7 -120 -12 -24 -17 -26
-17 -42 4 -10 12 -18 27 -18 35 0 8 -4 14 -10 14 -25 0 -4 -73 25 -84 16 -6
65 12 76 27 4 5 20 -1 37 -13 23 -17 34 -20 49 -11 28 14 93 3 86 -15 -3 -8 0
-14 6 -14 6 0 11 7 11 16 0 8 4 13 9 10 5 -4 11 -1 13 5 2 7 19 13 38 15 35 4
63 21 55 34 -2 4 8 5 23 3 l27 -5 -25 21 c-28 23 -76 28 -83 9 -3 -10 -8 -10
-21 2 -17 13 -17 14 1 21 16 7 16 8 -3 8 -13 1 -24 9 -27 21 -7 26 -56 27 -88
1z"/>
<path d="M735 1937 c-35 -21 -54 -51 -43 -64 14 -17 32 -17 25 0 -7 17 13 43
41 51 12 4 20 12 17 17 -8 11 -15 11 -40 -4z"/>
<path d="M642 1458 c-7 -7 -12 -20 -12 -29 0 -9 -7 -22 -15 -29 -20 -16 -19
-59 0 -67 23 -8 30 4 14 23 -11 14 -11 18 4 29 9 7 17 22 17 33 0 11 5 24 10
27 12 7 13 25 2 25 -4 0 -13 -5 -20 -12z"/>
<path d="M715 1411 c-3 -6 -14 -11 -24 -11 -11 0 -21 -10 -25 -22 -9 -34 -7
-58 4 -58 6 0 10 7 10 15 0 8 6 15 14 15 7 0 16 9 19 21 8 29 30 13 24 -18 -3
-15 0 -22 7 -20 20 6 18 52 -3 71 -12 11 -21 14 -26 7z"/>
<path d="M490 1170 c0 -13 7 -20 20 -20 11 0 20 3 20 8 0 4 -9 13 -20 20 -18
11 -20 10 -20 -8z"/>
<path d="M395 1040 c-3 -5 -16 -10 -28 -10 -13 0 -32 -7 -44 -15 -12 -9 -26
-15 -30 -14 -4 1 -19 1 -32 0 -18 -1 -22 -5 -18 -21 3 -11 1 -20 -4 -20 -5 0
-9 -4 -9 -10 0 -18 18 -11 25 9 7 23 62 38 78 22 17 -17 29 -13 22 9 -5 16 -2
20 18 20 27 0 54 24 38 34 -5 4 -12 2 -16 -4z"/>
<path d="M165 936 c-12 -8 -16 -20 -12 -35 3 -11 1 -21 -4 -21 -5 0 -12 -7
-16 -15 -6 -18 23 -55 45 -55 12 0 10 6 -8 25 -21 22 -21 25 -5 25 14 0 16 6
12 30 -6 25 -2 32 21 44 24 13 24 15 6 16 -11 0 -28 -6 -39 -14z"/>
<path d="M2643 943 c-24 -9 -13 -18 23 -20 20 -1 44 -9 53 -17 9 -9 26 -13 38
-10 20 6 63 -21 63 -39 0 -11 -43 3 -52 17 -5 8 -13 6 -25 -6 -16 -17 -16 -18
10 -18 16 0 27 -5 27 -14 0 -9 8 -12 25 -8 17 3 27 -1 31 -13 9 -24 -6 -34
-56 -39 -36 -3 -46 -8 -48 -24 -4 -23 -47 -42 -98 -42 -24 0 -34 -5 -34 -15 0
-15 -48 -40 -58 -30 -3 2 -10 0 -17 -5 -7 -6 -24 -6 -46 0 -47 14 -57 13 -63
-8 -3 -9 -18 -22 -33 -29 -35 -14 -118 -12 -135 5 -18 18 -35 15 -52 -10 -21
-30 -136 -40 -161 -14 -21 20 -29 20 -50 0 -11 -11 -40 -18 -83 -22 -55 -3
-74 -1 -104 16 -36 21 -37 21 -43 2 -7 -22 -57 -35 -105 -28 -22 3 -30 0 -30
-10 0 -23 119 -10 140 16 16 19 17 19 39 1 19 -16 37 -18 98 -16 51 3 79 9 90
20 14 14 18 14 40 0 35 -23 162 -13 181 15 12 18 16 19 41 6 40 -20 148 -5
171 24 15 19 22 20 55 11 31 -9 46 -7 79 7 23 10 48 23 56 30 8 6 35 15 60 19
31 5 53 16 72 36 20 21 36 29 62 29 25 0 38 6 46 20 24 44 -40 145 -87 139
-10 -1 -35 5 -55 15 -39 17 -45 18 -65 9z"/>
<path d="M200 882 c0 -15 28 -47 35 -40 8 8 -13 48 -25 48 -6 0 -10 -4 -10 -8z"/>
<path d="M689 858 c-7 -12 -4 -78 2 -78 5 0 9 3 10 8 0 4 2 22 3 40 2 17 0 32
-5 32 -5 0 -10 -1 -10 -2z"/>
<path d="M729 843 c-7 -34 -6 -73 2 -73 5 0 9 12 9 26 0 15 8 33 18 40 16 12
15 13 -5 14 -13 0 -24 -3 -24 -7z"/>
<path d="M770 810 c-14 -33 -5 -78 9 -50 13 24 21 80 12 80 -5 0 -14 -13 -21
-30z"/>
<path d="M911 822 c-7 -14 -7 -23 2 -33 7 -8 11 -13 10 -10 -1 2 8 11 19 21
l22 17 -22 12 c-18 9 -23 8 -31 -7z"/>
<path d="M1520 814 c0 -18 24 -23 43 -9 24 17 21 22 -13 21 -16 -1 -30 -6 -30
-12z"/>
<path d="M210 810 c0 -12 59 -70 71 -70 15 0 10 16 -10 34 -11 10 -18 23 -15
29 2 7 -6 13 -21 13 -14 1 -25 -2 -25 -6z"/>
<path d="M1597 799 c-29 -17 -21 -36 13 -31 32 5 37 13 17 30 -8 7 -18 7 -30
1z"/>
<path d="M317 762 c-9 -2 -17 -8 -17 -13 0 -5 11 -7 25 -3 18 4 25 2 25 -8 0
-8 8 -22 18 -31 22 -20 56 -23 50 -4 -3 6 -9 12 -14 12 -20 0 -34 18 -29 35 6
18 -10 21 -58 12z"/>
<path d="M1642 740 c-24 -20 -22 -40 3 -40 28 0 65 24 65 42 0 24 -38 23 -68
-2z"/>
<path d="M1750 745 c-7 -9 -10 -18 -7 -21 10 -11 37 5 37 21 0 19 -14 19 -30
0z"/>
<path d="M1175 730 c-12 -20 11 -33 39 -24 14 5 27 14 29 19 3 14 -60 19 -68
5z"/>
<path d="M490 701 c20 -38 90 -70 90 -41 0 6 -8 10 -19 10 -22 0 -45 25 -36
40 4 6 -4 10 -20 10 -22 0 -24 -2 -15 -19z"/>
<path d="M605 659 c-15 -7 -9 -8 23 -4 23 3 42 1 42 -3 0 -15 49 -32 90 -32
54 0 51 15 -2 18 -24 2 -48 9 -54 17 -12 17 -68 19 -99 4z"/>
<path d="M866 652 c-8 -13 18 -37 55 -49 45 -16 94 -16 142 1 34 13 38 12 47
-4 9 -17 41 -26 128 -34 31 -3 49 1 68 16 14 11 23 23 20 26 -3 2 -12 -1 -20
-7 -18 -15 -104 -22 -112 -10 -3 5 -18 9 -35 9 -23 0 -29 4 -29 21 0 13 -4 18
-12 13 -12 -7 -20 -9 -114 -20 -52 -6 -114 14 -114 36 0 12 -17 13 -24 2z"/>
<path d="M950 646 c0 -10 9 -16 21 -16 24 0 21 23 -4 28 -10 2 -17 -3 -17 -12z"/>
<path d="M1340 601 c0 -15 23 -28 65 -37 63 -13 88 -13 124 2 30 12 36 12 51
-1 25 -23 32 -5 8 20 -21 22 -22 22 -52 4 -43 -26 -101 -22 -168 12 -22 11
-28 11 -28 0z"/>
<path d="M2130 1409 c-7 -11 -9 -28 -6 -36 4 -9 -1 -24 -10 -34 -19 -21 -12
-49 11 -49 17 0 20 16 5 25 -6 4 -8 11 -4 16 3 5 9 7 14 4 13 -8 21 25 10 45
-7 13 -7 21 1 25 6 4 13 -2 16 -14 7 -26 23 -28 23 -3 0 40 -42 55 -60 21z"/>
<path d="M2190 1355 c0 -3 6 -14 12 -25 11 -16 9 -22 -7 -34 -20 -15 -20 -15
2 -16 27 0 42 42 23 65 -12 15 -30 20 -30 10z"/>
<path d="M2392 1268 c-11 -35 -11 -43 3 -58 13 -14 14 -23 6 -39 -8 -13 -8
-22 -1 -26 13 -8 42 61 37 89 -3 20 -4 20 -14 -4 -10 -22 -12 -23 -18 -7 -4 9
-2 23 3 30 10 12 11 41 1 51 -2 3 -10 -13 -17 -36z"/>
<path d="M2115 1249 c-5 -13 -2 -25 6 -30 17 -10 34 0 21 13 -6 6 -8 17 -5 24
3 8 0 14 -5 14 -6 0 -14 -10 -17 -21z"/>
<path d="M2172 1247 c-8 -9 -2 -21 19 -45 23 -25 31 -29 35 -18 8 20 -3 36
-24 36 -12 0 -13 3 -4 12 7 7 12 16 12 20 0 13 -26 9 -38 -5z"/>
<path d="M2154 1189 c-7 -12 13 -29 34 -29 18 0 15 14 -8 27 -13 9 -21 9 -26
2z"/>
<path d="M2363 1171 c-3 -11 -25 -29 -49 -40 -24 -12 -44 -26 -44 -31 0 -6 -9
-10 -20 -10 -24 0 -27 -18 -4 -27 9 -3 26 5 43 21 15 14 31 26 37 26 29 1 83
80 54 80 -7 0 -14 -9 -17 -19z"/>
<path d="M2234 1159 c-6 -10 12 -29 29 -29 9 0 9 4 1 24 -7 19 -20 21 -30 5z"/>
<path d="M2196 1131 c-7 -10 22 -37 30 -28 9 8 -3 37 -15 37 -5 0 -12 -4 -15
-9z"/>
<path d="M2538 904 c-7 -7 46 -63 54 -58 4 3 5 11 2 19 -7 16 -49 46 -56 39z"/>
<path d="M2504 875 c3 -8 1 -15 -4 -15 -6 0 -10 5 -10 10 0 6 -7 10 -17 10
-14 0 -14 -2 2 -20 10 -11 24 -20 31 -20 7 0 15 -6 17 -12 3 -8 6 -5 6 6 1 12
6 16 16 12 24 -9 17 10 -10 28 -30 20 -39 20 -31 1z"/>
<path d="M2415 871 c-3 -6 3 -14 12 -20 13 -7 14 -10 4 -11 -8 0 -23 7 -33 17
-17 15 -18 15 -18 0 0 -23 57 -52 74 -38 9 7 16 7 24 -1 7 -7 12 -8 12 -3 0 7
-59 65 -66 65 -2 0 -5 -4 -9 -9z"/>
<path d="M2344 838 c7 -32 -13 -39 -21 -8 -6 22 -23 28 -23 8 0 -19 12 -34 38
-47 18 -10 22 -9 22 4 0 18 12 19 28 3 9 -9 12 -8 12 5 0 9 -5 17 -11 17 -6 0
-20 10 -31 23 l-19 22 5 -27z"/>
<path d="M2150 832 c0 -14 60 -76 67 -69 3 4 -1 15 -10 25 -10 10 -17 23 -17
29 0 6 -7 14 -16 17 -21 8 -24 8 -24 -2z"/>
<path d="M2200 831 c0 -6 5 -11 10 -11 6 0 10 -7 10 -15 0 -8 9 -19 20 -25 14
-7 20 -7 20 0 0 5 -3 10 -8 10 -4 0 -12 10 -17 22 -11 23 -35 37 -35 19z"/>
<path d="M2250 830 c0 -14 51 -62 58 -55 3 3 -2 13 -11 23 -10 10 -17 24 -17
30 0 7 -7 12 -15 12 -8 0 -15 -5 -15 -10z"/>
<path d="M2128 800 c9 -16 22 -30 29 -30 8 0 7 9 -5 30 -9 16 -22 30 -29 30
-8 0 -7 -9 5 -30z"/>
<path d="M1850 271 c0 -5 9 -11 20 -14 25 -6 26 -22 3 -32 -44 -18 -189 -35
-308 -35 -188 0 -409 40 -390 71 4 5 2 9 -4 9 -17 0 -23 -20 -11 -36 14 -16
93 -41 155 -49 22 -2 108 -8 190 -11 177 -7 320 7 384 38 l44 21 -29 24 c-30
23 -54 30 -54 14z"/>
</g>
</svg>
