<?xml version="1.0" standalone="no"?>
<!DOCTYPE svg PUBLIC "-//W3C//DTD SVG 20010904//EN"
 "http://www.w3.org/TR/2001/REC-SVG-20010904/DTD/svg10.dtd">
<svg version="1.0" xmlns="http://www.w3.org/2000/svg"
 width="300.000000pt" height="232.000000pt" viewBox="0 0 300.000000 232.000000"
 preserveAspectRatio="xMidYMid meet">
<metadata>
Created by potrace 1.10, written by Peter Selinger 2001-2011
</metadata>
<g transform="translate(0.000000,232.000000) scale(0.100000,-0.100000)"
fill="#000000" stroke="none">
<path d="M1425 1733 c-16 -2 -42 -8 -56 -14 -14 -6 -48 -14 -75 -18 -42 -8
-44 -9 -14 -9 19 -1 62 5 95 13 33 8 95 15 138 15 50 0 76 4 72 10 -6 10 -97
11 -160 3z"/>
<path d="M1625 1720 c3 -5 32 -10 63 -10 32 0 84 -7 115 -15 32 -8 71 -15 86
-15 29 0 74 -12 126 -35 17 -7 46 -16 65 -20 38 -8 96 -42 121 -71 9 -11 22
-35 29 -56 12 -32 11 -40 -4 -63 -10 -15 -15 -29 -13 -32 18 -17 50 108 37
142 -10 25 9 72 38 98 11 11 18 25 16 32 -5 11 6 13 53 8 80 -7 124 -22 151
-50 28 -30 63 -98 55 -107 -4 -3 -1 -6 5 -6 7 0 12 -9 12 -19 0 -11 4 -22 9
-25 11 -7 -3 60 -22 104 -26 60 -97 110 -157 110 -17 0 -47 7 -68 15 -34 15
-38 15 -49 -1 -7 -10 -13 -22 -13 -27 0 -5 -12 -23 -26 -40 -26 -31 -29 -62
-9 -112 4 -11 -2 -6 -13 11 -29 44 -91 90 -142 104 -25 7 -60 19 -78 27 -19 8
-72 21 -118 28 -47 8 -89 17 -94 20 -19 12 -182 17 -175 5z"/>
<path d="M1497 1703 c35 -7 17 -33 -23 -33 -24 0 -34 5 -34 15 0 21 -24 19
-143 -10 -56 -13 -135 -29 -175 -35 -40 -5 -97 -19 -127 -29 -30 -11 -55 -17
-55 -15 0 10 97 45 149 54 85 13 151 32 151 43 0 5 -6 7 -14 4 -8 -3 -32 -9
-53 -13 -21 -4 -42 -10 -48 -14 -5 -4 -29 -8 -53 -9 -48 -2 -157 -54 -215
-102 -72 -60 -86 -142 -36 -215 32 -47 66 -119 51 -110 -5 3 -40 -6 -78 -19
-38 -14 -77 -25 -88 -25 -30 0 -122 -57 -148 -93 -14 -17 -28 -43 -32 -57 -4
-14 -17 -44 -29 -67 -21 -40 -21 -43 -4 -95 24 -77 96 -147 210 -204 71 -36
92 -43 99 -32 8 10 9 9 5 -4 -4 -12 8 -26 44 -48 59 -38 191 -97 237 -106 17
-3 32 -10 32 -14 0 -10 84 -45 150 -61 80 -20 372 -17 470 4 78 17 186 56 160
57 -8 0 21 13 65 28 69 24 122 52 295 157 14 8 63 33 110 55 47 22 96 49 110
59 27 21 20 43 -8 23 -53 -38 -80 -53 -104 -59 -16 -3 -28 -10 -28 -16 0 -6
-3 -7 -7 -4 -3 4 -12 2 -20 -4 -7 -6 -13 -9 -13 -5 0 3 -12 1 -27 -5 -16 -6
-56 -17 -90 -24 -35 -8 -83 -23 -109 -34 -26 -12 -68 -21 -95 -21 -27 0 -81
-11 -121 -24 -64 -20 -98 -24 -266 -29 -107 -2 -213 0 -235 5 -23 5 -85 10
-137 11 -70 2 -118 10 -184 30 -48 15 -110 27 -137 27 -27 0 -57 4 -67 9 -26
13 -86 31 -105 31 -9 0 -21 9 -28 21 -7 15 -18 20 -34 17 -14 -3 -26 2 -34 14
-9 14 -8 18 3 18 8 0 18 -4 21 -10 3 -5 12 -10 18 -10 7 1 2 9 -10 19 -12 10
-19 22 -15 26 4 4 -3 3 -15 -4 -28 -14 -30 -14 -37 5 -4 9 -1 23 5 30 13 16
55 19 64 4 3 -5 12 -10 18 -10 7 0 0 12 -15 25 -16 13 -28 31 -28 40 0 9 -5
13 -11 9 -6 -3 -15 0 -20 7 -7 12 -10 12 -18 1 -7 -11 -9 -10 -15 3 -9 23 -26
9 -27 -23 l-1 -27 -7 25 c-12 38 -4 81 19 105 11 12 20 31 20 43 0 22 26 71
44 84 5 3 16 4 25 1 12 -4 13 -3 3 5 -22 15 33 43 107 54 36 6 80 17 98 24 17
8 33 14 36 14 3 0 11 -26 18 -57 39 -191 125 -349 223 -412 31 -20 40 -31 38
-49 -3 -22 45 -82 67 -82 20 0 11 16 -19 33 -17 11 -30 27 -30 38 0 19 1 19
43 -2 85 -45 96 -49 120 -49 14 0 27 -5 29 -11 2 -7 27 -8 81 -2 43 5 80 7 82
4 9 -8 55 -7 55 2 0 5 16 6 35 3 22 -4 35 -3 35 4 0 5 4 10 10 10 5 0 9 -5 7
-11 -1 -6 5 -14 13 -16 13 -4 13 -3 0 6 -12 8 -10 12 10 19 16 6 32 6 44 0 11
-6 16 -6 13 -1 -7 11 71 58 80 50 8 -9 -23 -48 -54 -68 -34 -23 -23 -25 22 -4
39 19 61 60 44 81 -9 11 -9 14 1 14 23 0 100 73 141 134 22 33 48 61 57 61 11
0 31 28 57 80 47 92 76 118 148 125 42 4 53 9 55 25 2 13 21 28 50 42 93 44
164 101 196 156 24 43 44 147 28 147 -5 0 -12 -23 -15 -51 -8 -67 -46 -129
-104 -171 -51 -37 -92 -60 -58 -34 77 62 98 83 121 121 68 116 13 296 -100
326 -44 12 -122 -3 -111 -21 3 -6 -1 -7 -9 -4 -20 8 -48 -49 -43 -84 3 -15 10
-48 17 -74 10 -40 10 -52 -4 -79 -19 -39 -19 -39 -2 -39 33 0 39 103 11 191
-14 44 44 89 114 89 81 0 140 -88 136 -202 -2 -73 -35 -130 -110 -190 -33 -27
-61 -55 -63 -63 -2 -8 -10 -15 -18 -15 -8 0 -42 -14 -76 -30 -33 -17 -67 -30
-75 -30 -26 0 -83 -72 -105 -132 -13 -38 -26 -58 -37 -58 -11 0 -12 3 -4 8 6
4 14 25 18 47 9 48 51 135 74 152 19 15 84 48 125 63 l29 11 -21 22 c-35 38
-38 71 -6 96 15 11 34 21 43 21 14 0 14 -2 1 -10 -20 -13 -4 -13 21 0 10 6 19
15 19 20 0 16 -35 16 -65 0 -50 -28 -84 -30 -100 -7 -9 13 -11 27 -5 43 5 13
7 24 5 24 -3 0 1 10 9 23 12 17 13 31 5 67 -12 54 -22 66 -70 91 -43 21 -53
24 -44 9 3 -6 -1 -13 -10 -16 -11 -5 -4 -14 30 -35 25 -16 46 -34 46 -41 1 -7
3 -31 5 -53 2 -22 8 -41 13 -43 18 -6 -15 -52 -54 -73 -43 -24 -57 -38 -49
-51 3 -4 1 -8 -5 -8 -5 0 -13 5 -16 10 -4 7 -14 6 -28 -2 -12 -6 -41 -16 -65
-22 -44 -12 -57 -28 -26 -34 9 -2 14 0 10 7 -5 7 4 7 26 -1 46 -15 49 -21 8
-14 -29 5 -31 4 -12 -4 13 -5 35 -7 49 -4 l25 7 -31 13 c-17 7 -31 14 -31 16
0 2 17 4 38 5 28 1 32 -1 17 -7 -11 -5 -15 -9 -8 -9 6 -1 20 -4 30 -7 15 -5
15 -4 3 5 -13 9 -13 11 -1 11 11 0 10 4 -5 16 -19 15 -19 16 1 9 11 -4 26 -10
34 -13 9 -3 12 -1 7 6 -4 7 -2 12 4 12 6 0 9 3 7 8 -3 4 6 15 19 25 28 21 28
22 9 -63 -8 -36 -14 -79 -15 -95 0 -17 -9 -47 -20 -67 -11 -20 -25 -58 -31
-84 -18 -72 -78 -173 -136 -231 -107 -105 -241 -146 -465 -141 -76 2 -133 5
-127 7 6 2 -19 13 -55 25 -173 58 -296 209 -347 423 -11 48 -32 116 -45 151
-13 36 -24 66 -24 67 0 2 9 1 20 -2 11 -3 17 -9 14 -14 -3 -5 5 -13 18 -18 13
-6 17 -10 9 -10 -19 -1 27 -41 47 -41 12 0 12 3 -4 15 -17 13 -17 14 -1 15 9
0 17 -5 17 -11 0 -7 10 -9 25 -7 13 3 22 1 19 -3 -6 -11 24 -11 50 0 18 7 18
8 -5 14 -13 4 -33 7 -44 7 -11 0 -51 16 -88 35 -38 19 -72 33 -76 31 -4 -3
-12 4 -19 15 -17 26 -11 25 75 -21 42 -22 92 -42 112 -46 20 -3 58 -12 84 -20
26 -7 45 -9 42 -4 -4 6 -13 10 -21 10 -8 0 -13 3 -11 8 3 4 7 75 10 157 4 105
3 132 -3 90 -5 -33 -10 -102 -12 -152 -2 -62 -7 -93 -15 -93 -6 0 -10 8 -8 18
2 9 6 46 9 82 4 50 3 61 -5 46 -6 -10 -12 -45 -13 -77 l-1 -59 -44 5 c-40 5
-70 15 -44 15 11 0 11 36 0 46 -4 4 -7 -5 -7 -19 0 -15 -4 -27 -10 -27 -5 0
-8 12 -7 28 2 15 0 38 -5 52 -7 25 -8 25 -4 -2 2 -16 0 -28 -4 -28 -5 0 -6
-10 -3 -22 4 -22 4 -22 -10 -5 -9 10 -18 18 -21 18 -20 -3 -23 2 -21 24 2 14
-1 23 -5 20 -5 -3 -7 -12 -3 -20 3 -9 -1 -15 -10 -15 -10 0 -13 8 -9 25 2 14
9 25 16 25 6 0 4 5 -4 10 -21 14 -30 12 -30 -5 0 -8 -6 -15 -12 -15 -8 0 -5
-7 6 -15 26 -20 6 -19 -22 1 -34 23 -45 50 -30 74 15 24 28 26 28 4 0 -8 -4
-12 -10 -9 -13 8 -13 -15 0 -35 8 -13 11 -12 24 5 8 11 15 31 15 45 0 14 2 34
3 45 2 12 -2 19 -9 17 -18 -3 -16 1 8 21 20 18 21 18 13 -5 -6 -20 -5 -21 9
-10 9 8 13 21 10 29 -4 10 -2 14 4 10 5 -3 10 0 10 8 0 8 -3 15 -5 15 -16 0
-71 -54 -85 -82 -10 -19 -17 -26 -17 -16 0 22 49 78 91 102 19 11 29 14 24 6
-6 -10 -4 -11 11 -5 45 19 129 45 145 45 9 0 20 -6 22 -12 3 -8 6 -6 6 5 1 12
9 17 29 17 20 0 23 -3 12 -9 -8 -6 -18 -7 -22 -5 -4 3 -8 0 -8 -5 0 -19 49
-12 60 9 6 10 17 17 24 14 8 -3 17 -1 21 5 7 13 41 15 48 4 2 -5 3 -3 1 3 -1
7 25 19 61 28 75 19 95 20 95 5 0 -5 -4 -7 -10 -4 -5 3 -10 1 -10 -5 0 -8 -9
-10 -26 -6 -19 5 -24 3 -18 -5 5 -9 1 -10 -14 -7 -12 4 -20 2 -16 -3 3 -5 1
-9 -5 -9 -5 0 -12 6 -14 13 -4 8 -6 7 -6 -4 -1 -20 -68 -54 -68 -33 0 7 4 11
9 8 4 -3 8 0 8 6 0 19 -34 6 -44 -16 -9 -20 -17 -22 -103 -20 -51 0 -93 -2
-93 -6 0 -4 -9 -5 -20 -3 -11 2 -20 -1 -20 -6 0 -6 -4 -7 -10 -4 -5 3 -10 1
-10 -4 0 -6 -7 -11 -15 -11 -8 0 -15 -4 -15 -8 0 -5 26 0 58 11 46 16 73 18
142 13 78 -5 89 -3 129 20 144 81 404 85 569 8 46 -21 73 -26 145 -27 48 -1
87 2 87 6 0 5 -4 5 -10 2 -5 -3 -10 -2 -10 4 0 5 10 11 23 13 16 3 11 7 -23
16 -25 7 -65 19 -90 28 -25 9 -58 18 -75 20 -16 2 -76 11 -131 19 -117 17
-144 18 -144 6 0 -5 16 -7 36 -4 21 3 34 1 31 -4 -9 -14 -104 -16 -112 -3 -5
8 -11 8 -21 -1 -12 -10 -13 -9 -8 5 7 19 31 21 36 4 3 -7 7 -6 11 5 6 15 -1
17 -46 16 -29 -1 -42 -4 -30 -6z m233 -34 c0 -5 5 -7 10 -4 6 4 35 3 66 -1 32
-4 51 -10 44 -14 -7 -4 -26 -4 -43 1 -43 12 -46 3 -3 -11 20 -6 38 -16 41 -21
3 -5 -15 0 -40 11 -26 11 -55 20 -66 20 -10 0 -19 4 -19 9 0 5 -9 7 -20 4 -11
-3 -20 -1 -20 4 0 5 11 10 25 11 14 1 25 -3 25 -9z m173 -60 c-9 -9 -16 -7
-29 6 -14 14 -15 18 -3 26 20 12 48 -16 32 -32z m112 1 c19 -8 19 -8 1 -15
-10 -5 -21 -4 -25 1 -3 5 -10 10 -16 11 -5 1 -19 5 -29 9 -16 6 -18 4 -13 -9
4 -11 1 -17 -9 -17 -12 0 -13 4 -4 21 12 21 39 20 95 -1z m131 -46 c29 -20 58
-70 50 -89 -3 -8 0 -15 7 -18 6 -2 4 -6 -6 -10 -14 -5 -17 -1 -17 22 0 30 -38
76 -71 86 -11 4 -17 11 -14 16 9 13 22 11 51 -7z m84 -274 c5 0 10 -13 10 -29
0 -16 7 -37 17 -46 14 -14 14 -18 2 -26 -8 -5 -19 -9 -25 -9 -5 0 -32 -14 -58
-31 l-49 -30 7 53 c4 29 14 78 22 109 l16 56 23 -23 c13 -13 29 -24 35 -24z
m-1340 -79 c0 -12 -29 -23 -41 -15 -5 3 -7 10 -4 15 8 12 45 12 45 0z m-125
-42 c-11 -4 -39 -12 -63 -18 -23 -7 -58 -26 -77 -42 -19 -17 -35 -27 -35 -23
0 5 -4 3 -9 -5 -5 -8 -11 -9 -15 -3 -18 29 140 114 192 104 24 -5 25 -6 7 -13z
m1400 -557 c-146 -84 -223 -116 -240 -102 -8 7 -20 10 -27 7 -8 -4 -7 -6 5 -6
9 -1 17 -6 17 -12 0 -7 -8 -9 -22 -4 -13 4 -36 9 -53 11 l-30 4 33 -10 c17 -6
32 -13 32 -16 0 -6 -68 4 -80 11 -5 3 -11 1 -14 -4 -4 -5 2 -12 11 -14 26 -7
-112 7 -177 18 -24 4 -30 2 -20 -4 15 -9 70 -19 120 -22 l25 -1 -25 -7 c-14
-4 -43 -3 -65 2 -48 11 -369 1 -393 -12 -28 -16 138 -28 303 -21 64 2 67 3 28
9 -24 4 -46 11 -50 15 -5 5 1 6 12 3 31 -9 185 -12 240 -4 89 13 25 -10 -76
-27 -180 -30 -427 -17 -544 28 -40 16 -40 16 -5 9 38 -8 62 -7 128 3 23 3 42
10 42 15 0 12 -18 11 -80 -2 -27 -6 -56 -9 -63 -6 -6 2 8 9 33 15 l45 10 -38
1 c-21 1 -47 -4 -59 -10 -15 -8 -33 -8 -66 1 -49 12 -237 98 -274 125 -23 17
-23 17 12 12 90 -12 170 -29 223 -47 37 -13 84 -20 135 -20 42 0 107 -7 143
-14 49 -11 85 -12 145 -5 43 6 115 7 160 4 67 -5 98 -2 185 19 57 14 117 26
133 26 24 0 118 28 236 69 62 22 47 7 -45 -47z m-635 -161 c0 -6 -22 -9 -50
-9 -27 1 -47 5 -44 10 7 11 94 10 94 -1z"/>
<path d="M2157 1250 c-3 -13 0 -20 9 -20 8 0 14 6 14 14 0 8 6 17 13 19 6 3 2
6 -9 6 -14 1 -24 -7 -27 -19z"/>
<path d="M2202 1251 c-7 -4 -12 -14 -10 -22 2 -9 -5 -14 -19 -13 -13 0 -23 -3
-23 -7 0 -9 70 -22 78 -15 3 3 -2 6 -11 6 -9 0 -17 5 -17 11 0 6 9 9 20 6 11
-3 20 -1 20 4 0 5 -10 9 -22 9 -21 0 -21 0 -2 15 20 15 9 21 -14 6z"/>
<path d="M1085 521 l-30 -7 34 -7 c45 -9 99 -9 105 1 3 5 -16 7 -42 5 -34 -2
-43 0 -32 7 17 11 10 11 -35 1z"/>
<path d="M1432 1604 c-33 -23 -45 -50 -32 -74 9 -16 8 -20 -5 -20 -15 0 -15
-2 -1 -15 8 -8 20 -15 27 -15 9 0 8 -4 -1 -15 -7 -8 -16 -13 -20 -10 -5 3 -12
0 -15 -6 -4 -5 -13 -8 -21 -5 -7 3 -27 0 -43 -5 -25 -9 -35 -7 -55 8 -14 10
-26 29 -27 43 -2 24 -2 24 -6 2 -3 -13 0 -29 7 -36 8 -10 7 -17 -2 -27 -17
-18 -23 -59 -9 -59 6 0 11 8 11 19 0 10 7 24 15 31 12 10 15 10 15 -4 0 -9 -5
-16 -11 -16 -8 0 -8 -4 -2 -12 5 -7 10 -24 11 -37 1 -31 6 -35 37 -27 18 5 25
12 21 21 -3 8 -1 15 4 15 6 0 10 -5 10 -12 0 -9 3 -9 12 0 8 8 8 15 0 25 -9
10 -8 19 4 35 8 12 19 20 24 17 4 -3 10 0 12 6 2 7 4 -4 4 -25 0 -42 -3 -45
-16 -13 -9 20 -10 20 -7 -7 3 -41 31 -57 54 -30 18 19 28 44 18 44 -2 0 -11
-12 -20 -27 l-16 -28 4 27 c3 18 0 25 -7 22 -6 -3 -3 1 7 9 19 16 24 42 6 31
-7 -4 -10 -1 -7 6 2 7 15 15 27 17 20 3 22 1 11 -11 -15 -19 -5 -36 18 -29 14
3 18 -2 17 -24 0 -23 4 -27 20 -25 22 4 35 19 35 42 0 9 -5 7 -16 -8 -16 -23
-34 -29 -34 -11 0 5 5 7 10 4 6 -3 10 2 11 12 2 44 11 68 39 96 19 19 35 27
46 23 13 -5 14 -9 4 -21 -14 -17 -7 -31 9 -20 6 3 9 11 6 16 -10 15 22 10 35
-6 11 -13 10 -21 -1 -43 -8 -15 -18 -30 -24 -34 -5 -5 5 -5 24 -1 27 5 32 3
26 -7 -5 -9 -4 -11 3 -6 7 4 12 1 12 -9 0 -10 -6 -15 -17 -13 -10 2 -17 10
-15 17 2 9 -3 9 -19 1 -33 -18 -48 3 -24 32 11 13 13 17 5 11 -19 -18 -49 -16
-56 2 -8 19 -20 19 -28 -1 -3 -8 -2 -13 3 -10 13 8 44 -31 35 -45 -4 -7 -3
-10 3 -6 6 4 16 0 22 -7 10 -12 9 -13 -7 -9 -13 3 -25 -3 -36 -18 -16 -23 -47
-35 -43 -17 3 17 -20 20 -27 3 -3 -9 1 -18 9 -21 8 -4 15 -14 15 -23 0 -9 7
-25 15 -35 8 -10 12 -23 9 -27 -6 -11 -141 -11 -204 0 -25 4 -70 4 -100 1 -45
-5 -30 -7 80 -13 185 -10 430 -1 483 19 23 9 65 19 94 24 66 10 151 38 160 52
4 8 0 9 -13 3 -62 -26 -93 -34 -130 -35 -23 0 -72 -11 -108 -25 -53 -20 -85
-25 -157 -25 -85 0 -89 1 -79 19 11 21 4 51 -12 51 -6 0 -6 -6 1 -14 7 -9 8
-17 3 -20 -6 -3 -13 1 -16 10 -5 13 13 49 42 84 2 3 8 -3 13 -13 8 -14 13 -14
23 -4 8 6 12 15 9 20 -2 4 1 7 7 7 6 0 8 5 5 10 -3 6 -2 10 3 10 6 0 12 -6 15
-13 2 -7 19 -14 37 -15 28 -2 31 0 25 20 -4 13 -13 28 -21 34 -8 6 -14 19 -14
29 0 15 3 15 15 5 12 -10 19 -10 27 -2 8 8 7 13 -6 18 -11 4 -15 13 -10 26 4
13 1 18 -8 17 -7 -2 -28 1 -46 5 -26 6 -33 12 -30 29 2 16 11 23 31 25 25 3
40 22 16 22 -5 0 -7 5 -4 10 3 6 -1 10 -10 10 -11 0 -15 -5 -11 -15 3 -9 0
-15 -10 -15 -9 0 -12 5 -8 12 5 8 2 9 -12 3 -10 -4 -27 -7 -37 -7 -16 1 -17
-1 -5 -16 7 -9 18 -20 23 -24 6 -5 6 -8 -2 -8 -16 0 -43 39 -37 55 8 20 -9 25
-26 7 -20 -21 -19 -23 8 -33 30 -11 26 -39 -8 -56 -14 -7 -24 -17 -22 -23 3
-13 -4 -12 -50 1 -21 5 -38 14 -38 20 0 6 6 7 13 3 9 -6 9 -5 0 8 -7 8 -10 18
-6 21 3 4 -1 7 -10 7 -15 0 -15 3 -5 20 7 11 20 20 30 20 19 0 33 16 20 24 -5
3 -18 -2 -30 -10z m-77 -172 c-6 -4 -19 -25 -29 -48 -9 -22 -24 -41 -32 -41
-19 0 -18 5 12 44 14 18 21 33 17 33 -4 0 -1 5 7 10 18 11 40 14 25 2z"/>
<path d="M2348 1601 c-37 -18 -38 -27 -21 -166 8 -60 10 -66 16 -40 5 19 2 49
-8 80 -20 68 -19 91 7 109 47 33 101 15 142 -47 20 -30 26 -35 21 -17 -21 73
-96 112 -157 81z"/>
<path d="M1475 1590 c-3 -11 -13 -20 -21 -20 -8 0 -14 -5 -14 -11 0 -6 7 -8
16 -5 9 3 18 6 20 6 2 0 4 8 4 17 0 14 2 15 13 4 10 -10 9 -15 -4 -24 -8 -7
-18 -21 -22 -31 -6 -16 -5 -17 7 -7 8 7 19 10 25 7 14 -9 21 21 11 48 -5 13
-6 27 -3 30 4 3 -1 6 -10 6 -8 0 -19 -9 -22 -20z"/>
<path d="M1048 1540 c-12 -38 -10 -66 3 -53 6 6 9 26 7 44 -3 32 -3 33 -10 9z"/>
<path d="M1079 1528 c-1 -18 -3 -43 -4 -56 -1 -12 1 -25 5 -27 5 -3 10 22 12
55 1 33 0 60 -4 60 -5 0 -9 -15 -9 -32z"/>
<path d="M1109 1528 c0 -18 -2 -45 -4 -60 -2 -15 1 -30 6 -33 5 -4 9 22 9 59
0 66 -9 95 -11 34z"/>
<path d="M1978 1554 c-5 -4 -8 -30 -7 -58 l1 -51 9 45 c10 49 8 76 -3 64z"/>
<path d="M1675 1531 c2 -9 4 -18 4 -20 1 -2 7 2 15 8 11 9 20 9 35 2 27 -15
31 -14 31 7 0 13 -9 17 -44 18 -35 0 -43 -3 -41 -15z"/>
<path d="M2030 1539 c0 -5 4 -8 8 -5 4 2 14 1 22 -5 11 -6 12 -9 2 -9 -9 0
-11 -7 -7 -20 4 -12 2 -20 -5 -20 -7 0 -10 -6 -7 -14 3 -8 -1 -17 -9 -20 -23
-9 -24 -8 -34 17 -8 18 -9 17 -4 -10 5 -29 3 -33 -15 -33 -12 0 -21 -6 -21
-14 0 -17 28 -41 37 -32 4 4 1 11 -6 15 -11 7 -9 10 7 15 12 4 32 20 46 37 14
16 29 29 34 29 6 0 12 7 16 15 3 8 0 14 -7 12 -7 -1 -12 9 -12 22 0 17 -6 25
-22 27 -13 2 -23 -1 -23 -7z"/>
<path d="M980 1533 c-8 -3 -21 -12 -27 -21 -12 -14 -13 -14 -13 2 0 15 -3 16
-15 6 -14 -11 -13 -14 2 -25 11 -9 25 -10 40 -4 24 9 30 0 12 -18 -14 -14 25
-37 48 -29 13 5 14 4 3 -9 -11 -13 -8 -16 20 -21 20 -5 27 -10 19 -15 -7 -4
-28 3 -50 17 -43 27 -52 18 -33 -35 15 -45 33 -51 28 -10 -4 33 5 35 10 2 2
-10 10 -19 19 -21 12 -2 15 1 11 12 -4 12 -2 15 9 10 10 -3 20 2 27 15 13 25
6 41 -20 41 -14 0 -17 5 -13 21 5 19 3 21 -20 15 -21 -5 -25 -3 -21 9 4 8 2
15 -4 15 -6 0 -8 8 -5 19 5 21 -5 31 -27 24z"/>
<path d="M1291 1521 c-13 -9 -4 -41 11 -41 6 0 8 7 4 15 -3 8 -1 15 4 15 6 0
10 -6 10 -14 0 -8 6 -17 13 -19 6 -3 2 -6 -10 -6 -12 -1 -25 -5 -28 -11 -5 -9
83 -3 94 6 2 2 -4 13 -13 23 -22 24 -69 42 -85 32z"/>
<path d="M1746 1495 c-11 -8 -17 -18 -13 -21 4 -4 14 -1 22 6 12 10 21 10 41
1 29 -13 44 -14 44 -3 0 7 -58 33 -71 32 -2 0 -13 -7 -23 -15z"/>
<path d="M2130 1490 c8 -5 12 -10 10 -12 -3 -2 -14 -8 -24 -14 -37 -20 -82
-104 -56 -104 6 0 13 13 16 29 4 18 11 28 18 25 7 -3 18 7 24 21 7 14 19 28
27 31 12 5 13 9 4 20 -6 8 -17 14 -23 14 -6 0 -4 -4 4 -10z"/>
<path d="M2261 1455 c-1 -27 -7 -46 -21 -58 -34 -29 -21 -73 18 -60 10 4 9 8
-4 18 -16 11 -16 15 5 49 19 29 21 41 13 64 -10 26 -10 26 -11 -13z"/>
<path d="M2508 1438 c-8 -71 -40 -130 -88 -163 -47 -32 -71 -32 -92 3 l-17 27
-1 -39 c0 -30 3 -37 16 -32 8 3 12 2 9 -4 -3 -6 -2 -10 4 -10 5 0 13 5 16 10
3 6 13 10 21 10 32 0 94 56 120 106 19 39 24 64 22 100 l-3 49 -7 -57z"/>
<path d="M880 1470 c0 -5 10 -10 21 -10 12 0 28 -8 35 -17 23 -30 15 -38 -11
-13 -20 18 -28 21 -37 12 -9 -9 -9 -15 1 -24 10 -11 11 -9 5 6 -5 14 -3 17 7
14 8 -3 14 -11 14 -19 0 -8 6 -20 13 -28 8 -8 12 -25 9 -38 -2 -12 0 -23 4
-23 10 0 10 -2 14 59 2 24 9 47 16 51 8 6 2 13 -19 24 -35 18 -72 21 -72 6z"/>
<path d="M2138 1436 c-12 -27 -4 -61 12 -51 8 5 11 75 2 75 -1 0 -7 -11 -14
-24z"/>
<path d="M2023 1383 c-7 -2 -13 -14 -13 -24 0 -23 15 -17 30 12 11 19 6 22
-17 12z"/>
<path d="M2120 1349 c-19 -10 -41 -19 -49 -19 -8 0 -12 -3 -8 -6 8 -9 73 15
87 32 16 18 13 17 -30 -7z"/>
<path d="M1640 1347 c0 -10 -4 -15 -10 -12 -15 9 -12 -11 4 -24 11 -9 15 -7
19 8 2 10 1 25 -4 32 -7 11 -9 10 -9 -4z"/>
<path d="M1067 1333 c-11 -10 -8 -53 3 -53 6 0 10 14 10 30 0 31 -2 35 -13 23z"/>
<path d="M1150 1285 c0 -19 5 -35 10 -35 6 0 10 16 8 35 -1 19 -6 35 -10 35
-4 0 -8 -16 -8 -35z"/>
<path d="M1206 1295 c-4 -14 -11 -25 -16 -25 -6 0 -10 -5 -10 -11 0 -6 10 -9
22 -7 17 2 22 10 23 36 2 38 -10 43 -19 7z"/>
<path d="M1422 1312 c-20 -6 -14 -18 15 -31 19 -9 29 -9 31 -2 2 6 8 9 12 6 5
-3 11 -2 14 3 5 9 -56 30 -72 24z"/>
<path d="M1812 1224 c-18 -8 -74 -17 -125 -19 -50 -3 -123 -8 -162 -11 -127
-9 -145 -10 -145 -1 0 5 -42 8 -92 7 -110 -1 -151 2 -159 13 -3 5 -38 -1 -78
-13 -40 -12 -70 -25 -67 -27 3 -3 25 2 50 10 26 9 46 11 46 6 0 -5 -15 -12
-32 -16 -32 -7 -32 -7 -8 -14 34 -10 60 -10 36 0 -15 6 -4 11 42 21 35 7 65
10 68 7 3 -3 -13 -8 -35 -12 -23 -4 -43 -10 -46 -15 -2 -4 23 -1 58 6 34 7 78
13 97 13 22 -1 1 -8 -55 -19 -109 -22 -84 -25 40 -5 58 9 141 13 233 10 145
-3 173 -1 94 8 -23 2 -46 8 -50 12 -4 4 11 5 33 2 22 -4 48 -7 58 -7 9 0 17
-7 17 -15 0 -9 9 -15 23 -15 18 0 19 2 7 10 -21 13 20 13 79 -1 31 -7 60 -6
100 2 l56 12 -30 14 -30 13 35 -5 35 -5 -32 15 c-39 18 -44 29 -7 15 20 -8 25
-7 22 2 -6 18 -38 19 -76 2z m3 -38 c28 -8 43 -15 35 -15 -8 -1 -30 3 -48 8
-20 6 -32 6 -32 0 0 -5 10 -10 23 -10 12 -1 15 -3 7 -5 -8 -2 -40 3 -70 11
-51 14 -52 14 -12 9 28 -3 41 -1 37 6 -8 13 0 12 60 -4z"/>
<path d="M2031 1169 c-19 -8 -21 -12 -11 -24 7 -8 8 -15 3 -15 -15 0 -11 -29
5 -35 8 -3 17 -3 20 0 3 3 0 5 -6 5 -16 0 -15 30 1 30 7 0 3 8 -8 17 -15 12
-16 14 -3 10 9 -3 22 1 28 9 14 16 6 17 -29 3z"/>
<path d="M2462 1146 c15 -14 45 -54 68 -90 34 -56 40 -75 40 -120 0 -51 -2
-57 -41 -89 -43 -37 -38 -62 6 -33 40 26 57 61 57 118 1 57 -16 101 -51 132
-12 11 -21 25 -21 32 0 12 -65 74 -78 74 -4 0 5 -11 20 -24z"/>
<path d="M1305 1152 c-22 -2 -44 -8 -50 -14 -7 -8 -4 -9 10 -4 24 9 331 10
345 1 6 -3 10 -2 10 3 0 6 -44 12 -97 15 -96 6 -136 5 -218 -1z"/>
<path d="M2400 1155 c0 -4 9 -20 21 -36 11 -16 23 -45 26 -64 4 -26 11 -35 25
-35 10 0 24 -11 30 -25 10 -23 12 -23 24 -7 24 31 17 -61 -7 -103 -28 -47 -18
-57 11 -10 32 51 36 103 11 142 -13 21 -26 31 -35 27 -9 -3 -23 2 -33 12 -17
17 -17 17 10 10 29 -7 36 4 13 23 -11 9 -15 9 -19 -1 -3 -7 -6 -3 -6 8 -1 24
-31 56 -31 34 0 -8 -3 -10 -7 -6 -5 4 -8 13 -8 19 0 5 -6 12 -12 15 -7 2 -13
1 -13 -3z"/>
<path d="M757 1132 c-5 -7 -6 -21 -2 -31 5 -16 2 -19 -17 -15 -13 2 -17 1 -9
-2 21 -10 52 -44 40 -44 -5 0 -7 -6 -3 -12 5 -9 2 -9 -9 1 -15 12 -17 11 -17
-2 0 -9 5 -19 10 -22 6 -4 8 -11 5 -16 -4 -5 -1 -9 5 -9 7 0 10 7 6 15 -3 8
-1 15 4 15 6 0 10 -13 10 -30 0 -16 -5 -30 -11 -30 -6 0 -9 -9 -6 -19 3 -12
-1 -22 -10 -25 -10 -4 -13 -2 -10 8 4 10 1 13 -9 9 -12 -4 -13 -1 -4 22 7 17
7 32 0 43 -10 19 -13 11 -10 -30 1 -24 -2 -28 -24 -28 -14 0 -26 -5 -26 -11 0
-7 10 -9 24 -7 22 4 23 2 21 -31 -1 -20 -1 -28 2 -18 6 24 16 21 35 -13 9 -17
24 -30 33 -30 22 0 19 10 -12 42 -31 32 -18 38 17 8 27 -24 50 -26 50 -5 0 8
-7 15 -15 15 -8 0 -15 4 -15 9 0 5 -8 12 -17 14 -10 3 -4 5 13 6 19 1 34 -5
37 -13 3 -7 18 -16 34 -19 15 -3 43 -9 62 -14 l34 -8 -31 -30 c-34 -32 -45
-60 -12 -30 19 18 20 17 20 -3 0 -12 5 -22 11 -22 7 0 9 10 5 26 -6 23 -5 24
14 14 11 -6 20 -7 20 -1 0 5 -7 11 -15 15 -20 7 -19 26 2 26 15 0 15 1 -1 13
-10 8 -29 12 -42 9 -25 -5 -33 12 -11 22 6 3 -7 4 -30 1 -47 -6 -56 5 -20 23
14 7 17 11 7 12 -9 0 -2 12 20 30 34 28 35 29 15 44 -11 8 -17 18 -13 22 11
10 -23 33 -49 34 -39 0 -55 11 -42 26 10 12 9 13 -5 8 -10 -4 -15 -13 -12 -21
3 -8 6 -18 6 -22 0 -5 11 -7 25 -6 14 2 28 -1 31 -7 4 -6 10 -5 16 3 8 11 9
11 5 -1 -2 -8 5 -26 17 -39 18 -20 18 -23 4 -18 -13 5 -18 1 -18 -13 0 -13 -7
-20 -18 -20 -10 0 -24 -6 -31 -12 -10 -11 -12 -10 -9 2 2 8 -3 14 -11 15 -23
0 -37 31 -22 49 16 19 45 22 35 4 -6 -10 -4 -10 7 0 19 18 -4 40 -25 23 -12
-10 -17 -7 -30 21 -8 18 -16 47 -18 63 -2 20 -6 26 -11 17z"/>
<path d="M1570 1093 c8 -3 21 -13 28 -22 8 -9 11 -10 7 -3 -4 8 3 12 21 12 41
0 23 10 -27 15 -24 2 -37 1 -29 -2z"/>
<path d="M1859 1073 c0 -27 -1 -27 -9 -5 -5 12 -14 22 -20 22 -13 0 -13 -17 0
-25 13 -8 13 -25 0 -25 -5 0 -16 12 -24 28 -8 15 -15 21 -16 15 0 -7 -7 -13
-15 -13 -25 0 -17 -17 16 -32 27 -13 28 -16 12 -23 -10 -5 -21 -8 -25 -7 -3 1
-9 -6 -13 -16 -3 -9 -3 -13 1 -9 4 4 13 -1 20 -11 12 -16 13 -15 14 5 0 12 5
25 11 29 8 4 9 -3 4 -25 -7 -34 0 -38 30 -14 16 13 17 15 3 10 -21 -7 -23 4
-6 21 9 9 9 12 -1 12 -7 0 -9 5 -5 11 4 8 9 8 17 0 16 -16 27 -13 20 6 -4 10
-2 14 5 9 6 -3 13 -2 16 3 3 5 -1 11 -9 15 -8 3 -12 12 -9 20 3 8 1 17 -5 21
-7 4 -11 -5 -12 -22z"/>
<path d="M1980 1089 c0 -5 8 -9 18 -9 10 0 13 -3 7 -8 -10 -6 -11 -18 -6 -39
3 -9 19 27 20 43 1 7 -8 14 -19 17 -11 3 -20 1 -20 -4z"/>
<path d="M1239 1083 c0 -5 -2 -15 -4 -24 -2 -12 4 -16 21 -15 13 0 24 6 24 11
0 12 -40 39 -41 28z"/>
<path d="M695 1060 c-3 -5 -4 -14 -1 -19 3 -5 -1 -11 -9 -15 -11 -4 -13 -14
-9 -38 9 -48 24 -58 20 -14 -1 25 2 40 11 43 7 3 11 9 8 13 -3 5 -1 11 5 15
11 7 4 25 -10 25 -5 0 -12 -4 -15 -10z"/>
<path d="M1121 1046 c-6 -6 -8 -22 -4 -34 4 -17 1 -22 -16 -22 -18 0 -19 -3
-11 -25 7 -19 6 -23 -4 -19 -8 3 -17 1 -21 -5 -3 -6 -1 -11 5 -11 7 0 10 -7 6
-15 -3 -8 -2 -15 2 -15 11 0 37 33 38 48 2 29 5 33 16 26 7 -5 9 -1 6 12 -3
11 1 25 9 32 7 7 13 17 13 21 0 15 -28 20 -39 7z"/>
<path d="M1310 1022 c0 -38 -22 -73 -37 -58 -3 3 0 6 7 6 7 0 11 2 8 5 -11 11
-58 -7 -58 -22 0 -8 4 -12 9 -9 5 4 11 0 14 -6 6 -19 55 9 63 36 4 12 13 29
22 39 9 11 11 17 4 17 -7 0 -11 5 -9 11 1 6 -4 14 -10 16 -9 3 -13 -7 -13 -35z"/>
<path d="M1496 1053 c-2 -3 -2 -11 1 -19 3 -9 -2 -14 -16 -14 -24 0 -28 -15
-6 -24 8 -3 15 -15 15 -26 0 -11 7 -20 15 -20 8 0 15 -9 15 -20 0 -11 5 -20
10 -20 6 0 8 -13 5 -30 -4 -25 -2 -30 20 -36 15 -4 32 -1 41 6 10 9 18 10 26
2 14 -14 1 -33 -17 -26 -12 5 -12 1 1 -26 15 -29 17 -30 33 -16 10 9 21 13 25
9 4 -4 4 1 0 12 -4 11 -12 23 -18 27 -8 5 -7 8 1 8 6 0 20 -11 31 -25 19 -23
60 -37 47 -15 -3 6 -1 10 4 10 6 0 11 4 11 9 0 5 -9 7 -20 4 -11 -3 -17 -10
-13 -16 4 -6 1 -7 -7 -2 -10 6 -9 12 8 25 14 11 19 24 16 38 -7 23 22 37 59
28 12 -3 16 -3 9 0 -6 3 -10 10 -6 15 8 14 40 11 54 -6 10 -12 8 -16 -11 -23
l-23 -9 26 -5 c14 -3 25 0 25 6 -1 33 5 44 23 49 11 3 20 11 20 18 0 10 -3 10
-12 1 -20 -20 -32 -13 -13 8 10 11 15 23 11 27 -4 5 -12 0 -17 -9 -16 -28 -50
-43 -60 -27 -6 10 -11 11 -16 3 -5 -6 -19 -15 -32 -19 -18 -5 -22 -4 -16 6 5
8 -1 5 -13 -5 -14 -12 -22 -14 -22 -7 0 7 -7 20 -16 28 -13 14 -17 14 -25 2
-7 -11 -9 -10 -10 6 0 13 -4 8 -10 -13 -9 -29 -13 -33 -35 -28 -13 4 -24 2
-24 -4 0 -5 12 -10 27 -10 25 0 26 -2 12 -15 -23 -23 -72 -24 -77 -2 -2 10 2
16 9 15 6 -2 15 9 20 25 8 31 -6 38 -16 7 -3 -11 -10 -20 -15 -20 -11 0 -20
38 -13 56 6 17 30 18 35 2 3 -7 12 -4 27 11 20 20 20 22 4 21 -32 -4 -40 0
-51 24 -10 22 -45 40 -56 29z m54 -42 c14 -27 -20 -42 -42 -19 -17 17 -17 18
5 19 12 0 16 3 10 6 -7 2 -13 9 -13 14 0 13 30 -1 40 -20z m140 -91 c-13 -8
-12 -10 3 -10 9 0 17 -5 17 -11 0 -7 -8 -18 -17 -25 -17 -13 -17 -13 0 -14 17
0 25 -20 8 -20 -6 0 -13 5 -16 10 -3 6 -17 10 -30 10 -23 0 -23 1 -10 27 14
27 33 43 50 43 6 0 3 -5 -5 -10z"/>
<path d="M2195 1050 c4 -6 11 -8 16 -5 5 4 9 -1 9 -9 0 -19 -21 -21 -39 -3
-11 10 -13 10 -7 0 4 -8 1 -13 -8 -13 -9 0 -16 -5 -16 -11 0 -6 9 -8 20 -4 11
4 20 3 19 -2 -3 -20 2 -25 16 -13 12 10 15 7 21 -13 4 -18 11 -24 22 -20 10 4
13 2 8 -5 -11 -18 -36 -14 -36 6 0 13 -2 14 -9 3 -6 -9 -11 -10 -15 -2 -4 6
-12 11 -18 11 -6 0 -3 -9 7 -20 10 -11 24 -20 32 -20 7 0 13 -5 13 -12 0 -6 9
-2 20 10 26 28 34 28 27 1 -3 -12 -2 -18 2 -13 14 16 20 81 8 93 -15 15 -2 14
22 -1 15 -9 26 -9 45 0 14 6 34 9 43 6 16 -5 16 -4 0 6 -10 7 -21 9 -24 6 -4
-3 -15 1 -25 11 -10 9 -18 12 -18 7 0 -5 -4 -4 -8 2 -5 8 -14 9 -32 1 -40 -16
-51 -16 -57 -1 -3 8 -14 14 -25 14 -10 0 -16 -5 -13 -10z m73 -57 c4 -29 -23
-31 -38 -4 -15 28 -13 33 13 29 14 -2 23 -11 25 -25z"/>
<path d="M1920 1044 c0 -3 15 -12 33 -20 31 -15 32 -15 4 -11 -37 6 -21 -10
18 -18 20 -4 26 -3 17 3 -8 5 -13 13 -12 17 1 5 -12 14 -29 21 -17 7 -31 11
-31 8z"/>
<path d="M1410 999 c0 -5 -4 -7 -10 -4 -17 10 -70 -24 -70 -45 0 -11 5 -20 11
-20 6 0 8 9 4 20 -4 11 -2 20 4 20 6 0 11 -7 11 -15 0 -8 5 -15 11 -15 6 0 9
-7 5 -15 -3 -8 -1 -15 4 -15 6 0 10 5 10 11 0 5 5 7 10 4 6 -3 10 -2 10 4 0 5
9 13 20 16 11 4 18 11 15 16 -4 5 -2 9 3 9 10 0 22 -23 22 -41 0 -5 -8 -9 -18
-9 -11 0 -18 -7 -18 -20 0 -36 36 -20 43 20 5 26 -31 90 -49 90 -10 0 -18 -5
-18 -11z m-2 -25 c26 -7 29 -19 6 -28 -8 -3 -22 0 -30 8 -25 25 -18 31 24 20z"/>
<path d="M1138 970 c-14 -16 -15 -20 -2 -31 8 -6 14 -23 14 -38 1 -24 2 -24
14 -8 13 17 32 24 22 8 -4 -5 3 -7 15 -4 14 4 17 8 9 13 -9 6 -9 9 -1 15 9 5
9 10 0 21 -6 7 -15 11 -20 8 -5 -3 -9 3 -9 12 0 16 -1 16 -16 -2 -15 -18 -15
-18 -9 4 7 26 5 26 -17 2z"/>
<path d="M2398 979 c-7 -4 -16 -5 -20 -3 -4 3 -8 1 -8 -5 0 -6 -8 -8 -17 -4
-11 4 -15 2 -10 -3 10 -11 58 -13 51 -3 -4 8 0 9 69 11 20 1 35 4 32 7 -9 8
-84 8 -97 0z"/>
<path d="M2510 938 c0 -12 -6 -29 -14 -37 -7 -9 -17 -27 -20 -41 -5 -18 0 -14
18 15 23 35 35 85 21 85 -3 0 -5 -10 -5 -22z"/>
<path d="M2454 935 c-4 -8 -4 -24 -1 -35 4 -17 0 -20 -32 -20 -43 0 -93 -33
-66 -43 8 -4 21 3 30 16 11 15 18 18 23 10 5 -7 13 -9 21 -3 8 4 20 6 26 4 11
-5 25 36 25 72 0 19 -19 18 -26 -1z"/>
<path d="M1960 930 c12 -7 8 -10 -15 -11 -16 0 -39 -4 -50 -9 -14 -6 -7 -8 25
-7 44 2 64 13 54 29 -3 4 -11 8 -17 8 -7 0 -6 -4 3 -10z"/>
<path d="M2118 929 c-32 -18 -19 -28 18 -13 33 14 38 13 62 -2 l27 -17 -19 21
c-20 23 -59 28 -88 11z"/>
<path d="M1496 903 c-5 -19 -17 -33 -39 -43 -27 -12 -29 -15 -12 -18 10 -2 21
0 23 6 2 6 10 8 18 5 8 -3 17 3 21 13 3 11 10 21 14 24 4 3 1 13 -6 23 -12 17
-14 16 -19 -10z"/>
<path d="M2350 916 c0 -18 38 -28 60 -16 10 5 20 6 24 3 3 -3 6 2 6 12 0 13
-3 15 -13 6 -8 -6 -17 -8 -20 -4 -4 3 -7 1 -7 -6 0 -10 -7 -9 -25 3 -20 13
-25 14 -25 2z"/>
<path d="M1319 908 c-1 -7 -1 -16 0 -20 0 -3 -14 -2 -32 3 -42 12 -60 11 -52
-1 8 -13 -20 -41 -54 -57 -20 -9 -22 -12 -8 -12 22 -1 77 27 94 49 15 19 18
-2 4 -29 -11 -20 -4 -61 11 -61 5 0 8 12 7 28 -4 51 0 59 33 66 36 7 49 0 28
-15 -11 -8 -9 -9 8 -4 23 7 23 7 7 -19 -16 -24 -16 -28 -1 -51 21 -32 36 -32
36 1 0 14 4 23 9 19 13 -7 24 12 15 26 -4 8 -13 4 -25 -12 -14 -18 -19 -20
-19 -8 0 9 9 28 20 42 15 19 17 28 8 33 -6 4 -13 3 -15 -3 -2 -6 -15 0 -28 13
-26 26 -44 31 -46 12z"/>
<path d="M2082 869 c-13 -5 -27 -7 -31 -5 -13 8 -33 -52 -23 -70 20 -36 128
-19 118 19 -2 9 0 17 4 17 17 0 2 35 -16 38 -11 2 -15 0 -9 -5 6 -4 10 -20 10
-34 1 -22 -4 -25 -34 -28 -19 -1 -39 -5 -45 -8 -6 -4 -5 1 3 10 12 15 12 17
-2 12 -8 -4 -18 0 -23 7 -4 7 -4 10 1 6 4 -4 14 0 22 8 14 13 17 13 29 -3 7
-10 14 -16 15 -13 3 10 8 60 6 59 -1 0 -13 -4 -25 -10z"/>
<path d="M1920 862 c-24 -4 -24 -5 -5 -13 14 -7 8 -8 -20 -4 -29 4 -36 3 -25
-4 12 -9 9 -11 -15 -12 -29 -1 -29 -1 -5 -8 14 -4 41 -10 60 -14 l35 -6 -29
13 -29 13 38 7 c25 5 34 10 26 16 -11 6 -11 9 0 13 17 6 4 6 -31 -1z"/>
<path d="M2414 832 c-18 -13 -18 -14 4 -7 12 3 22 2 22 -3 0 -11 -24 -22 -47
-22 -9 0 -35 -18 -59 -40 -51 -47 -48 -50 13 -14 27 16 41 30 36 37 -4 8 -1 7
10 -1 20 -17 48 -9 64 17 25 39 -5 62 -43 33z"/>
<path d="M1506 794 c-4 -10 -14 -14 -25 -11 -10 2 -25 1 -32 -4 -9 -6 0 -9 26
-9 34 0 41 4 42 20 2 24 -3 26 -11 4z"/>
<path d="M1175 790 c3 -5 -1 -10 -10 -10 -9 0 -15 -6 -13 -12 6 -17 58 -22 99
-9 29 8 24 9 -31 5 -60 -4 -63 -3 -36 10 23 11 25 14 11 19 -23 9 -27 9 -20
-3z"/>
<path d="M1780 770 c0 -4 12 -10 28 -13 15 -3 35 -9 45 -12 9 -4 17 -3 17 2 0
5 -20 14 -45 20 -25 6 -45 7 -45 3z"/>
<path d="M1780 741 c25 -14 70 -22 70 -12 0 4 -14 11 -31 15 -42 8 -57 7 -39
-3z"/>
<path d="M1705 732 c12 -12 125 -32 125 -22 0 4 -19 10 -42 14 -24 4 -54 10
-68 13 -17 4 -22 2 -15 -5z"/>
<path d="M1994 713 c3 -8 6 -19 6 -24 0 -5 8 -10 18 -10 9 -1 4 -4 -12 -8 -16
-3 -31 -11 -33 -18 -4 -12 33 -7 52 8 6 4 17 4 25 -1 20 -13 33 -12 25 1 -4 6
3 21 16 35 12 13 19 27 15 31 -4 5 -19 -5 -32 -21 -21 -24 -29 -27 -47 -18
-19 9 -19 11 -4 11 23 1 14 17 -14 24 -15 4 -19 2 -15 -10z"/>
<path d="M1670 711 c0 -6 12 -11 28 -11 15 0 42 -4 59 -9 18 -5 35 -6 38 -1 3
4 -12 11 -33 14 -20 4 -49 9 -64 12 -17 3 -28 1 -28 -5z"/>
<path d="M1496 699 c2 -3 45 -9 96 -12 51 -4 111 -9 133 -12 37 -5 38 -4 10 5
-34 12 -245 28 -239 19z"/>
<path d="M1265 690 c-4 -6 19 -7 62 -3 89 8 93 13 10 13 -36 0 -69 -4 -72 -10z"/>
<path d="M1305 670 c-15 -7 -10 -9 23 -9 23 -1 42 4 42 9 0 12 -37 12 -65 0z"/>
<path d="M1395 674 c47 -7 223 -9 219 -2 -3 4 -58 7 -122 7 -64 -1 -108 -3
-97 -5z"/>
<path d="M1380 650 c-24 -6 -24 -7 7 -11 18 -3 37 -1 43 5 8 8 13 7 19 -2 6
-10 31 -12 107 -7 114 8 134 14 48 16 -32 1 -90 3 -129 4 -38 1 -81 -1 -95 -5z"/>
</g>
</svg>
