<?xml version="1.0" standalone="no"?>
<!DOCTYPE svg PUBLIC "-//W3C//DTD SVG 20010904//EN"
 "http://www.w3.org/TR/2001/REC-SVG-20010904/DTD/svg10.dtd">
<svg version="1.0" xmlns="http://www.w3.org/2000/svg"
 width="1280.000000pt" height="827.000000pt" viewBox="0 0 1280.000000 827.000000"
 preserveAspectRatio="xMidYMid meet">
<metadata>
Created by potrace 1.15, written by Peter Selinger 2001-2017
</metadata>
<g transform="translate(0.000000,827.000000) scale(0.100000,-0.100000)"
fill="#000000" stroke="none">
<path d="M1870 8264 c-171 -12 -284 -26 -303 -38 -15 -9 -69 -16 -167 -19
-140 -5 -150 -7 -284 -52 -106 -35 -148 -45 -174 -40 -24 4 -39 2 -52 -10 -10
-9 -21 -15 -26 -13 -18 5 -121 -36 -189 -75 -81 -46 -137 -67 -174 -67 -18 0
-39 -12 -62 -36 -46 -49 -138 -119 -183 -141 -26 -12 -42 -29 -56 -61 -11 -24
-49 -87 -84 -141 -144 -217 -150 -288 -39 -462 38 -60 73 -127 81 -159 12 -42
15 -134 17 -401 3 -376 11 -452 56 -586 16 -48 29 -108 29 -134 0 -33 9 -64
30 -104 16 -31 41 -94 55 -139 l26 -82 49 -17 c27 -10 72 -36 100 -60 95 -77
141 -106 178 -113 20 -3 105 -35 189 -71 84 -35 178 -69 210 -75 32 -5 78 -17
103 -25 167 -54 219 -72 247 -86 24 -13 60 -17 145 -17 66 -1 128 -6 149 -14
21 -7 43 -9 51 -5 8 5 32 3 54 -3 66 -20 765 -16 958 5 87 10 160 16 161 15 1
-2 10 -25 19 -53 14 -38 29 -59 69 -90 37 -29 53 -50 59 -75 4 -19 12 -152 18
-294 5 -143 12 -267 15 -277 3 -9 9 -76 13 -148 8 -123 10 -134 38 -174 67
-96 173 -138 491 -192 246 -42 235 -39 275 -73 29 -25 39 -27 122 -28 80 0
100 -4 166 -33 52 -23 90 -33 125 -33 28 0 91 -6 140 -14 50 -8 112 -14 138
-14 33 0 62 -8 90 -24 64 -38 133 -62 315 -112 92 -25 200 -61 241 -80 41 -19
88 -34 105 -34 65 0 108 -13 115 -33 5 -12 10 -16 14 -10 7 11 204 -60 403
-147 63 -28 135 -55 160 -60 24 -6 53 -19 63 -29 11 -11 40 -23 65 -26 30 -5
46 -12 46 -22 0 -8 4 -11 10 -8 5 3 27 -3 49 -15 22 -11 52 -20 67 -20 14 0
40 -12 58 -27 40 -34 87 -53 129 -53 22 0 49 -11 76 -30 27 -20 71 -37 128
-50 63 -15 95 -28 120 -50 25 -22 44 -30 73 -30 29 0 48 -8 72 -28 33 -29 224
-108 329 -137 31 -8 62 -22 69 -30 9 -11 33 -15 94 -15 68 0 91 4 134 26 l52
26 0 219 c0 146 3 218 10 214 6 -3 14 3 18 15 9 23 119 77 176 87 31 5 37 0
112 -88 84 -99 226 -274 283 -349 40 -51 168 -170 197 -181 10 -4 47 -8 80 -8
42 -1 66 -6 74 -16 7 -8 18 -15 24 -15 7 0 28 -8 49 -19 31 -16 44 -17 83 -9
33 7 54 7 72 -2 21 -9 27 -8 34 4 5 9 17 16 27 16 10 0 24 7 31 15 7 8 25 15
41 15 15 0 82 20 149 45 67 25 130 45 141 45 11 0 40 16 64 35 41 34 127 65
179 65 13 0 31 9 42 21 26 29 92 61 194 94 97 32 195 78 226 107 19 17 22 17
28 3 5 -15 10 -13 37 9 17 14 41 26 53 26 13 0 35 11 50 25 15 14 35 25 44 25
10 0 42 15 72 34 92 58 114 69 145 72 64 7 71 10 88 31 10 13 56 34 115 54
122 40 147 53 199 100 24 22 52 39 64 39 12 0 36 9 53 19 17 11 54 25 81 32
49 11 149 61 160 80 4 5 18 9 33 9 15 0 61 21 102 46 41 24 86 47 100 50 29 6
33 8 90 51 31 24 54 33 82 33 21 0 38 4 38 9 0 5 17 20 38 32 20 13 38 27 40
31 2 4 8 8 13 8 5 0 60 20 122 44 62 24 133 47 158 51 36 5 49 13 57 30 6 13
26 32 44 41 18 9 34 17 35 18 3 3 103 436 113 494 12 71 17 267 7 298 -4 11
-32 38 -63 59 -58 40 -144 129 -144 149 1 16 202 108 222 101 9 -4 18 0 21 9
3 8 24 24 47 36 33 17 40 18 40 5 0 -8 5 -15 10 -15 6 0 10 9 10 20 0 14 7 20
24 20 14 0 38 11 54 25 19 16 42 25 63 25 43 0 66 24 134 140 65 108 89 177
82 233 -14 130 -41 268 -60 307 -20 40 -31 49 -112 89 -55 27 -109 46 -140 49
-39 4 -62 14 -105 47 -82 63 -133 85 -208 92 -37 3 -78 11 -92 18 -17 8 -33
10 -49 4 -16 -6 -28 -5 -38 3 -10 8 -43 11 -93 10 -65 -2 -91 3 -156 27 -75
27 -309 64 -419 65 -22 1 -44 6 -50 12 -5 7 -61 17 -124 23 -62 7 -131 18
-152 25 -28 10 -40 10 -44 2 -3 -8 -7 -7 -11 2 -8 16 -29 15 -44 -3 -11 -13
-14 -13 -27 0 -10 11 -38 15 -97 15 -70 0 -99 6 -199 41 -105 36 -121 39 -152
29 -27 -9 -39 -8 -57 3 -13 9 -59 17 -109 20 -52 3 -98 11 -118 22 -30 15 -34
15 -50 1 -10 -9 -21 -12 -27 -7 -5 5 -45 17 -89 25 -44 9 -91 19 -105 22 -14
3 -72 11 -130 18 -58 8 -139 25 -180 40 -116 41 -172 53 -348 76 -90 11 -209
32 -265 45 -56 13 -146 29 -200 35 -76 8 -112 17 -160 42 -48 24 -73 31 -112
29 -34 -2 -77 7 -135 27 -118 42 -156 46 -214 27 -29 -10 -51 -13 -55 -7 -3 5
-17 15 -30 22 -19 9 -25 9 -31 0 -19 -31 -41 -195 -55 -414 -13 -204 -18 -243
-33 -260 -10 -12 -31 -42 -45 -67 -30 -52 -61 -71 -152 -89 -63 -13 -108 -32
-137 -58 -16 -14 -19 -12 -32 19 -34 83 -28 227 15 310 16 32 17 45 9 90 -6
28 -10 134 -10 234 0 130 -4 195 -15 231 -25 85 -25 85 -140 73 -55 -6 -130
-21 -166 -33 -49 -16 -73 -19 -88 -12 -17 7 -24 5 -35 -9 -11 -15 -22 -17 -64
-12 -38 4 -67 1 -109 -14 -32 -11 -124 -36 -205 -55 -81 -19 -177 -44 -214
-55 -53 -16 -68 -18 -75 -8 -6 10 -13 10 -34 1 -14 -7 -42 -12 -61 -12 -19 0
-85 -16 -147 -36 -63 -21 -147 -40 -192 -44 -44 -5 -111 -18 -150 -29 -38 -12
-97 -21 -131 -21 -43 0 -63 -4 -67 -14 -7 -17 -90 -33 -247 -47 -69 -6 -138
-15 -155 -20 -62 -21 -193 -39 -277 -39 -72 0 -88 -3 -88 -15 0 -8 -1 -16 -2
-16 -2 -1 -86 -6 -188 -10 -102 -5 -235 -12 -295 -15 l-110 -6 -88 106 c-49
58 -93 106 -99 106 -8 0 -9 66 -5 223 4 174 13 282 42 502 20 154 34 294 32
311 -3 18 -34 75 -69 127 -60 90 -65 95 -112 107 -69 18 -90 31 -137 83 -83
95 -272 198 -474 258 -60 17 -125 38 -144 46 -29 13 -35 12 -51 -2 -12 -11
-20 -13 -25 -6 -23 38 -234 80 -528 106 -166 15 -674 27 -787 19z m446 -110
c104 -15 114 -15 147 1 34 16 41 16 124 -3 48 -11 108 -23 133 -27 25 -3 69
-13 99 -21 43 -12 56 -13 62 -3 6 10 11 10 21 1 8 -6 55 -16 106 -22 55 -6
123 -22 174 -41 56 -21 112 -34 172 -39 82 -8 94 -11 146 -49 32 -22 104 -61
161 -86 127 -58 168 -86 210 -147 18 -27 38 -48 46 -48 42 0 40 -130 -3 -210
-30 -56 -179 -204 -194 -195 -16 10 -11 63 11 115 17 40 19 52 9 70 -11 21
-17 22 -81 16 -67 -6 -70 -5 -81 19 -9 19 -9 41 0 88 11 55 10 63 -5 75 -22
15 -3 16 50 1 60 -16 94 -51 203 -207 1 -2 16 -1 33 3 25 5 31 12 31 33 0 33
-31 101 -65 146 -81 106 -376 266 -491 266 -44 0 -102 -24 -111 -45 -8 -22 17
-46 58 -54 33 -7 53 -31 25 -31 -9 0 -16 -8 -16 -18 0 -21 46 -87 60 -86 6 1
19 2 31 3 19 1 20 5 14 51 -7 48 -6 50 17 50 12 0 46 -13 73 -28 42 -23 49
-32 47 -52 -7 -55 -6 -126 2 -142 7 -15 3 -18 -18 -18 -38 0 -125 36 -155 63
-19 18 -42 26 -84 30 -31 3 -70 12 -86 20 -25 12 -37 12 -105 -5 l-76 -19 -52
43 c-29 23 -67 55 -84 71 l-32 29 -61 -32 c-53 -26 -71 -30 -124 -28 l-61 3
-11 37 c-20 71 -59 77 -71 11 -4 -21 -11 -41 -16 -44 -9 -6 -170 14 -210 26
-12 4 -32 16 -44 26 -20 19 -21 19 -50 -12 -36 -39 -109 -76 -165 -85 l-42 -7
9 29 c9 34 10 91 1 100 -3 4 -20 1 -37 -6 -36 -15 -40 -45 -9 -84 25 -31 19
-43 -25 -51 -34 -7 -62 3 -145 50 l-45 25 -19 -30 c-23 -36 -58 -56 -143 -80
l-61 -18 5 44 c6 52 -17 94 -51 94 -56 -1 -59 -43 -6 -80 28 -21 40 -60 18
-60 -6 0 -52 10 -102 21 -86 20 -147 21 -204 4 -21 -7 -21 -7 -5 37 21 59 12
78 -33 78 -74 0 -99 -44 -50 -90 31 -29 32 -45 1 -65 -38 -25 -81 -34 -179
-36 l-92 -2 -11 50 c-14 62 -20 73 -43 73 -23 0 -53 -44 -45 -65 4 -9 22 -26
40 -39 l34 -23 -19 -25 c-11 -14 -58 -50 -104 -81 l-84 -57 -47 20 c-35 16
-50 18 -66 10 -32 -17 -35 -52 -6 -94 14 -21 22 -44 19 -52 -4 -12 -16 -9 -62
17 -124 69 -186 147 -198 249 -5 42 -3 50 10 50 9 0 26 18 37 39 10 22 60 79
109 128 76 74 95 88 123 89 20 0 105 35 213 86 150 72 195 89 270 102 50 9
126 27 170 41 44 13 94 25 112 25 17 0 39 7 48 16 12 13 19 13 30 4 19 -16 86
-8 157 19 48 17 79 21 188 21 98 0 138 4 161 15 23 12 38 13 67 6 26 -8 60 -7
117 3 110 19 153 19 281 0z m230 -568 c14 -10 67 -15 199 -18 191 -4 235 -14
235 -50 0 -19 6 -19 118 -13 98 6 124 5 149 -8 17 -9 33 -22 36 -30 3 -9 29
-16 79 -20 47 -3 93 -14 124 -28 50 -23 130 -97 173 -157 l23 -32 -94 -44
c-206 -97 -462 -173 -661 -197 -57 -7 -106 -18 -112 -25 -7 -9 -53 -15 -135
-20 -94 -5 -128 -10 -137 -21 -11 -14 -14 -14 -28 1 -20 20 -11 21 -95 -11
-72 -26 -73 -26 -194 -14 -170 16 -265 15 -286 -4 -15 -13 -33 -14 -131 -6
-63 6 -167 13 -232 17 -79 4 -120 10 -123 18 -3 9 -22 11 -59 8 -44 -4 -59 -1
-81 17 -19 15 -41 21 -74 21 -114 0 -302 46 -412 101 -63 32 -84 35 -91 17 -4
-10 -7 -10 -14 -1 -5 7 -36 26 -69 42 -95 46 -96 43 14 158 112 116 129 123
266 111 99 -9 149 3 177 41 19 27 29 29 129 41 112 13 153 7 206 -27 18 -11
27 -11 61 1 40 14 123 30 284 56 56 9 81 9 97 1 41 -22 129 -13 205 21 61 27
90 33 187 40 63 4 131 12 150 17 52 14 93 13 116 -3z m1560 -112 c23 -59 14
-115 -35 -219 -59 -127 -92 -169 -160 -205 -32 -17 -94 -59 -138 -94 -59 -47
-89 -64 -120 -68 -23 -3 -69 -22 -101 -42 -36 -21 -66 -34 -76 -30 -9 3 -28
-1 -42 -11 -14 -9 -65 -28 -113 -42 -49 -14 -101 -36 -121 -52 -28 -22 -49
-29 -105 -34 -38 -3 -135 -22 -215 -42 -80 -20 -191 -41 -247 -47 l-103 -12 0
-37 c0 -30 6 -42 31 -62 l31 -24 0 -384 c-1 -344 -11 -674 -28 -875 -5 -69 -6
-71 -39 -83 -55 -19 -152 -22 -295 -9 l-135 13 -32 96 c-64 191 -68 232 -67
752 1 462 1 469 23 497 44 61 23 70 -169 70 -96 0 -123 3 -155 20 -36 18 -43
19 -91 6 -52 -14 -54 -13 -186 31 -164 55 -270 81 -368 89 -48 5 -83 13 -98
25 -13 10 -45 25 -72 34 -27 9 -54 23 -60 31 -7 7 -27 14 -44 14 -17 0 -62 16
-99 35 -38 19 -76 35 -86 35 -10 0 -34 15 -53 33 -19 17 -72 47 -119 66 -55
23 -92 45 -109 65 -14 17 -55 60 -92 96 -86 84 -108 121 -108 186 0 28 3 53 6
57 13 13 50 -16 81 -62 26 -40 53 -61 165 -127 213 -126 307 -171 398 -194
137 -34 210 -60 210 -76 0 -8 4 -14 8 -14 32 0 270 -34 325 -46 37 -9 74 -13
81 -11 8 3 22 -3 32 -14 16 -18 30 -20 148 -18 72 0 163 -4 201 -9 105 -15
614 1 685 22 38 11 96 16 183 16 121 0 135 2 233 36 76 26 132 37 202 43 79 6
106 12 144 35 33 19 54 25 72 20 19 -4 52 6 124 40 74 35 106 45 128 40 20 -4
43 2 74 19 57 30 264 178 308 220 39 37 104 150 128 220 19 56 33 52 60 -19z
m-202 -574 c15 -5 34 -27 47 -52 12 -24 30 -52 40 -63 15 -17 16 -27 9 -60
-11 -54 -26 -179 -50 -420 -11 -110 -27 -236 -36 -280 l-16 -81 -93 -42 c-51
-23 -100 -42 -108 -42 -14 0 -15 30 -11 278 9 426 42 660 102 710 23 20 83 62
89 62 1 0 13 -4 27 -10z m-3509 -186 c8 -54 17 -225 20 -379 3 -154 8 -293 11
-309 4 -29 4 -29 -16 -11 -14 13 -30 16 -59 12 -37 -5 -39 -3 -45 25 -3 17 -6
48 -6 68 0 34 2 38 21 33 29 -8 49 20 49 69 0 38 0 38 -40 38 l-40 0 0 42 c0
35 6 47 35 74 53 48 41 114 -20 114 -21 0 -23 5 -27 63 -3 34 -3 64 -1 67 3 3
15 -7 27 -22 25 -32 33 -34 58 -11 41 37 6 111 -47 101 -30 -6 -31 3 -4 62 25
55 49 84 62 71 5 -5 15 -53 22 -107z m3197 -10 c24 -146 20 -327 -18 -767
l-16 -179 -37 -34 c-44 -39 -80 -106 -141 -257 -60 -148 -124 -217 -201 -217
-21 0 -21 2 -15 113 4 61 19 229 33 372 20 207 24 292 20 415 -7 181 1 227 50
307 56 91 65 111 67 154 l2 41 85 32 c46 18 98 39 114 49 40 22 49 17 57 -29z
m-2986 15 c72 -21 72 -21 71 -56 -1 -38 29 -73 63 -73 14 0 18 -11 23 -57 5
-69 2 -77 -25 -62 -11 6 -35 8 -54 4 -31 -5 -34 -9 -34 -39 0 -19 9 -44 20
-57 l20 -24 34 37 34 36 13 -50 c8 -36 10 -95 5 -197 -6 -117 -3 -178 13 -306
37 -300 37 -273 -10 -330 -22 -27 -47 -62 -55 -77 -8 -15 -18 -28 -22 -28 -16
0 -71 67 -95 115 -47 95 -61 173 -82 455 -9 113 -18 228 -22 257 l-6 52 34 -9
c19 -6 46 -10 61 -10 26 0 28 3 28 43 0 51 -13 67 -56 67 -49 0 -57 19 -62
144 -4 106 7 186 26 186 4 0 39 -9 78 -21z m6667 -149 c61 -30 93 -52 102 -71
47 -89 83 -349 70 -494 -4 -44 -9 -352 -10 -685 l-4 -604 27 -56 c25 -52 27
-64 28 -220 2 -164 2 -167 34 -235 31 -68 44 -144 27 -162 -5 -4 -36 -8 -70
-7 -49 0 -82 9 -157 41 -52 22 -106 44 -120 48 -14 4 -36 16 -49 26 -13 11
-38 19 -55 19 -58 0 -144 29 -263 88 -143 72 -165 79 -271 91 -72 8 -90 14
-148 51 -74 49 -240 110 -298 110 -24 0 -82 20 -163 55 -69 31 -241 103 -382
160 -141 57 -308 126 -371 154 -63 28 -125 51 -138 51 -13 0 -33 5 -45 11 -14
8 -22 8 -24 2 -2 -6 -52 11 -111 37 -155 69 -423 161 -488 167 -41 5 -69 15
-106 40 -35 24 -68 37 -107 43 -68 10 -223 75 -277 117 -26 21 -55 33 -88 37
-28 3 -62 16 -80 29 -17 13 -60 37 -94 52 -43 19 -67 36 -73 52 -24 64 4 138
64 170 55 30 97 56 149 94 36 27 64 39 103 44 32 4 65 15 82 28 17 14 43 22
68 23 25 1 62 13 96 33 49 27 65 31 132 31 64 0 77 3 77 16 0 13 3 14 15 4 12
-10 16 -9 21 4 4 11 13 15 25 11 12 -4 58 12 119 39 54 25 108 46 118 46 10 0
27 9 37 21 15 16 26 19 57 14 47 -8 75 0 83 26 5 14 15 19 40 19 57 0 233 39
430 97 322 93 367 104 474 114 71 7 129 20 185 40 44 17 117 36 161 44 44 7
94 17 110 23 34 12 152 32 235 39 30 3 60 9 66 14 6 5 57 15 113 24 106 16
140 27 154 52 8 12 10 12 20 -1 11 -14 18 -14 77 4 42 13 96 20 150 21 47 0
94 4 105 8 11 5 27 5 35 1 8 -4 55 -26 103 -50z m-6363 -15 c0 -45 4 -56 21
-65 33 -18 69 11 69 56 0 30 3 35 18 29 9 -3 37 -10 61 -15 24 -4 52 -17 63
-28 20 -19 20 -19 -16 -41 -40 -25 -46 -53 -19 -83 21 -23 34 -23 67 3 16 13
26 30 26 46 0 26 0 26 21 7 12 -10 31 -39 42 -63 18 -42 19 -58 12 -250 -4
-133 -2 -278 6 -416 14 -235 6 -342 -33 -434 l-21 -51 -40 7 c-23 3 -79 16
-126 28 l-86 22 -28 81 c-63 188 -87 430 -87 893 l0 329 25 0 c24 0 25 -3 25
-55z m2189 5 c41 -21 45 -57 37 -348 -8 -358 -37 -669 -86 -955 l-12 -64 -75
-22 c-78 -23 -182 -38 -220 -33 -30 5 -62 85 -75 193 -9 71 -8 149 6 378 15
234 16 306 7 375 -18 133 -2 187 97 325 30 42 59 86 65 98 6 14 22 25 41 28
71 13 182 32 189 34 5 0 16 -3 26 -9z m5032 -42 c16 -12 45 -51 64 -85 19 -35
104 -175 188 -311 84 -136 170 -276 191 -312 31 -54 50 -72 105 -107 l68 -43
11 -94 c7 -52 12 -112 12 -132 0 -21 3 -34 6 -31 4 3 15 2 26 -4 14 -8 24 -7
35 2 12 11 14 27 9 89 -7 75 -7 76 19 88 36 17 74 15 81 -3 6 -14 8 -14 18 0
9 12 18 13 44 5 22 -6 52 -6 84 0 28 6 68 10 88 10 37 0 37 0 44 -49 6 -47 8
-49 44 -56 29 -5 39 -3 47 11 5 9 18 26 28 36 17 18 19 17 55 -19 21 -21 55
-51 75 -68 21 -17 42 -44 47 -62 7 -29 6 -32 -11 -30 -12 1 -26 -8 -36 -25
-16 -25 -16 -27 13 -61 16 -20 32 -36 37 -36 11 -1 47 62 47 84 1 63 40 57
130 -20 56 -48 69 -55 97 -51 17 2 33 1 35 -4 5 -13 132 19 141 36 6 11 21 13
62 8 45 -6 56 -4 61 9 5 15 10 14 46 -4 30 -15 43 -17 53 -9 19 16 65 -9 104
-57 55 -66 85 -197 94 -411 4 -83 3 -92 -12 -86 -33 15 -109 15 -168 0 -80
-21 -112 -20 -148 4 -26 17 -47 20 -147 20 -86 0 -129 -4 -158 -16 -29 -12
-44 -14 -52 -6 -8 8 -17 7 -32 -3 -11 -7 -46 -15 -77 -17 -55 -4 -57 -4 -71
26 -8 17 -26 50 -39 73 -24 42 -24 43 -6 76 39 71 -24 121 -72 57 -26 -36 -41
-34 -108 12 -33 22 -53 28 -85 27 -26 -1 -75 9 -123 25 -67 24 -104 29 -230
35 -212 10 -246 30 -364 205 -27 40 -57 76 -65 79 -8 3 -40 42 -71 87 -31 44
-76 93 -98 109 -50 34 -182 193 -216 259 -33 64 -38 171 -16 343 10 74 18 186
19 249 1 94 5 120 20 143 10 15 20 27 23 27 2 0 17 -10 34 -22z m634 -43 c39
-7 99 -16 135 -20 131 -13 215 -27 235 -41 13 -9 48 -14 102 -14 63 0 83 -3
83 -14 0 -9 23 -15 86 -19 56 -4 101 -13 128 -27 24 -11 62 -20 90 -20 26 0
92 -12 147 -26 55 -14 107 -23 115 -20 9 4 18 -3 24 -17 l9 -22 0 23 c1 33 31
28 31 -5 1 -25 2 -26 13 -11 9 11 18 14 28 7 8 -5 26 -9 42 -9 15 0 27 -4 27
-9 0 -4 30 -6 68 -4 45 3 100 -2 169 -16 55 -12 121 -21 145 -21 24 0 54 -7
67 -16 14 -10 33 -14 52 -10 36 7 170 -22 185 -40 8 -10 14 -10 22 -2 8 8 16
7 28 -3 13 -11 18 -11 21 -1 6 16 33 15 76 -3 20 -8 50 -15 67 -15 16 0 30 -4
30 -10 0 -6 29 -10 68 -10 38 0 117 -9 178 -20 60 -11 151 -25 202 -30 50 -5
100 -15 111 -21 13 -9 26 -9 50 -1 27 10 39 8 69 -7 60 -30 204 -64 213 -50 5
8 55 2 185 -24 137 -28 195 -45 251 -72 76 -38 82 -46 67 -102 -5 -17 -14 -23
-34 -23 -15 0 -82 -25 -148 -55 -141 -64 -247 -100 -341 -117 -36 -6 -70 -16
-76 -23 -5 -6 -30 -14 -55 -18 -29 -4 -51 -14 -63 -28 -14 -18 -24 -21 -60
-16 -37 5 -52 0 -127 -43 -96 -55 -173 -90 -199 -90 -9 0 -24 -9 -34 -20 -9
-11 -24 -20 -32 -20 -8 0 -15 -7 -15 -15 0 -10 -10 -15 -32 -15 -18 -1 -58
-14 -88 -30 -36 -20 -70 -30 -96 -30 -25 0 -47 -6 -54 -15 -10 -13 -15 -13
-32 -1 -17 12 -22 12 -39 -5 -12 -12 -33 -19 -56 -19 -43 0 -57 -7 -66 -32 -5
-14 -18 -18 -62 -18 -49 0 -55 2 -55 20 0 77 -98 150 -200 150 -28 0 -41 7
-63 35 -78 98 -303 138 -402 71 -56 -38 -155 -61 -155 -36 0 13 -99 75 -134
84 -17 4 -51 31 -78 60 -29 31 -60 56 -76 59 -21 4 -34 18 -53 54 -23 47 -25
48 -74 51 -31 2 -55 9 -62 18 -7 10 -19 13 -33 9 -11 -4 -27 -1 -35 5 -8 6
-23 9 -35 5 -14 -5 -20 -2 -20 9 0 19 -42 20 -215 6 -100 -7 -112 -7 -130 10
-11 10 -51 30 -88 43 -38 14 -80 36 -94 48 -13 13 -53 82 -88 154 -41 85 -77
143 -100 165 -66 63 -82 137 -46 215 33 72 91 109 154 98 30 -4 38 -1 52 21
12 18 23 25 34 21 9 -4 48 -13 86 -20z m-7193 -29 c128 -24 190 -50 247 -105
88 -86 85 -69 93 -476 4 -251 11 -387 22 -450 18 -108 20 -190 5 -251 l-11
-44 -62 0 c-33 0 -128 9 -211 19 -82 11 -159 19 -170 18 -42 -4 -103 186 -126
393 -12 114 -7 688 8 864 l6 73 56 -13 c31 -7 95 -20 143 -28z m-1138 -501 c3
-13 9 -51 12 -83 5 -49 4 -60 -10 -65 -18 -7 -76 2 -76 12 -1 3 -2 28 -4 55
-4 44 -2 49 25 65 16 9 29 22 29 29 0 22 18 13 24 -13z m7420 -141 c9 -3 16
-14 17 -23 0 -10 2 -11 6 -3 8 20 18 14 42 -28 12 -21 40 -54 61 -73 22 -18
63 -65 91 -103 68 -92 105 -130 156 -159 27 -17 45 -36 52 -57 6 -18 42 -65
79 -103 37 -39 74 -84 82 -100 8 -17 51 -66 95 -109 73 -72 87 -81 155 -102
82 -26 124 -30 166 -14 21 8 40 6 86 -10 32 -11 118 -30 191 -41 129 -20 133
-22 170 -59 22 -22 58 -47 82 -57 37 -15 44 -23 49 -53 7 -44 37 -94 69 -115
21 -13 35 -14 103 -4 43 6 86 18 95 25 12 11 51 15 145 16 111 2 138 -1 193
-21 62 -21 111 -22 111 -1 0 16 27 11 34 -5 4 -12 10 -14 25 -5 32 16 108 12
150 -10 53 -27 116 -102 141 -166 11 -30 20 -59 20 -64 0 -15 158 -60 212 -60
73 0 169 28 195 56 12 13 31 24 43 24 29 0 131 48 225 106 88 54 128 74 151
74 9 0 42 21 75 46 48 37 60 42 65 29 5 -12 9 -13 20 -4 8 6 14 9 14 6 0 -3
33 9 73 28 149 68 249 90 298 65 16 -9 19 -22 19 -90 0 -44 -3 -79 -7 -78 -5
1 -28 -9 -53 -24 -25 -15 -94 -41 -155 -58 -60 -18 -122 -41 -137 -52 -15 -10
-119 -63 -230 -117 -129 -63 -214 -110 -232 -130 -17 -17 -39 -31 -51 -31 -11
0 -31 -7 -43 -16 -12 -8 -26 -13 -30 -10 -16 10 -98 -18 -147 -49 -78 -50
-167 -93 -325 -156 -80 -32 -153 -68 -162 -80 -11 -13 -40 -25 -80 -34 -66
-14 -198 -69 -198 -83 0 -4 -15 -8 -33 -8 -37 0 -453 -214 -476 -245 -8 -11
-25 -19 -42 -19 -15 0 -68 -20 -116 -44 -81 -40 -176 -75 -245 -90 -16 -4 -28
-11 -28 -16 0 -6 -8 -10 -18 -10 -9 0 -39 -11 -65 -25 -27 -15 -75 -29 -112
-34 -39 -4 -72 -14 -85 -26 -19 -17 -22 -17 -64 -1 -55 21 -67 36 -91 111 -11
33 -59 133 -108 223 -228 415 -443 924 -742 1752 -43 118 -86 226 -95 240 -53
77 -85 181 -74 239 6 27 8 28 38 19 24 -8 43 -6 76 5 53 19 54 19 74 11z
m4550 -265 c14 -17 26 -34 26 -38 0 -5 16 -3 35 3 19 6 35 17 35 23 0 16 44
17 73 2 42 -22 58 -41 46 -56 -16 -18 -36 -16 -58 6 -18 18 -19 17 -39 -25
-21 -43 -21 -43 -1 -68 17 -22 23 -24 44 -14 13 6 34 31 46 57 l21 45 19 -23
c38 -47 18 -152 -47 -236 -33 -44 -54 -33 -54 31 0 49 -13 63 -40 39 -14 -13
-19 -13 -23 -3 -3 9 -7 7 -12 -6 -5 -11 -1 -37 9 -65 23 -66 21 -74 -29 -95
-38 -15 -48 -16 -61 -5 -13 11 -15 24 -9 74 4 33 8 74 9 90 1 26 5 30 35 33
l33 3 -7 62 c-3 34 -8 63 -10 65 -2 2 -12 -1 -23 -7 -12 -6 -31 -11 -43 -11
-21 0 -21 -3 -15 -60 6 -48 4 -60 -7 -60 -31 0 -47 -34 -40 -89 5 -45 2 -61
-22 -112 -17 -35 -35 -59 -44 -59 -9 0 -30 17 -47 37 l-31 36 -25 -19 c-19
-14 -25 -26 -22 -44 7 -35 -26 -95 -51 -95 -19 0 -20 6 -17 139 3 134 4 140
28 158 30 24 30 40 0 102 l-24 48 -16 -31 c-9 -17 -24 -31 -32 -31 -14 0 -15
-8 -8 -47 12 -79 11 -97 -11 -107 -19 -8 -20 -18 -20 -142 1 -130 0 -133 -23
-143 -39 -18 -59 -13 -72 19 -17 41 -55 69 -83 63 -43 -11 -48 -22 -41 -89 5
-42 3 -64 -4 -64 -26 0 -43 15 -61 56 -24 53 -42 62 -75 37 -29 -20 -32 -49
-11 -77 8 -11 15 -25 15 -32 0 -16 -112 -69 -160 -77 -35 -5 -36 -5 -47 41 -6
26 -16 60 -22 75 l-11 28 -32 -36 c-30 -35 -31 -39 -19 -68 22 -53 26 -97 8
-97 -9 0 -23 -9 -31 -21 -8 -12 -19 -18 -25 -14 -6 3 -14 -1 -17 -9 -9 -23
-23 -20 -54 14 -15 17 -33 30 -39 30 -6 0 -25 -30 -42 -66 -46 -97 -110 -131
-151 -79 -25 32 -75 58 -95 51 -15 -6 -15 -15 -1 -110 4 -27 -40 -51 -75 -42
-26 6 -27 9 -27 76 0 53 3 70 14 70 20 0 28 28 20 77 -5 36 -10 43 -28 43 -13
0 -32 -11 -45 -23 -18 -20 -20 -28 -11 -51 17 -46 13 -87 -10 -93 -11 -3 -20
-9 -20 -13 0 -5 -2 -15 -5 -22 -3 -8 6 -27 20 -43 31 -33 21 -45 -35 -45 -47
1 -79 40 -63 79 6 14 17 40 24 57 6 17 9 42 5 57 -6 25 -11 27 -56 27 -64 0
-72 21 -37 93 14 29 28 59 30 67 5 17 27 -30 27 -59 0 -9 6 -26 14 -37 13 -17
18 -18 48 -6 21 8 34 9 36 2 2 -5 8 -10 13 -10 5 0 6 26 2 60 -5 55 -4 60 14
60 14 0 25 12 36 40 15 39 15 40 -10 60 -14 11 -34 20 -44 20 -12 0 -19 7 -19
18 1 25 37 102 49 102 12 0 51 -49 51 -64 0 -7 15 -11 35 -11 19 1 35 -1 35
-4 0 -3 12 -19 25 -34 24 -27 28 -28 60 -17 44 15 47 19 33 63 -11 37 -12 37
-65 37 l-53 0 0 40 c0 37 2 40 23 35 12 -4 35 -2 49 4 21 8 29 6 44 -10 24
-27 71 -25 97 5 l21 24 34 -29 c56 -50 66 -41 75 69 5 60 3 57 39 66 24 5 31
1 54 -34 46 -70 84 -49 84 46 l0 61 52 7 c42 6 55 4 64 -9 18 -24 42 -8 66 45
l22 47 90 6 c50 3 99 8 108 12 14 6 17 -1 20 -47 l3 -53 47 -3 c41 -3 49 0 63
22 22 33 16 70 -12 74 -29 4 -50 29 -35 44 16 16 100 13 174 -6 90 -25 98 -21
98 54 l0 61 47 -3 c58 -4 68 -26 30 -66 -39 -42 -42 -67 -12 -89 l27 -19 -46
-49 c-50 -55 -52 -72 -11 -114 l23 -24 17 34 c10 18 33 91 51 162 34 129 64
197 89 197 7 0 25 -14 39 -31z m-554 -124 c0 -8 -4 -15 -10 -15 -5 0 -7 7 -4
15 4 8 8 15 10 15 2 0 4 -7 4 -15z m-8144 -101 c16 -4 23 -16 28 -43 6 -42 37
-76 60 -68 10 4 16 -5 21 -31 4 -20 13 -49 21 -65 12 -22 20 -27 37 -21 30 9
51 28 73 69 10 19 22 35 27 35 5 0 40 -19 78 -42 48 -28 86 -43 119 -46 l48
-4 -5 -37 c-12 -92 112 -130 139 -42 5 18 38 23 55 9 17 -14 16 -43 -3 -80
-12 -24 -13 -36 -5 -54 9 -20 18 -24 55 -24 l43 0 5 50 c3 28 7 53 10 55 3 3
26 2 52 -1 37 -6 46 -10 41 -22 -3 -9 -9 -35 -12 -58 -5 -36 -2 -46 20 -68 49
-49 99 -25 113 52 6 32 9 34 38 28 44 -9 121 -51 123 -67 14 -105 25 -111 88
-49 37 36 44 40 68 31 37 -14 103 -76 117 -111 11 -26 17 -30 52 -30 31 0 41
4 45 20 4 15 14 20 38 20 46 0 71 -35 80 -108 6 -55 8 -57 36 -58 26 -1 30 3
39 37 11 42 16 44 84 32 37 -6 38 -7 34 -42 -3 -20 -2 -45 2 -56 13 -34 -6
-46 -46 -29 -43 18 -74 5 -74 -31 0 -31 38 -95 57 -95 24 0 73 56 73 84 0 30
0 30 36 14 23 -11 28 -10 40 7 9 12 12 31 8 55 -4 21 -2 40 4 44 11 7 132 -53
132 -65 0 -5 -9 -23 -20 -41 -11 -18 -20 -41 -20 -52 0 -13 -4 -16 -17 -11
-54 23 -93 7 -93 -36 0 -30 42 -87 60 -81 29 9 50 35 50 63 0 26 2 27 35 22
47 -8 77 18 73 62 -3 25 1 31 21 33 27 4 141 -46 141 -61 0 -9 -31 -6 -62 8
-24 10 -78 -45 -78 -80 0 -29 40 -75 65 -75 47 0 85 56 85 126 0 28 3 35 15
30 9 -3 43 -13 77 -22 72 -18 112 -44 133 -83 14 -28 16 -28 60 -18 37 8 56 7
100 -7 30 -9 55 -20 55 -23 0 -3 -13 -21 -30 -40 -43 -48 -39 -103 6 -103 13
0 24 -6 24 -12 0 -7 12 0 26 16 25 28 28 52 13 106 -6 24 56 16 122 -16 55
-27 57 -29 62 -76 8 -61 12 -68 44 -68 16 0 37 13 59 37 l35 38 43 -24 c32
-16 51 -36 68 -69 12 -26 24 -49 26 -51 1 -3 27 7 56 22 88 45 101 39 126 -60
10 -40 13 -43 44 -43 20 0 40 8 51 20 49 54 175 -36 175 -125 0 -37 32 -32 79
11 44 39 55 38 103 -13 41 -43 68 -115 81 -214 l11 -89 -73 -74 c-41 -41 -96
-86 -122 -101 l-48 -26 -68 24 c-37 13 -101 36 -140 51 -40 14 -83 26 -95 26
-30 1 -78 44 -78 70 0 17 -13 52 -25 67 -1 2 -19 -6 -40 -17 -47 -24 -121 -26
-171 -5 -31 13 -35 19 -30 37 19 67 19 81 1 95 -30 21 -43 16 -71 -27 -28 -42
-31 -43 -96 -18 -34 13 -35 31 -3 93 27 55 25 65 -13 65 -38 0 -68 -24 -82
-65 -13 -40 -10 -39 -70 -21 -42 13 -45 16 -44 47 0 19 3 45 5 58 3 19 -3 28
-28 43 -31 19 -32 19 -52 -1 -13 -13 -21 -34 -21 -56 0 -19 -2 -35 -4 -35 -3
0 -20 9 -38 19 -18 11 -80 31 -137 46 -180 45 -263 108 -181 136 40 14 39 40
-3 85 -31 34 -34 35 -49 20 -9 -9 -21 -16 -27 -16 -13 0 -15 -56 -2 -64 5 -3
11 -15 14 -27 6 -21 4 -22 -56 -15 -34 3 -86 18 -114 32 l-53 25 16 30 c8 17
14 45 12 62 -3 29 -6 32 -41 35 -33 3 -38 0 -48 -25 -7 -19 -7 -34 0 -50 9
-20 8 -23 -11 -23 -13 0 -46 5 -74 12 l-52 12 -12 53 c-13 60 -17 62 -99 37
-53 -15 -125 -12 -136 6 -3 5 7 33 21 63 19 38 25 62 20 81 -6 23 -11 26 -46
24 -45 -1 -57 -12 -66 -56 -5 -24 -1 -36 19 -56 20 -19 22 -26 10 -30 -8 -3
-27 1 -43 9 -16 8 -37 15 -46 15 -33 0 -166 70 -171 90 -4 15 -11 18 -37 13
-17 -3 -35 -9 -39 -13 -5 -4 -26 0 -47 9 l-39 16 6 56 6 56 -34 5 c-42 7 -45
5 -70 -43 -19 -38 -22 -40 -52 -33 -54 11 -77 23 -77 38 0 8 -3 21 -6 30 -5
12 1 16 23 16 16 0 37 6 47 13 40 29 -20 120 -67 102 -18 -7 -37 -48 -37 -80
0 -35 -32 -48 -105 -43 -110 9 -145 44 -113 112 9 22 8 29 -7 46 -20 22 -73
27 -79 8 -3 -7 -7 -26 -11 -41 -5 -24 -10 -28 -33 -25 -21 2 -28 9 -30 32 -6
46 6 75 32 82 39 9 58 37 54 81 -3 37 -4 38 -42 38 -38 -1 -40 -2 -56 -53 -20
-62 -27 -71 -36 -48 -3 9 -9 16 -13 16 -12 0 -31 -49 -31 -80 0 -17 -1 -30 -2
-30 -2 0 -25 7 -52 15 -85 26 -105 59 -65 109 11 14 19 36 17 48 -2 19 -9 23
-42 23 -50 1 -66 -16 -59 -58 3 -22 0 -37 -10 -45 -23 -20 -61 19 -86 88 -21
56 -23 59 -44 49 -12 -6 -35 -23 -50 -38 l-28 -26 -30 33 c-34 38 -36 75 -4
80 34 6 39 19 25 62 -12 38 -16 40 -52 40 -25 0 -41 -5 -44 -15 -10 -26 -34 3
-34 40 0 55 7 64 47 58 l36 -6 -5 56 c-4 54 -4 56 18 51 28 -7 54 28 54 72 0
54 -8 64 -43 57 -49 -9 -54 -17 -49 -78 2 -30 1 -55 -2 -55 -11 0 -86 40 -86
46 0 16 34 82 53 103 44 47 130 72 193 55z m3892 -213 c7 -9 12 -45 12 -92 0
-85 10 -100 46 -67 20 18 24 18 56 5 20 -8 52 -35 73 -60 21 -25 48 -51 61
-57 15 -9 34 -40 55 -94 18 -44 88 -200 157 -346 68 -146 151 -326 184 -400
33 -74 76 -156 95 -182 19 -26 46 -75 60 -110 37 -92 62 -140 88 -168 25 -26
132 -304 156 -400 28 -117 8 -304 -47 -436 -16 -38 -54 -47 -111 -28 -67 23
-131 106 -342 441 -69 110 -198 364 -251 494 l-22 56 27 40 c18 29 25 51 23
75 -3 30 -6 33 -41 36 -26 2 -39 -1 -43 -12 -9 -23 -141 167 -159 228 -8 27
-15 71 -15 98 0 45 3 50 35 69 60 36 45 78 -39 109 -34 13 -41 21 -44 45 -1
17 -16 104 -32 195 -44 248 -53 342 -47 468 4 62 9 117 13 123 6 10 28 -2 52
-30z m3072 -229 c0 -34 -14 -57 -29 -48 -14 9 -14 27 -1 61 12 32 30 24 30
-13z m-7072 -275 c20 -14 66 -31 102 -38 77 -14 100 -24 100 -44 0 -11 13 -15
55 -15 46 0 59 -4 84 -29 18 -17 44 -31 71 -35 56 -9 80 -23 80 -46 0 -25 -23
-28 -100 -14 -36 7 -122 17 -190 23 -197 17 -352 66 -439 138 l-34 29 18 33
17 34 100 -6 c84 -4 105 -9 136 -30z m8205 -283 c26 -34 68 -31 111 7 43 37
54 35 153 -34 71 -50 72 -50 79 -105 14 -114 -20 -254 -74 -304 -36 -34 -85
-58 -117 -58 -21 0 -30 8 -46 45 -22 49 -34 53 -85 29 -39 -18 -41 -27 -17
-74 16 -33 16 -34 -13 -57 -16 -13 -46 -28 -67 -34 -21 -5 -68 -28 -105 -51
-69 -42 -131 -68 -163 -68 -29 0 -24 48 11 100 33 49 39 97 15 107 -9 3 -24
-2 -34 -11 -10 -9 -23 -16 -29 -16 -6 0 -10 -10 -10 -22 3 -56 -2 -80 -16 -75
-29 11 -41 -20 -29 -76 10 -48 10 -53 -10 -70 -32 -26 -161 -87 -184 -87 -11
0 -30 -11 -42 -24 -26 -27 -45 -36 -146 -65 -38 -11 -104 -42 -145 -68 -63
-39 -83 -47 -125 -47 -48 -1 -50 0 -47 24 2 14 10 35 18 47 8 12 14 28 14 36
0 21 -46 59 -67 55 -15 -3 -18 -12 -15 -61 2 -46 -2 -64 -22 -95 -14 -20 -32
-56 -41 -79 -13 -33 -22 -43 -40 -43 -13 0 -51 -9 -84 -19 l-61 -19 0 50 c0
65 -13 88 -50 88 -23 0 -30 -5 -35 -30 -8 -36 2 -70 19 -70 8 0 19 -7 26 -15
11 -13 10 -21 -1 -42 -26 -48 -95 -76 -143 -57 -27 10 -19 60 15 98 29 34 30
37 18 71 -11 30 -18 35 -45 35 -43 0 -55 -18 -48 -73 6 -39 4 -46 -15 -56 -18
-10 -21 -21 -21 -80 l0 -69 -105 -51 c-57 -28 -111 -51 -120 -51 -8 0 -15 -7
-15 -16 0 -10 -5 -14 -15 -10 -8 3 -22 9 -30 12 -10 4 -15 0 -15 -10 0 -23
-16 -20 -34 6 -23 33 -19 80 9 122 33 48 21 79 -28 74 -28 -3 -32 -7 -35 -37
-2 -18 1 -38 7 -44 18 -18 13 -26 -29 -47 -40 -20 -40 -21 -40 -78 0 -57 -1
-59 -37 -79 -21 -11 -48 -24 -60 -28 -22 -6 -23 -5 -23 69 l0 76 -40 0 c-33 0
-40 -3 -40 -19 0 -11 -4 -23 -10 -26 -21 -13 -9 -46 24 -66 60 -35 38 -52
-193 -145 -174 -69 -186 -70 -176 0 6 35 3 44 -18 64 -28 27 -54 21 -68 -15
-14 -37 -11 -51 11 -58 51 -16 4 -88 -65 -101 -30 -5 -42 0 -99 42 l-66 49 0
65 c0 36 -3 88 -6 117 -6 50 -6 53 22 65 16 7 32 17 37 23 9 13 24 -9 37 -55
12 -44 13 -73 1 -65 -15 9 -41 -37 -41 -72 0 -34 29 -73 53 -73 28 0 37 25 37
106 0 59 5 91 17 112 16 28 16 31 0 56 -10 14 -25 26 -34 26 -15 0 -15 1 0 18
10 10 14 22 10 25 -16 17 21 5 47 -15 29 -21 30 -21 51 -2 21 19 22 36 4 120
-7 31 -6 32 46 52 47 17 57 25 79 68 31 61 64 72 74 23 3 -17 6 -42 6 -55 0
-19 5 -24 24 -24 40 0 51 23 39 85 -8 48 -7 55 6 55 9 0 30 9 46 20 39 26 51
25 92 -6 48 -37 67 -29 71 28 3 44 6 48 48 73 54 31 70 28 79 -17 13 -64 15
-68 45 -68 39 0 48 33 26 97 -15 44 -15 48 1 65 10 9 50 30 88 45 46 19 73 36
80 51 5 12 17 22 27 22 9 0 54 16 98 36 45 19 88 33 96 30 8 -3 14 -18 14 -34
0 -15 6 -36 13 -47 13 -16 17 -17 45 -4 35 15 40 38 17 79 -18 31 -19 60 -2
60 6 0 39 12 72 25 l60 25 22 -27 c13 -16 23 -38 23 -50 0 -29 17 -30 25 -2 5
16 9 18 15 9 16 -26 30 3 30 61 0 56 2 60 33 79 17 11 49 25 69 32 31 9 43 8
79 -10 51 -26 65 -18 80 44 18 70 79 71 97 0 5 -19 16 -32 28 -35 10 -2 22 -8
26 -14 10 -16 38 17 38 45 0 13 -9 34 -20 48 -11 14 -20 40 -20 59 0 32 1 33
14 16 13 -18 14 -17 36 8 30 34 61 34 119 0 25 -14 46 -22 48 -17 11 32 117
173 128 170 6 -1 12 -29 15 -61 3 -40 10 -61 23 -69 48 -30 74 68 27 106 -29
24 -20 43 27 58 21 7 48 19 61 26 21 14 22 13 22 -16 0 -41 26 -90 48 -90 10
0 27 6 37 14 17 12 17 16 3 73 l-15 59 53 29 c35 19 69 29 99 30 45 1 46 0 39
-25 -15 -55 -11 -65 26 -68 24 -3 38 2 47 14 19 26 16 68 -7 89 -19 17 -19 20
-4 36 20 22 85 29 99 10 6 -7 18 -24 28 -37z m-8338 -34 c14 -22 32 -40 41
-40 17 0 64 44 64 60 0 38 83 -24 102 -75 6 -19 19 -35 27 -35 8 0 33 20 57
45 41 44 66 55 80 34 3 -6 15 -9 25 -6 15 4 21 -4 31 -40 7 -25 21 -51 31 -57
15 -9 22 -6 42 19 50 63 66 76 87 73 15 -2 24 -15 34 -46 15 -52 40 -82 67
-82 16 0 17 -3 7 -15 -9 -11 -9 -25 1 -64 12 -48 14 -50 46 -47 44 4 63 22 63
61 0 36 -12 50 -53 60 -16 4 -31 14 -34 21 -7 20 16 73 37 84 25 13 58 -14 66
-55 8 -43 39 -85 63 -85 12 0 26 18 43 55 14 30 28 52 31 48 4 -3 56 -5 116
-4 l109 2 52 -61 c29 -33 56 -60 60 -60 4 0 24 11 45 26 38 26 61 26 124 2
l24 -9 -22 -23 c-24 -26 -37 -82 -27 -120 5 -21 13 -26 36 -26 42 0 54 28 45
105 l-6 63 48 -5 c82 -7 93 -12 93 -36 0 -35 47 -127 65 -127 8 0 28 20 43 45
15 25 33 45 40 45 25 0 83 -30 125 -64 36 -30 51 -35 102 -38 59 -3 60 -4 79
-43 10 -22 25 -48 34 -58 14 -16 17 -16 59 9 59 34 105 28 123 -17 14 -33 54
-69 77 -69 8 0 31 8 50 17 40 19 33 23 104 -68 l25 -33 38 22 c37 22 81 29 90
14 8 -13 -51 -94 -97 -134 l-42 -38 24 -47 c14 -27 26 -50 28 -52 2 -2 11 3
21 12 29 26 58 12 58 -28 0 -36 27 -75 51 -75 8 0 23 21 34 46 l21 46 -22 21
c-19 17 -27 19 -51 10 -23 -9 -31 -8 -43 6 -22 24 -20 28 13 46 42 21 67 91
53 145 -10 39 -9 40 16 40 19 0 43 -18 92 -70 67 -73 82 -80 115 -56 32 22
104 -9 130 -56 15 -29 26 -37 53 -40 22 -3 36 1 41 10 13 22 46 -1 77 -53 14
-25 27 -45 29 -45 1 0 19 7 40 16 52 21 83 11 101 -33 15 -34 14 -37 -3 -47
-10 -6 -36 -15 -58 -21 -36 -9 -40 -13 -38 -39 3 -36 29 -66 58 -66 30 0 71
34 79 65 4 14 11 23 16 20 16 -10 47 13 58 43 10 28 10 29 56 18 l46 -11 0
-46 c0 -65 7 -79 40 -79 24 0 30 6 40 35 13 40 26 51 43 38 7 -5 32 -15 56
-22 37 -11 42 -16 38 -34 -17 -76 -17 -82 3 -106 19 -23 21 -23 46 -6 15 9 31
30 37 46 14 35 24 36 60 4 28 -25 28 -26 16 -81 -12 -52 -11 -58 7 -71 18 -13
32 -13 80 2 29 9 34 -9 22 -76 -13 -67 -18 -72 -51 -60 -40 15 -77 -2 -77 -35
0 -48 -23 -105 -53 -130 -23 -19 -40 -24 -87 -24 -66 0 -162 28 -235 68 -47
26 -50 30 -58 79 -6 38 -14 54 -27 58 -25 8 -53 -7 -74 -40 -18 -27 -47 -33
-65 -12 -6 8 -15 42 -19 76 -14 103 -56 120 -92 36 -11 -25 -22 -45 -25 -45
-3 0 -21 6 -39 14 -34 14 -50 45 -58 106 -4 37 -39 37 -81 1 -19 -17 -46 -31
-60 -31 -22 0 -26 6 -36 58 -17 90 -36 97 -97 40 -27 -25 -35 -28 -53 -19 -12
7 -21 19 -22 29 0 9 -1 41 -2 70 -2 47 -5 55 -30 70 -35 21 -43 11 -53 -66 -3
-29 -9 -54 -13 -56 -16 -10 -117 40 -156 78 -40 37 -48 41 -97 41 -43 1 -74
10 -146 45 l-93 44 7 56 c6 52 5 56 -20 69 -31 17 -52 4 -73 -46 -16 -38 -12
-37 -63 -17 -43 17 -53 34 -20 34 23 0 40 28 40 68 0 24 6 32 30 42 49 20 109
68 130 103 23 37 26 85 8 110 -12 16 -18 14 -75 -23 -65 -43 -103 -99 -103
-154 0 -17 -4 -25 -11 -20 -6 3 -29 1 -50 -6 -45 -15 -50 -35 -19 -85 18 -29
18 -34 5 -45 -12 -10 -29 -8 -90 11 l-75 24 0 51 c0 60 -17 87 -50 82 -23 -3
-30 -14 -46 -75 -5 -17 -66 -16 -89 1 -19 14 -19 15 -2 50 36 77 12 125 -58
112 -31 -6 -33 -9 -37 -61 -3 -30 -7 -57 -10 -60 -3 -3 -31 1 -63 8 -55 12
-59 16 -72 52 -19 56 -26 60 -73 41 -48 -19 -80 -20 -115 -4 -24 11 -26 15
-19 52 11 58 8 86 -10 104 -14 14 -18 14 -40 -7 -14 -13 -30 -46 -37 -73 l-13
-50 -71 7 c-38 4 -73 9 -77 11 -3 2 -9 23 -13 47 -15 91 -45 100 -101 32 -41
-51 -50 -53 -95 -26 -17 11 -38 17 -45 14 -8 -3 -14 0 -14 5 0 6 9 14 20 17
31 10 80 55 80 73 -1 21 -34 62 -50 62 -16 0 -87 -38 -95 -51 -4 -6 2 -24 14
-40 36 -48 29 -56 -51 -62 -84 -6 -92 -1 -102 67 -10 63 -25 80 -64 71 -27 -5
-32 -11 -32 -35 0 -16 -4 -31 -10 -35 -13 -8 -238 25 -276 40 -27 11 -32 19
-36 59 -3 26 -8 50 -12 53 -12 12 -71 -13 -81 -35 -12 -28 -18 -27 -96 2 -51
19 -65 29 -67 47 -2 13 -15 38 -28 56 -26 34 -46 78 -38 85 2 3 25 2 50 -2 38
-6 50 -4 65 11 11 11 19 28 19 38 0 28 -49 63 -77 56 -19 -4 -23 -1 -23 18 0
28 27 55 66 67 57 17 72 12 99 -30z"/>
<path d="M1970 8059 c-15 -6 -49 -8 -87 -4 -65 7 -133 -7 -133 -28 0 -32 26
-78 48 -84 13 -3 72 0 131 6 59 7 119 9 134 6 24 -7 26 -10 20 -54 -6 -54 11
-81 52 -81 42 0 47 57 9 107 l-25 33 148 0 c81 0 165 3 186 6 35 6 37 9 37 44
0 37 0 37 -47 43 -99 13 -448 18 -473 6z"/>
<path d="M1589 8020 c-7 -4 -43 -11 -79 -15 -36 -4 -74 -12 -85 -18 -11 -6
-38 -12 -60 -13 -45 -2 -228 -55 -275 -79 -24 -12 -35 -13 -51 -4 -13 7 -44 9
-78 6 -134 -14 -155 -19 -195 -53 -40 -35 -130 -74 -168 -74 -25 0 -111 -64
-168 -126 -60 -65 -90 -135 -90 -211 l0 -63 34 0 c33 0 35 2 51 57 20 67 38
105 72 151 19 25 28 30 38 22 10 -8 22 -3 49 20 19 17 40 29 46 25 6 -4 17 -1
25 5 38 32 130 80 143 75 8 -3 31 10 53 30 22 19 43 35 49 35 5 0 29 -9 52
-21 l43 -20 125 39 c69 22 150 43 181 47 55 7 57 6 71 -21 14 -30 35 -39 71
-30 18 4 22 12 22 48 l0 42 53 12 c29 7 66 17 81 24 27 11 51 46 51 73 -1 19
-44 46 -61 37z"/>
<path d="M2594 7895 c-8 -34 2 -71 27 -96 28 -28 43 -19 47 27 5 68 -59 127
-74 69z"/>
<path d="M2355 7860 c-21 -46 -17 -74 12 -78 49 -7 90 43 77 93 -5 20 -12 24
-39 23 -28 -1 -36 -7 -50 -38z"/>
<path d="M1826 7874 c-9 -8 -16 -26 -16 -40 0 -26 32 -64 53 -64 32 0 51 103
21 114 -25 10 -42 7 -58 -10z"/>
<path d="M2860 7822 c0 -50 26 -76 66 -66 39 9 54 22 54 48 0 27 -46 56 -89
56 -29 0 -31 -2 -31 -38z"/>
<path d="M1535 7807 c-12 -46 -2 -71 32 -80 50 -15 83 -2 83 32 0 35 -27 60
-73 68 -32 5 -37 3 -42 -20z"/>
<path d="M3090 7781 c-12 -24 -13 -68 -1 -75 5 -4 30 -9 55 -12 l46 -7 0 47
c0 44 -1 46 -29 46 -17 0 -33 5 -36 10 -10 16 -23 12 -35 -9z"/>
<path d="M1267 7763 c-8 -10 -18 -29 -21 -43 -5 -21 -1 -28 30 -43 19 -9 39
-15 44 -12 12 7 22 73 15 95 -8 25 -46 26 -68 3z"/>
<path d="M850 7657 c0 -45 21 -77 51 -77 21 0 69 52 69 74 0 19 -55 46 -95 46
-23 0 -25 -4 -25 -43z"/>
<path d="M588 7533 c-25 -4 -28 -9 -28 -42 0 -46 20 -66 56 -57 32 8 61 70 43
92 -11 14 -19 15 -71 7z"/>
<path d="M536 6657 c-25 -26 -12 -64 31 -89 27 -16 35 -17 52 -6 25 16 26 26
4 77 -14 32 -22 39 -43 38 -14 0 -34 -9 -44 -20z"/>
<path d="M643 6171 l-22 -28 37 -36 c43 -42 67 -47 76 -14 11 40 6 67 -14 87
-27 27 -51 24 -77 -9z"/>
<path d="M6286 6075 c-4 -11 -154 -50 -236 -61 -25 -4 -53 -14 -63 -22 -9 -8
-43 -17 -75 -20 -42 -3 -64 -10 -82 -27 -14 -13 -37 -27 -52 -30 -14 -4 -46
-26 -71 -49 -27 -27 -96 -69 -178 -111 -172 -87 -215 -117 -222 -152 -3 -15 4
-77 15 -138 23 -127 28 -134 129 -166 85 -26 267 -23 339 5 40 16 62 17 190
10 80 -4 166 -8 192 -8 30 -1 55 -8 68 -18 12 -11 37 -18 63 -18 23 0 65 -11
95 -25 l52 -24 35 31 c19 16 38 40 41 53 3 12 19 32 35 44 17 13 48 59 73 109
44 88 59 107 100 127 12 6 22 22 24 37 2 15 14 34 29 43 31 21 59 84 67 155 7
57 -6 180 -25 238 -10 31 -12 32 -47 25 -35 -7 -251 -8 -414 -1 -47 2 -79 -1
-82 -7z m264 -124 c0 -53 -85 -157 -155 -190 -22 -11 -47 -26 -54 -35 -10 -12
-31 -16 -76 -16 -35 0 -125 -9 -202 -21 -136 -20 -302 -27 -342 -14 -50 15 1
76 109 130 41 20 84 46 96 56 14 14 52 24 120 34 70 11 118 24 164 47 63 32
69 33 203 35 l137 2 0 -28z m210 -67 c0 -47 -4 -65 -16 -72 -9 -5 -46 -53 -82
-108 -75 -110 -102 -129 -146 -100 -20 13 -26 25 -26 53 0 49 35 102 71 110
21 4 34 16 50 50 12 24 44 68 71 99 63 68 78 62 78 -32z m-440 -294 c52 -15
93 -55 84 -83 -23 -75 -54 -82 -361 -82 -250 0 -263 -1 -277 -20 -13 -17 -15
-18 -16 -3 0 15 -2 15 -32 0 -71 -36 -182 -15 -244 46 -32 32 -68 108 -58 123
4 8 31 9 83 5 42 -4 164 -9 271 -12 160 -4 218 -1 325 15 155 23 179 24 225
11z"/>
<path d="M905 6408 c10 -46 12 -48 50 -48 38 0 46 13 31 52 -9 24 -16 28 -49
28 -38 0 -39 0 -32 -32z"/>
<path d="M1040 6346 c0 -12 20 -77 25 -84 2 -2 19 0 39 3 38 8 43 21 30 73 -5
18 -13 22 -50 22 -30 0 -44 -4 -44 -14z"/>
<path d="M9253 5415 c-32 -63 -30 -79 14 -94 33 -12 38 -12 50 5 7 10 13 24
13 33 0 12 -47 102 -53 101 -1 0 -12 -21 -24 -45z"/>
<path d="M9033 5424 c-24 -10 -15 -63 15 -89 27 -24 72 -34 72 -15 0 6 7 10
15 10 11 0 15 12 15 45 0 36 -3 45 -17 45 -10 0 -34 2 -53 5 -19 2 -41 2 -47
-1z"/>
<path d="M8865 5301 c-40 -6 -40 -6 -38 -49 2 -45 16 -72 37 -72 14 0 61 48
68 70 6 18 -8 61 -19 59 -4 -1 -26 -5 -48 -8z"/>
<path d="M10060 5251 c0 -5 -11 -21 -25 -35 -27 -27 -31 -55 -14 -87 8 -16 17
-19 40 -14 19 4 29 3 29 -5 0 -6 5 -8 10 -5 6 3 10 27 10 52 0 34 -6 53 -25
75 -14 16 -25 25 -25 19z"/>
<path d="M9427 5159 c-4 -14 -10 -18 -18 -13 -9 5 -10 2 -5 -12 5 -10 12 -34
18 -52 13 -45 33 -50 64 -17 30 32 26 76 -9 100 -29 21 -44 19 -50 -6z"/>
<path d="M9161 5158 c-1 -14 -10 -18 -36 -18 -41 0 -53 -19 -36 -56 16 -37 59
-50 89 -27 14 10 29 29 33 41 7 19 4 24 -15 32 -14 5 -26 17 -29 27 -4 17 -5
17 -6 1z"/>
<path d="M11681 5286 c-14 -14 -31 -26 -39 -26 -17 0 -9 -47 11 -66 17 -16 77
-28 77 -16 0 14 29 42 42 42 5 0 7 -7 4 -16 -9 -24 25 -75 45 -69 10 4 19 -1
24 -12 6 -16 8 -16 26 6 24 30 24 58 -1 99 -23 37 -27 38 -52 15 -11 -10 -18
-12 -18 -4 0 9 -5 9 -20 1 -23 -12 -40 -6 -40 14 0 8 -8 24 -18 36 l-17 21
-24 -25z"/>
<path d="M11410 5174 c0 -6 7 -31 15 -54 8 -23 15 -48 15 -56 0 -19 -31 -46
-46 -40 -18 7 -18 -6 0 -49 17 -40 73 -75 87 -53 12 18 11 37 -5 82 -15 44
-10 91 6 61 9 -15 13 -13 39 17 52 61 31 94 -63 100 -31 2 -48 -1 -48 -8z"/>
<path d="M11598 5095 c-9 -20 -7 -34 13 -79 13 -31 27 -56 31 -56 3 0 18 20
32 45 l25 46 -21 34 c-25 43 -63 48 -80 10z"/>
<path d="M11276 5055 c-3 -8 -12 -15 -21 -15 -28 0 -13 -81 19 -102 6 -4 23
-8 37 -8 58 0 50 98 -11 130 -13 7 -19 6 -24 -5z"/>
<path d="M11096 4984 c-18 -47 8 -94 52 -94 19 0 22 6 22 39 0 57 -8 71 -40
71 -16 0 -30 -7 -34 -16z"/>
<path d="M11217 4869 c-36 -37 -37 -40 -23 -67 8 -15 26 -33 41 -40 23 -11 28
-9 50 15 28 32 31 43 11 43 -9 0 -16 17 -20 45 -4 25 -10 45 -14 44 -4 -1 -24
-18 -45 -40z"/>
<path d="M10855 4866 c-32 -10 -41 -18 -45 -42 -4 -23 0 -34 22 -53 16 -12 35
-20 43 -17 23 9 49 70 41 100 -7 29 -6 29 -61 12z"/>
<path d="M11008 4865 c-1 -11 -2 -44 -2 -74 -1 -50 -3 -55 -26 -61 -21 -5 -25
-12 -28 -50 -3 -60 4 -69 53 -61 l40 7 -1 47 c0 32 4 47 13 47 25 0 53 39 53
73 0 40 -39 83 -66 73 -10 -4 -21 -1 -26 6 -5 9 -8 7 -10 -7z"/>
<path d="M3675 5067 c-36 -21 -40 -27 -37 -57 3 -41 18 -60 46 -60 26 0 65 37
67 65 8 80 -8 91 -76 52z"/>
<path d="M4002 5073 c-29 -14 -33 -20 -28 -45 5 -26 3 -28 -28 -28 -20 0 -40
-8 -50 -19 -15 -17 -16 -25 -6 -55 13 -39 14 -41 50 -49 23 -6 28 -2 43 39 9
26 14 50 11 55 -3 6 5 7 19 4 36 -9 71 27 62 63 -7 28 -23 52 -34 52 -3 0 -21
-8 -39 -17z"/>
<path d="M4116 4936 c-3 -13 -9 -31 -12 -40 -4 -10 2 -19 17 -26 13 -5 32 -16
42 -22 16 -11 22 -9 43 15 15 18 24 40 24 63 l0 34 -54 0 c-49 0 -54 -2 -60
-24z"/>
<path d="M3770 4878 c0 -78 30 -100 80 -60 21 17 22 21 9 55 -12 34 -16 37
-51 37 -36 0 -38 -2 -38 -32z"/>
<path d="M4000 4820 c-12 -23 -4 -64 15 -80 19 -16 75 14 75 40 0 26 -34 60
-60 60 -10 0 -24 -9 -30 -20z"/>
<path d="M4247 4815 c-4 -8 -5 -21 -3 -27 3 -7 7 -25 10 -40 6 -24 11 -28 41
-28 l35 0 0 -59 c0 -72 15 -118 33 -103 6 5 26 13 44 16 44 10 57 29 50 77 -7
57 -28 76 -62 61 -41 -19 -44 -16 -47 51 l-3 62 -46 3 c-35 2 -48 -1 -52 -13z"/>
<path d="M4531 4801 c-24 -16 -47 -34 -51 -42 -11 -16 23 -84 46 -93 38 -15
81 66 70 130 -4 19 -10 34 -14 33 -4 0 -27 -13 -51 -28z"/>
<path d="M4787 4728 c-9 -12 -18 -34 -22 -48 -5 -23 -9 -25 -59 -22 -49 3 -54
2 -59 -20 -19 -68 3 -103 61 -96 23 3 28 8 32 43 l5 40 58 3 57 3 0 46 c0 26
-3 43 -7 40 -3 -4 -17 2 -29 14 l-22 21 -15 -24z"/>
<path d="M5019 4705 c-24 -13 -46 -53 -45 -81 1 -16 33 -44 50 -44 45 0 77 33
90 92 10 44 -42 62 -95 33z"/>
<path d="M5280 4572 c-14 -2 -40 -8 -59 -14 -33 -10 -33 -11 -27 -56 7 -52 16
-61 54 -54 49 9 82 40 82 76 0 39 -15 53 -50 48z"/>
<path d="M4850 4511 c0 -16 -3 -36 -6 -45 -4 -10 -1 -16 7 -16 7 0 20 -7 30
-16 23 -21 37 -11 60 40 28 62 26 66 -36 66 -54 0 -55 0 -55 -29z"/>
<path d="M5050 4434 c-41 -13 -45 -17 -47 -48 -2 -26 3 -39 19 -50 56 -40 148
3 133 62 -14 55 -28 60 -105 36z"/>
<path d="M5305 4365 c-4 -25 -2 -41 5 -43 6 -2 25 -16 42 -30 29 -25 31 -25
44 -7 17 22 18 51 4 91 -9 26 -15 29 -49 29 -38 0 -39 -1 -46 -40z"/>
<path d="M5522 4264 c-26 -18 -30 -65 -7 -87 17 -18 70 -31 85 -22 5 3 10 28
10 54 0 42 -3 49 -25 59 -33 15 -36 15 -63 -4z"/>
<path d="M6180 4272 c0 -5 -9 -12 -20 -15 -17 -4 -18 -8 -8 -34 18 -47 6 -63
-46 -63 -65 0 -101 -47 -61 -80 8 -7 15 -18 15 -24 0 -6 15 -11 33 -11 26 0
36 7 54 35 12 19 23 42 23 50 0 9 14 20 32 25 44 14 58 57 31 94 -20 26 -53
41 -53 23z"/>
<path d="M5788 4243 c-25 -30 -28 -51 -10 -83 21 -36 50 -39 79 -7 35 38 37
62 7 86 -33 26 -56 27 -76 4z"/>
<path d="M6295 4076 l-19 -35 45 -40 c24 -22 47 -40 52 -41 4 0 12 12 18 27
17 45 -22 123 -61 123 -9 0 -25 -15 -35 -34z"/>
<path d="M6578 4029 c-9 -5 -15 -15 -13 -22 2 -6 6 -24 9 -39 4 -18 16 -29 37
-37 46 -16 54 -14 67 14 20 43 15 82 -10 89 -34 9 -71 7 -90 -5z"/>
<path d="M6818 3989 c-19 -10 -23 -43 -12 -98 6 -26 11 -31 35 -31 22 0 32 6
39 26 29 76 -7 136 -62 103z"/>
<path d="M6170 3955 c-17 -27 -19 -38 -10 -55 6 -11 17 -20 25 -20 7 0 15 -4
17 -10 2 -5 13 -7 26 -4 18 5 22 13 22 50 0 33 -5 46 -22 58 -31 22 -33 21
-58 -19z"/>
<path d="M6464 3915 c-21 -33 -7 -71 32 -85 41 -16 64 -4 64 33 0 70 -62 103
-96 52z"/>
<path d="M7046 3905 c-16 -17 -21 -60 -10 -89 4 -10 18 -16 40 -16 39 0 48 13
48 75 1 38 -1 40 -30 43 -19 2 -38 -3 -48 -13z"/>
<path d="M6684 3838 c-18 -79 -10 -98 41 -98 63 0 73 59 15 93 -16 10 -30 22
-30 28 0 23 -19 6 -26 -23z"/>
<path d="M7274 3795 c-9 -15 -17 -40 -16 -58 1 -55 69 -90 92 -48 22 42 4 98
-40 121 -16 8 -22 6 -36 -15z"/>
<path d="M6921 3764 c-33 -43 -27 -70 20 -94 23 -12 42 -20 44 -18 2 2 7 27
11 55 6 50 5 52 -24 67 -30 15 -31 15 -51 -10z"/>
<path d="M7530 3661 c0 -53 8 -61 60 -61 30 0 40 18 40 78 0 32 0 32 -50 32
l-50 0 0 -49z"/>
<path d="M7129 3649 c-22 -8 -27 -17 -32 -61 -4 -29 -5 -53 -4 -54 1 -1 20 -5
42 -8 38 -6 41 -4 63 29 12 19 22 43 22 54 0 35 -47 56 -91 40z"/>
<path d="M7357 3573 c-4 -3 -7 -24 -7 -45 0 -27 4 -38 15 -38 8 0 15 -4 15
-10 0 -5 15 -10 34 -10 28 0 35 4 40 26 5 17 12 24 21 20 21 -8 18 15 -4 42
-15 17 -30 22 -63 22 -25 0 -48 -3 -51 -7z"/>
<path d="M7662 4708 c-7 -7 -12 -25 -12 -40 0 -21 6 -31 26 -38 59 -23 103 -3
104 46 0 36 -90 60 -118 32z"/>
<path d="M7815 4486 c-17 -26 -12 -50 18 -83 l20 -23 24 32 c28 39 30 74 4 88
-31 16 -49 12 -66 -14z"/>
<path d="M8006 4074 c-18 -47 7 -114 43 -114 51 0 63 97 15 119 -34 15 -51 14
-58 -5z"/>
<path d="M8148 3443 c-34 -5 -39 -20 -25 -71 11 -40 13 -42 48 -42 32 0 39 4
53 34 34 72 15 93 -76 79z"/>
<path d="M12000 4266 c0 -9 -9 -16 -20 -16 -17 0 -20 -7 -20 -49 0 -35 -9 -65
-30 -106 -27 -52 -29 -59 -16 -84 8 -15 22 -33 31 -41 28 -23 40 4 40 90 0 68
3 80 17 80 24 0 39 51 27 94 -10 37 -29 58 -29 32z"/>
<path d="M11747 4223 c-9 -9 -8 -96 1 -108 4 -5 18 -11 32 -11 14 -1 35 -5 47
-9 18 -6 23 -3 28 16 7 31 -9 85 -24 81 -7 -1 -27 6 -45 18 -18 11 -36 17 -39
13z"/>
<path d="M11546 4116 c-26 -41 -21 -72 15 -86 27 -12 33 -11 51 8 16 16 19 27
14 56 -4 21 -13 36 -21 36 -7 0 -20 2 -28 6 -8 3 -21 -5 -31 -20z"/>
<path d="M11672 4024 c-25 -17 -28 -52 -11 -102 10 -28 8 -35 -15 -63 -14 -17
-26 -37 -26 -44 0 -21 60 -86 72 -79 6 4 7 39 3 95 l-7 89 31 0 31 0 0 60 c0
59 0 60 -28 60 -15 0 -38 -7 -50 -16z"/>
<path d="M11316 4008 c-10 -37 -7 -83 6 -96 9 -9 4 -21 -26 -51 -38 -38 -38
-39 -25 -76 16 -43 29 -51 59 -35 21 11 22 16 15 86 l-7 74 32 0 c31 0 31 1
28 42 -2 34 -7 44 -23 46 -11 2 -27 11 -36 18 -15 13 -17 12 -23 -8z"/>
<path d="M11180 3983 c0 -16 -5 -20 -19 -16 -24 6 -30 -4 -41 -74 -6 -34 -17
-63 -26 -70 -14 -10 -16 -23 -11 -71 4 -32 4 -68 1 -80 -5 -18 -9 -20 -27 -10
-27 14 -47 -12 -47 -64 0 -62 60 -105 68 -49 2 12 10 25 17 27 10 4 12 19 8
57 -5 52 -5 52 28 64 32 12 34 15 36 65 0 29 11 75 22 101 25 57 27 96 6 123
-14 19 -14 19 -15 -3z"/>
<path d="M11513 3958 c-36 -44 -41 -72 -17 -106 10 -15 25 -22 49 -22 31 0 35
3 40 33 6 29 -15 108 -34 128 -3 4 -21 -11 -38 -33z"/>
<path d="M10910 3865 c0 -44 17 -81 47 -101 14 -8 26 -14 27 -12 14 19 37 82
34 95 -2 13 -82 53 -105 53 -2 0 -3 -16 -3 -35z"/>
<path d="M10745 3755 c-31 -31 -34 -85 -5 -102 10 -7 26 -10 34 -7 15 6 56
-32 56 -51 0 -15 43 -55 58 -55 7 0 12 6 12 14 0 7 7 19 15 26 8 7 15 23 15
35 0 26 -22 35 -86 35 -38 0 -41 2 -41 28 0 45 -13 102 -24 102 -5 0 -21 -11
-34 -25z"/>
<path d="M10567 3744 c-10 -13 -27 -24 -37 -24 -18 0 -20 -7 -20 -95 0 -90 2
-98 26 -122 25 -25 26 -25 40 -5 21 30 36 194 21 236 l-12 34 -18 -24z"/>
<path d="M11201 3640 c-19 -39 -22 -53 -13 -62 7 -7 12 -8 12 -3 0 4 9 0 19
-9 19 -17 20 -17 37 9 23 35 22 84 -1 101 -10 8 -21 14 -24 14 -3 0 -17 -23
-30 -50z"/>
<path d="M10664 3548 c8 -42 35 -68 77 -77 29 -6 35 -12 40 -44 7 -44 12 -50
43 -54 18 -3 26 4 36 26 6 16 10 40 8 53 -3 20 -8 23 -50 22 l-47 0 -8 50 -8
51 -49 3 -49 3 7 -33z"/>
<path d="M10247 3563 c-9 -16 6 -72 23 -88 10 -9 30 -17 46 -18 28 -2 29 0 32
49 3 46 1 52 -20 58 -32 8 -76 8 -81 -1z"/>
<path d="M9843 3465 c-3 -9 -3 -36 0 -61 4 -42 3 -45 -29 -60 -46 -22 -49 -29
-29 -80 9 -25 16 -46 14 -47 -40 -21 -44 -27 -43 -61 1 -37 27 -76 49 -76 16
0 38 53 32 77 -18 66 -18 70 11 76 27 6 28 6 22 71 -3 36 -4 66 -2 66 2 0 13
-5 24 -11 46 -24 66 60 25 99 -27 26 -65 29 -74 7z"/>
<path d="M10057 3473 c-23 -22 13 -143 43 -143 14 0 31 37 32 72 1 41 -54 93
-75 71z"/>
<path d="M10203 3383 l-32 -25 19 -38 c17 -33 37 -50 59 -50 11 0 31 47 31 73
0 23 -26 67 -38 67 -4 -1 -21 -12 -39 -27z"/>
<path d="M10400 3385 c0 -8 -9 -15 -19 -15 -11 0 -22 -4 -25 -8 -6 -10 51
-112 62 -112 4 1 22 13 40 29 28 24 31 32 26 59 -4 21 -12 32 -24 32 -10 0
-23 7 -30 15 -7 8 -16 15 -21 15 -5 0 -9 -7 -9 -15z"/>
<path d="M9996 3298 c-12 -47 -6 -98 14 -118 26 -26 34 -25 49 4 16 29 7 75
-20 111 -25 31 -35 32 -43 3z"/>
<path d="M9577 3213 c-22 -81 -10 -116 41 -119 18 -1 35 3 38 8 11 17 -6 98
-20 98 -8 0 -19 7 -26 15 -16 20 -28 19 -33 -2z"/>
<path d="M9372 3137 c-9 -11 -8 -24 3 -58 14 -41 18 -44 50 -45 30 0 36 3 41
25 3 14 8 33 10 42 6 21 -13 36 -57 44 -25 5 -39 2 -47 -8z"/>
<path d="M9945 3090 c-4 -6 -11 -8 -16 -5 -13 9 -11 -49 3 -80 19 -41 71 -32
82 15 4 18 -1 33 -19 53 -25 29 -40 34 -50 17z"/>
<path d="M9538 3033 c-37 -41 -30 -110 13 -133 30 -16 39 -3 40 59 1 40 -3 57
-18 72 -18 19 -20 19 -35 2z"/>
<path d="M9153 3020 c-40 -24 -40 -32 -6 -76 31 -42 63 -43 77 -2 7 21 6 37
-7 63 -19 41 -22 41 -64 15z"/>
<path d="M9305 2980 c-8 -13 5 -102 17 -117 15 -18 23 -16 36 10 6 12 11 16
11 10 1 -7 6 -13 11 -13 6 0 10 20 10 45 0 39 -4 46 -30 60 -34 18 -46 19 -55
5z"/>
<path d="M9050 2823 c0 -59 19 -80 70 -75 l41 4 -3 52 -3 51 -52 3 -53 3 0
-38z"/>
<path d="M9216 2772 c-3 -5 -8 -28 -12 -50 -6 -41 -6 -42 23 -42 16 0 34 -5
41 -12 17 -17 24 -5 30 50 4 45 2 50 -19 55 -33 9 -57 9 -63 -1z"/>
<path d="M3535 4167 c-12 -61 -3 -92 26 -95 35 -4 59 22 59 63 0 24 -7 39 -22
49 -36 26 -56 20 -63 -17z"/>
<path d="M3788 4143 c-28 -32 -31 -61 -9 -89 15 -19 21 -41 21 -78 0 -60 20
-96 55 -96 26 0 55 33 55 62 0 11 -16 26 -41 39 -37 18 -40 23 -35 47 4 15 10
51 13 80 5 50 5 52 -19 52 -14 0 -32 -8 -40 -17z"/>
<path d="M4447 4142 c-22 -25 -22 -81 1 -98 28 -22 69 -17 76 9 11 40 6 67
-14 87 -25 25 -42 25 -63 2z"/>
<path d="M3926 4084 c-24 -23 -20 -77 7 -102 22 -21 25 -21 55 -6 28 13 32 21
32 53 0 61 -56 94 -94 55z"/>
<path d="M3400 4071 c-14 -3 -26 -13 -26 -21 -1 -8 -5 -27 -8 -41 -6 -21 -3
-27 19 -37 14 -7 39 -12 56 -12 l30 0 -3 58 c-3 62 -12 68 -68 53z"/>
<path d="M4607 4045 c-33 -31 -33 -33 -4 -76 30 -45 52 -48 71 -10 21 40 20
74 -2 94 -25 23 -32 21 -65 -8z"/>
<path d="M3650 4041 c-5 -11 -10 -33 -10 -49 0 -24 6 -32 31 -42 41 -18 63 -4
67 43 2 27 -2 39 -20 51 -30 21 -55 20 -68 -3z"/>
<path d="M4068 4023 c-23 -6 -25 -79 -3 -110 34 -49 98 12 75 72 -8 20 -41 48
-52 44 -2 -1 -11 -3 -20 -6z"/>
<path d="M4334 4020 c-32 -13 -36 -25 -20 -65 15 -36 47 -55 92 -55 21 0 24 4
24 39 0 61 -47 101 -96 81z"/>
<path d="M4490 3930 c-23 -23 -25 -48 -8 -85 13 -28 30 -32 48 -10 7 8 21 15
31 15 15 0 19 7 19 33 0 59 -51 86 -90 47z"/>
<path d="M5082 3928 c-26 -13 -35 -39 -30 -94 3 -35 6 -39 34 -42 43 -4 69 28
68 84 0 24 -3 46 -5 48 -12 11 -47 13 -67 4z"/>
<path d="M4797 3917 c-25 -10 -28 -16 -25 -51 2 -30 10 -44 32 -60 21 -16 30
-18 33 -8 4 9 9 10 18 2 9 -8 14 -1 19 29 3 21 3 53 0 70 -7 34 -25 38 -77 18z"/>
<path d="M5276 3867 c-3 -16 -6 -42 -6 -58 0 -26 -3 -29 -34 -29 -33 0 -34 -1
-37 -43 -6 -70 -2 -77 41 -77 46 0 53 8 52 66 -1 38 2 44 19 44 53 0 67 27 53
99 -6 28 -10 31 -44 29 -34 -1 -39 -5 -44 -31z"/>
<path d="M4928 3783 c-14 -3 -18 -15 -18 -49 0 -25 4 -43 9 -40 4 3 16 -3 26
-14 17 -18 18 -18 51 15 19 19 34 38 34 44 0 21 -71 52 -102 44z"/>
<path d="M5468 3783 c-14 -3 -18 -15 -18 -49 0 -39 2 -44 23 -44 13 0 29 -6
36 -12 17 -18 61 33 61 71 0 38 -39 51 -102 34z"/>
<path d="M5885 3647 c-11 -43 -2 -71 29 -85 21 -11 34 -12 52 -3 48 22 19 95
-43 107 -28 6 -33 3 -38 -19z"/>
<path d="M5350 3621 c0 -39 27 -82 39 -63 3 5 16 12 29 16 22 7 26 23 16 64
-5 18 -13 22 -45 22 -39 0 -39 0 -39 -39z"/>
<path d="M5755 3530 c-7 -44 2 -64 35 -73 33 -8 53 16 54 64 l1 44 -42 3 c-41
3 -41 3 -48 -38z"/>
<path d="M6280 3511 c-14 -34 4 -111 27 -111 19 0 53 37 53 59 0 11 2 25 5 33
5 13 -41 48 -63 48 -5 0 -15 -13 -22 -29z"/>
<path d="M6460 3450 c-21 -51 2 -120 40 -120 47 0 60 82 20 125 -31 33 -45 32
-60 -5z"/>
<path d="M5900 3431 c0 -5 -9 -11 -20 -14 -31 -8 -26 -54 11 -88 l31 -29 29
30 c23 23 28 35 23 55 -7 30 -74 72 -74 46z"/>
<path d="M6066 3348 c-39 -36 -43 -71 -10 -97 41 -32 59 -27 78 22 21 56 20
74 -3 87 -28 14 -37 13 -65 -12z"/>
<path d="M6642 3348 c-17 -17 -16 -78 2 -78 7 0 19 -7 26 -15 7 -8 16 -15 21
-15 17 0 39 33 39 59 0 48 -57 80 -88 49z"/>
<path d="M6355 3293 c8 -44 13 -52 54 -76 29 -17 30 -17 36 3 3 11 13 20 21
20 17 0 18 13 2 57 -12 32 -14 33 -66 33 l-54 0 7 -37z"/>
<path d="M6543 3232 c-43 -23 -44 -62 -4 -103 48 -48 59 -37 64 66 2 57 -9 64
-60 37z"/>
<path d="M7030 3168 c0 -13 -5 -40 -11 -61 -10 -37 -11 -38 -28 -22 -17 14
-19 14 -24 0 -4 -8 -18 -15 -33 -15 -25 0 -26 -2 -19 -37 8 -45 35 -76 58 -68
9 4 30 28 47 54 29 46 63 71 97 71 11 0 14 6 9 23 -4 12 -9 34 -12 50 -6 24
-11 27 -45 27 -34 0 -39 -3 -39 -22z"/>
<path d="M6756 3138 c-37 -35 -41 -61 -13 -94 l25 -28 36 27 c41 32 47 66 16
97 -25 25 -33 25 -64 -2z"/>
<path d="M7238 3072 c-21 -3 -28 -9 -28 -26 0 -48 80 -87 109 -52 6 7 8 26 5
44 -6 32 -28 41 -86 34z"/>
<path d="M7150 2991 c0 -6 -11 -11 -25 -11 -22 0 -25 -4 -25 -35 0 -46 37 -85
80 -85 27 0 30 3 30 33 0 36 -28 99 -47 105 -7 2 -13 -1 -13 -7z"/>
<path d="M7393 2983 c-26 -5 -29 -24 -12 -71 11 -32 63 -63 78 -46 10 11 35
103 30 108 -8 8 -74 14 -96 9z"/>
<path d="M7253 2854 c-3 -9 -2 -33 3 -53 9 -34 11 -36 55 -39 l45 -3 11 46 c9
40 8 47 -8 55 -30 16 -99 12 -106 -6z"/>
<path d="M2978 2564 c-4 -4 -37 -6 -74 -5 -49 1 -73 -3 -93 -16 -22 -15 -49
-18 -181 -18 -148 0 -163 -2 -330 -43 -96 -23 -208 -53 -248 -67 -40 -14 -89
-25 -110 -25 -25 0 -41 -6 -48 -18 -6 -9 -40 -26 -75 -36 -91 -27 -118 -42
-171 -97 -27 -27 -61 -52 -80 -57 -30 -7 -36 -16 -65 -91 -49 -127 -59 -187
-39 -253 9 -31 22 -61 30 -67 11 -9 130 -40 157 -41 4 0 9 -9 12 -20 4 -17 14
-20 54 -20 37 0 58 -6 83 -25 25 -19 45 -25 73 -23 25 1 42 -3 47 -13 7 -10
44 -17 129 -25 105 -9 124 -13 160 -38 34 -24 47 -28 81 -22 32 5 42 3 47 -10
5 -13 7 -13 14 -2 8 11 10 11 18 -1 7 -11 9 -11 14 0 5 11 8 10 17 -4 10 -15
20 -17 65 -12 48 6 59 4 108 -24 52 -30 61 -31 164 -32 76 0 127 -6 173 -20
36 -10 114 -28 175 -39 68 -12 114 -25 121 -35 8 -10 29 -15 70 -15 75 0 284
-57 302 -82 10 -13 27 -18 65 -18 90 -1 189 -20 235 -45 27 -15 61 -25 86 -25
22 -1 70 -7 106 -15 36 -8 90 -14 121 -15 41 0 69 -7 100 -24 24 -14 94 -39
154 -57 133 -38 180 -61 222 -106 35 -36 126 -68 172 -60 19 4 35 -6 73 -44
34 -34 82 -65 151 -99 56 -27 108 -59 115 -70 7 -11 49 -39 94 -61 46 -22 92
-49 103 -59 12 -11 34 -20 51 -20 43 0 116 -22 240 -72 118 -49 191 -68 255
-68 32 0 47 -7 72 -32 32 -31 93 -45 101 -23 2 6 11 3 22 -6 30 -25 158 -67
187 -62 16 3 39 -3 60 -16 24 -15 36 -18 45 -9 8 8 25 3 64 -19 74 -42 200
-81 283 -89 39 -3 92 -12 119 -20 27 -8 72 -14 100 -14 31 0 56 -6 67 -16 12
-11 49 -20 104 -25 62 -6 94 -15 112 -29 19 -15 41 -20 87 -20 40 0 69 -6 85
-16 17 -12 26 -13 34 -5 14 14 59 14 144 -1 60 -10 85 -8 203 12 74 12 163 23
198 23 44 1 62 4 62 14 0 19 17 16 29 -4 10 -17 10 -17 11 0 0 20 49 24 67 6
9 -9 23 -6 55 9 24 11 62 26 86 33 54 16 104 72 123 137 23 79 17 205 -16 292
-50 135 -70 166 -153 232 -42 35 -111 95 -152 134 -90 85 -117 104 -147 104
-13 0 -30 11 -40 26 -22 34 -158 124 -187 124 -14 0 -28 10 -36 26 -18 32 -28
37 -142 75 -51 16 -107 41 -124 54 -18 14 -41 25 -52 25 -11 0 -49 14 -85 30
-37 17 -81 30 -98 30 -18 0 -40 7 -49 15 -9 9 -49 22 -89 29 -69 13 -121 37
-121 56 0 5 -12 8 -27 8 -16 0 -41 5 -56 11 -16 6 -41 11 -57 11 -16 0 -30 6
-32 12 -3 9 -36 15 -94 18 -68 5 -102 12 -144 32 -74 36 -356 98 -459 101 -52
1 -81 6 -81 13 0 21 -68 26 -254 19 -99 -3 -201 -2 -226 3 -39 7 -51 5 -90
-17 -32 -18 -59 -25 -97 -25 -29 0 -53 -4 -53 -8 0 -4 -11 -8 -25 -8 -14 0
-25 -4 -25 -10 0 -5 -15 -1 -32 9 -53 31 -134 51 -273 66 -154 18 -172 21
-250 47 -47 15 -64 26 -80 53 -11 18 -52 67 -92 109 -58 62 -77 76 -101 76
-21 0 -46 13 -82 44 -29 25 -67 48 -84 51 -75 16 -106 29 -106 45 0 11 -17 22
-53 33 -29 9 -77 35 -107 57 -37 27 -60 38 -73 34 -14 -4 -28 3 -48 25 -15 17
-38 31 -51 31 -12 0 -45 9 -73 20 -27 11 -69 24 -93 30 -24 6 -51 20 -60 30
-10 12 -36 22 -66 26 -30 4 -57 15 -70 28 -16 16 -34 21 -79 21 -32 0 -61 5
-65 11 -4 6 -63 23 -132 39 -159 36 -174 38 -182 29z m136 -113 c10 -11 37
-23 59 -26 23 -4 52 -13 63 -20 12 -8 43 -13 70 -12 36 2 65 -5 109 -25 33
-15 87 -33 120 -40 37 -7 67 -20 80 -34 11 -12 42 -27 70 -34 76 -18 183 -71
260 -130 55 -42 85 -57 141 -71 45 -10 89 -30 120 -52 58 -41 102 -64 164 -86
39 -13 62 -34 137 -121 49 -58 96 -110 104 -117 12 -10 14 -27 7 -91 -4 -43
-15 -101 -24 -128 -17 -51 -119 -262 -135 -279 -16 -16 -136 11 -173 38 -27
21 -53 27 -162 40 -74 9 -155 24 -189 37 -33 13 -97 26 -142 31 -97 10 -127
17 -298 75 -84 28 -156 46 -205 50 -41 3 -99 15 -128 25 -58 21 -192 44 -317
54 -123 10 -225 34 -281 65 -45 25 -51 26 -60 12 -9 -13 -15 -14 -40 -4 -16 7
-73 16 -126 21 -87 8 -104 14 -157 46 -52 32 -73 39 -147 46 -145 15 -464 108
-486 141 -11 19 -10 79 4 137 10 45 17 55 60 82 27 18 60 47 74 65 21 27 44
39 122 65 121 40 197 73 236 103 26 19 49 24 130 30 65 4 126 16 175 32 60 20
141 33 386 59 379 40 358 39 379 16z m2658 -832 c11 -6 83 -15 160 -20 90 -5
151 -14 171 -24 21 -11 33 -12 37 -4 5 7 25 6 66 -4 32 -9 78 -18 101 -22 24
-4 58 -17 77 -30 27 -18 43 -22 75 -18 31 4 53 -1 95 -21 48 -24 61 -26 123
-20 59 6 71 4 76 -10 4 -10 18 -16 39 -16 56 -1 109 -17 152 -48 49 -35 60
-39 154 -52 52 -7 98 -23 162 -55 49 -24 107 -47 129 -51 36 -6 41 -10 41 -34
0 -15 -9 -35 -20 -45 -24 -21 -25 -38 -6 -55 8 -6 16 -21 18 -33 3 -21 5 -20
37 11 28 28 33 38 28 66 l-5 34 41 -10 c84 -19 317 -153 317 -182 0 -7 -11
-19 -24 -26 -32 -17 -38 -32 -25 -70 12 -33 38 -53 56 -42 7 4 18 30 25 57 6
28 13 52 15 54 5 8 83 -50 149 -109 36 -33 88 -72 117 -87 123 -67 206 -293
151 -410 -20 -41 -69 -81 -118 -94 -20 -6 -34 -14 -31 -20 4 -5 3 -15 -2 -21
-5 -8 -10 14 -13 52 -5 65 -5 65 -34 63 -16 -1 -36 -9 -44 -17 -21 -21 -8 -64
23 -72 25 -6 43 -40 28 -54 -12 -13 -122 -40 -160 -40 -39 0 -43 18 -13 68 37
61 20 108 -35 94 -46 -13 -54 -36 -27 -82 30 -54 30 -90 -2 -90 -24 0 -76 50
-76 72 0 6 -10 3 -21 -8 -12 -10 -31 -19 -42 -19 -16 0 -23 -8 -27 -30 -5 -27
-9 -30 -46 -33 l-42 -3 -13 51 c-12 46 -16 51 -39 48 -20 -2 -28 -12 -39 -50
-16 -55 -24 -57 -124 -37 l-57 12 2 68 c3 83 -10 102 -41 63 -15 -19 -21 -41
-21 -74 l0 -48 -82 24 c-46 14 -125 30 -175 36 -104 13 -104 13 -78 88 17 48
19 98 5 120 -8 13 -14 11 -37 -12 -21 -22 -28 -38 -28 -70 0 -24 4 -53 8 -65
8 -22 6 -23 -56 -23 -36 0 -79 3 -97 6 l-32 7 6 58 c7 63 1 73 -44 73 -23 0
-25 -4 -25 -47 0 -42 -2 -47 -22 -47 -34 0 -179 48 -192 64 -7 9 -11 41 -9 83
3 67 3 68 31 68 27 -1 28 0 25 49 -3 56 -25 79 -55 60 -14 -9 -18 -24 -16 -68
2 -56 1 -57 -38 -81 -28 -18 -39 -32 -39 -50 0 -22 -3 -24 -32 -18 -81 15 -81
15 -74 101 8 94 -1 113 -38 86 -25 -18 -26 -23 -21 -75 5 -53 4 -57 -17 -63
-35 -9 -71 -7 -107 5 -34 12 -39 33 -20 88 6 17 9 41 5 54 -4 19 -12 22 -56
22 l-50 0 -6 -48 c-4 -26 -10 -50 -15 -52 -10 -7 -208 49 -246 68 -35 19 -69
55 -78 85 -8 29 -16 28 -48 -7 -24 -28 -29 -29 -64 -19 -46 12 -103 53 -103
74 0 9 9 18 21 21 12 4 18 11 15 20 -4 8 -9 26 -12 39 -14 56 -84 30 -84 -32
0 -32 -1 -33 -30 -22 -40 14 -44 23 -26 60 19 37 21 79 4 96 -7 7 -29 12 -49
12 -36 0 -38 -1 -41 -37 l-3 -38 -20 30 c-17 24 -20 49 -23 155 l-3 125 66
110 c67 113 160 235 183 243 10 3 12 -8 7 -54 -6 -52 -5 -61 14 -78 20 -18 22
-18 41 -1 14 13 20 31 20 60 0 35 -5 46 -26 59 -38 26 -28 55 24 73 24 8 45
13 46 11 35 -53 69 -86 84 -81 26 10 32 24 32 76 l0 47 55 -2 c33 -1 60 3 67
10 15 15 14 15 40 1z m-696 -14 c86 -25 87 -28 74 -125 -14 -104 -46 -186
-119 -308 -80 -132 -88 -141 -146 -151 -52 -10 -149 2 -172 20 -23 19 -46 147
-41 227 8 114 38 184 113 259 88 88 178 112 291 78z"/>
<path d="M5513 1313 c-58 -8 -90 -64 -85 -150 1 -28 64 -105 112 -138 37 -26
84 -33 95 -14 4 5 19 7 34 4 23 -5 32 0 53 27 52 68 61 97 54 167 -3 42 -11
70 -21 77 -9 7 -46 15 -83 18 -37 4 -80 9 -97 10 -16 2 -44 1 -62 -1z m148
-123 l24 -20 -28 -25 c-15 -14 -38 -25 -50 -25 -31 0 -67 27 -67 50 0 41 81
54 121 20z"/>
<path d="M5250 1264 c-6 -14 -10 -30 -10 -35 0 -13 52 -58 67 -59 26 0 42 64
27 104 -4 10 -18 16 -40 16 -28 0 -36 -5 -44 -26z"/>
<path d="M5875 1199 c-8 -12 2 -59 17 -76 16 -20 56 -15 68 8 6 11 8 33 5 50
-6 26 -11 29 -45 29 -21 0 -42 -5 -45 -11z"/>
<path d="M6090 1149 c0 -17 -5 -20 -24 -17 -20 4 -27 -1 -37 -23 -17 -44 -5
-72 36 -85 40 -13 45 -9 63 58 8 29 7 38 -4 42 -8 3 -14 12 -14 20 0 8 -4 18
-10 21 -5 3 -10 -4 -10 -16z"/>
<path d="M5225 1090 c-20 -39 -19 -59 6 -86 17 -18 24 -20 45 -10 23 10 25 15
21 55 -5 41 -25 71 -49 71 -4 0 -14 -13 -23 -30z"/>
<path d="M6574 1089 c-18 -5 -54 -24 -80 -42 -55 -38 -65 -64 -52 -136 17 -93
64 -126 178 -125 86 1 113 12 137 57 25 45 25 179 0 225 -17 31 -19 32 -85 31
-37 0 -81 -5 -98 -10z m116 -126 c0 -55 -31 -83 -92 -83 l-48 0 0 35 c0 51 41
81 113 84 25 1 27 -2 27 -36z"/>
<path d="M7616 1061 c-26 -49 -21 -75 19 -94 33 -16 35 -16 45 3 16 29 13 110
-4 110 -8 0 -21 3 -30 6 -10 4 -20 -5 -30 -25z"/>
<path d="M5838 1036 c-31 -23 -19 -56 35 -91 27 -17 28 -17 42 1 38 52 41 65
16 85 -27 22 -68 24 -93 5z"/>
<path d="M5389 1018 c-34 -63 -29 -116 12 -139 30 -16 49 10 49 69 0 71 -37
114 -61 70z"/>
<path d="M5975 928 c-3 -13 -2 -36 3 -53 8 -28 12 -30 53 -30 42 0 44 1 47 32
5 51 -12 73 -58 73 -33 0 -41 -4 -45 -22z"/>
<path d="M6196 898 c-21 -30 -20 -71 2 -91 10 -10 21 -17 25 -17 3 0 18 20 33
45 25 44 26 47 9 65 -24 26 -50 25 -69 -2z"/>
<path d="M5747 886 c-4 -9 -13 -16 -22 -16 -24 0 -20 -72 5 -95 24 -22 40 -11
65 41 15 33 13 74 -5 74 -5 0 -15 3 -23 6 -8 3 -17 -2 -20 -10z"/>
<path d="M5494 823 c2 -10 7 -28 11 -40 3 -11 18 -29 32 -38 25 -17 27 -17 44
6 10 13 19 39 19 57 l0 32 -56 0 c-48 0 -55 -2 -50 -17z"/>
<path d="M7980 827 c0 -14 -6 -16 -25 -11 -23 6 -25 3 -25 -28 0 -46 24 -78
60 -78 46 0 49 51 5 113 -13 18 -15 19 -15 4z"/>
<path d="M5896 785 c-48 -44 -23 -90 47 -83 27 3 33 8 35 32 2 19 -4 36 -19
52 -28 30 -30 30 -63 -1z"/>
<path d="M6836 781 c-11 -17 33 -91 60 -103 33 -15 55 12 51 67 l-2 40 -52 3
c-28 2 -54 -2 -57 -7z"/>
<path d="M6269 754 c-12 -32 -4 -71 18 -96 26 -28 41 -21 54 25 9 34 8 47 -3
67 -20 37 -55 38 -69 4z"/>
<path d="M5800 730 c0 -6 -8 -10 -17 -8 -14 2 -19 -5 -21 -35 -4 -44 10 -66
40 -64 29 2 54 62 39 94 -11 23 -41 32 -41 13z"/>
<path d="M6112 733 c-7 -3 -19 -17 -27 -33 -11 -22 -12 -33 -2 -54 24 -52 97
-22 97 40 0 45 -27 64 -68 47z"/>
<path d="M7738 730 c-80 -25 -138 -96 -138 -168 0 -50 25 -99 62 -122 43 -26
152 -27 225 -1 56 19 63 16 63 -33 0 -26 26 -66 44 -66 15 0 36 42 36 73 0 30
-18 47 -51 47 -26 0 -26 0 -17 48 14 70 -15 153 -57 164 -16 4 -39 19 -51 33
-23 29 -72 39 -116 25z m120 -125 c13 -5 16 -42 6 -69 -10 -26 -102 -22 -130
5 -19 17 -21 26 -13 41 18 33 73 42 137 23z"/>
<path d="M6497 708 c-4 -12 -7 -35 -7 -50 0 -26 3 -28 45 -28 35 0 47 4 55 21
14 25 6 65 -12 67 -7 1 -27 4 -44 8 -27 5 -32 3 -37 -18z"/>
<path d="M6688 664 c-10 -21 -9 -31 3 -52 27 -48 79 -36 79 17 0 21 -8 31 -35
44 -35 17 -36 17 -47 -9z"/>
<path d="M8110 660 c-15 -15 -20 -31 -18 -53 3 -31 5 -32 43 -29 51 5 57 11
53 58 -3 34 -7 39 -30 42 -17 2 -34 -4 -48 -18z"/>
<path d="M7090 641 c-5 -11 -10 -31 -10 -45 0 -21 7 -27 41 -37 44 -14 68 -44
50 -62 -19 -19 -12 -57 14 -83 31 -31 41 -25 50 28 7 39 5 43 -26 69 -31 25
-32 29 -21 54 15 32 6 72 -18 85 -30 16 -68 12 -80 -9z"/>
<path d="M7377 623 c-4 -3 -7 -28 -7 -55 0 -44 2 -49 19 -43 14 4 23 -1 32
-16 11 -22 12 -22 25 -4 20 27 17 68 -7 99 -19 25 -48 34 -62 19z"/>
<path d="M6906 598 c-12 -38 -15 -65 -10 -85 5 -19 13 -23 44 -23 33 0 39 4
46 28 12 40 12 39 -25 67 -39 28 -50 31 -55 13z"/>
<path d="M6639 543 c-23 -4 -27 -10 -32 -48 -7 -50 1 -85 14 -64 4 8 18 14 31
14 32 0 53 44 37 79 -7 14 -15 25 -18 25 -3 -1 -18 -4 -32 -6z"/>
<path d="M8136 466 c-25 -21 -27 -27 -19 -51 8 -24 16 -29 50 -32 39 -4 42 -2
48 25 16 76 -22 104 -79 58z"/>
<path d="M7360 387 c0 -22 8 -41 24 -56 l23 -22 27 32 c15 17 25 38 22 46 -4
8 -6 19 -6 24 0 5 -20 9 -45 9 -44 0 -45 -1 -45 -33z"/>
<path d="M7536 368 c-10 -39 -7 -86 7 -91 6 -2 27 -2 45 0 30 5 32 8 32 44 0
29 -5 41 -17 45 -10 3 -26 10 -35 15 -24 12 -25 12 -32 -13z"/>
<path d="M7080 311 c0 -42 28 -71 63 -64 20 4 27 11 27 30 0 43 -18 63 -55 63
-32 0 -35 -3 -35 -29z"/>
</g>
</svg>
